<?xml version="1.0" standalone="no"?>
 <!DOCTYPE svg PUBLIC "-//W3C//DTD SVG 1.1//EN" 
 "http://www.w3.org/Graphics/SVG/1.1/DTD/svg11.dtd"> 
<svg
  xmlns:svg="http://www.w3.org/2000/svg"
  xmlns="http://www.w3.org/2000/svg"
  xmlns:xlink="http://www.w3.org/1999/xlink"
  version="1.1"
  width="9.974580cm" height="9.532620cm" viewBox="0 0 39270 37530">
<title>SVG Picture created as Midular v2 Proto STM32F407VET6-B_SilkS.svg date 2021/03/03 09:33:06 </title>
  <desc>Picture generated by PCBNEW </desc>
<g style="fill:#000000; fill-opacity:1;stroke:#000000; stroke-opacity:1;
stroke-linecap:round; stroke-linejoin:round;"
 transform="translate(0 0) scale(1 1)">
</g>
<g style="fill:#000000; fill-opacity:0.0; 
stroke:#000000; stroke-width:-0.000393701; stroke-opacity:1; 
stroke-linecap:round; stroke-linejoin:round;">
</g>
<g style="fill:#840084; fill-opacity:0.0; 
stroke:#840084; stroke-width:-0.000393701; stroke-opacity:1; 
stroke-linecap:round; stroke-linejoin:round;">
</g>
<g style="fill:#840084; fill-opacity:1.0; 
stroke:#840084; stroke-width:0; stroke-opacity:1; 
stroke-linecap:round; stroke-linejoin:round;">
<circle cx="18576.6" cy="7050.2" r="39.3701" /> 
<circle cx="18497.8" cy="7050.2" r="39.3701" /> 
</g>
<g style="fill:#840084; fill-opacity:1.0; 
stroke:#840084; stroke-width:39.3701; stroke-opacity:1; 
stroke-linecap:round; stroke-linejoin:round;">
</g>
<g style="fill:#840084; fill-opacity:0.0; 
stroke:#840084; stroke-width:39.3701; stroke-opacity:1; 
stroke-linecap:round; stroke-linejoin:round;">
<path d="M17651 5081
L17651 6050
" />
<path d="M16391 5081
L17651 5081
" />
<path d="M16391 3900
L16391 5081
" />
<path d="M7690 3900
L16391 3900
" />
<path d="M7690 5081
L7690 3900
" />
<path d="M6430 5081
L7690 5081
" />
<path d="M6430 6050
L6430 5081
" />
<path d="M6430 9018
L6430 8050
" />
<path d="M7690 9018
L6430 9018
" />
<path d="M7690 9050
L7690 9018
" />
<path d="M7690 10199
L7690 9050
" />
<path d="M16391 10199
L7690 10199
" />
<path d="M16391 9018
L16391 10199
" />
<path d="M17651 9018
L16391 9018
" />
<path d="M17651 8050
L17651 9018
" />
</g>
<g style="fill:#840084; fill-opacity:0.0; 
stroke:#840084; stroke-width:78.7402; stroke-opacity:1; 
stroke-linecap:round; stroke-linejoin:round;">
<path d="M18497.8 7050.2 A39.3701 39.3701 0.0 0 0 18576.6 7050.2" />
<path d="M18576.6 7050.2 A39.3701 39.3701 0.0 0 0 18497.8 7050.2" />
</g>
<g style="fill:#840084; fill-opacity:0.0; 
stroke:#840084; stroke-width:100; stroke-opacity:1; 
stroke-linecap:round; stroke-linejoin:round;">
<g transform="rotate(-90 12041.2 7050.2)">
<text x="12041.2" y="7300.2"
transform="scale(-1 1) translate(-24082.302362 0)"
textLength="1708.94" font-size="666.667" lengthAdjust="spacingAndGlyphs"
text-anchor="middle" opacity="0">BAT1</text>
</g>
<path d="M12005 6443
L12029 6514
L12053 6538
L12100 6562
L12172 6562
L12219 6538
L12243 6514
L12267 6466
L12267 6276
L11767 6276
L11767 6443
L11791 6490
L11814 6514
L11862 6538
L11910 6538
L11957 6514
L11981 6490
L12005 6443
L12005 6276
" />
<path d="M12124 6752
L12124 6990
" />
<path d="M12267 6704
L11767 6871
L12267 7038
" />
<path d="M11767 7133
L11767 7419
" />
<path d="M12267 7276
L11767 7276
" />
<path d="M12267 7847
L12267 7562
" />
<path d="M12267 7704
L11767 7704
L11838 7657
L11886 7609
L11910 7562
" />
<g >
</g>
</g>
<g style="fill:#000000; fill-opacity:0.0; 
stroke:#000000; stroke-width:100; stroke-opacity:1; 
stroke-linecap:round; stroke-linejoin:round;">
</g>
<g style="fill:#C2C200; fill-opacity:0.0; 
stroke:#C2C200; stroke-width:100; stroke-opacity:1; 
stroke-linecap:round; stroke-linejoin:round;">
</g>
<g style="fill:#C2C200; fill-opacity:0.0; 
stroke:#C2C200; stroke-width:39.3701; stroke-opacity:1; 
stroke-linecap:round; stroke-linejoin:round;">
<path d="M38143 37247
L1135 37247
" />
<path d="M38143 239
L38143 37247
" />
<path d="M1135 239
L38143 239
" />
<path d="M1135 37247
L1135 239
" />
<g >
</g>
<g >
</g>
<g >
</g>
<g >
</g>
<g >
</g>
<g >
</g>
<g >
</g>
<g >
</g>
<g >
</g>
<g >
</g>
<g >
</g>
<g >
</g>
<g >
</g>
<g >
</g>
<g >
</g>
<g >
</g>
<g >
</g>
<g >
</g>
<g >
</g>
<g >
</g>
<g >
</g>
<g >
</g>
<g >
</g>
<g >
</g>
<g >
</g>
<g >
</g>
<g >
</g>
<g >
</g>
<g >
</g>
<g >
</g>
<g >
</g>
<g >
</g>
<g >
</g>
<g >
</g>
<g >
</g>
<g >
</g>
<g >
</g>
<g >
</g>
<g >
</g>
<g >
</g>
<g >
</g>
<g >
</g>
<g >
</g>
<g >
</g>
<g >
</g>
<g >
</g>
<g >
</g>
<g >
</g>
<g >
</g>
<g >
</g>
<g >
</g>
<g >
</g>
<g >
</g>
<g >
</g>
<g >
</g>
<g >
</g>
<g >
</g>
<g >
</g>
<g >
</g>
<g >
</g>
<g >
</g>
<g >
</g>
<g >
</g>
<g >
</g>
<g >
</g>
<g >
</g>
<g >
</g>
<g >
</g>
<g >
</g>
<g >
</g>
<g >
</g>
<g >
</g>
<g >
</g>
<g >
</g>
<g >
</g>
<g >
</g>
<g >
</g>
<g >
</g>
<g >
</g>
<g >
</g>
<g >
</g>
<g >
</g>
<g >
</g>
<g >
</g>
<g >
</g>
<g >
</g>
<g >
</g>
<g >
</g>
<g >
</g>
<g >
</g>
<g >
</g>
<g >
</g>
<g >
</g>
<g >
</g>
<g >
</g>
<g >
</g>
<g >
</g>
<g >
</g>
<g >
</g>
<g >
</g>
<g >
</g>
<g >
</g>
<g >
</g>
<g >
</g>
<g >
</g>
<g >
</g>
<g >
</g>
<g >
</g>
<g >
</g>
<g >
</g>
</g> 
</svg>
