M48
; DRILL file {KiCad (5.1.9)-1} date 03/02/21 10:58:24
; FORMAT={-:-/ absolute / inch / decimal}
; #@! TF.CreationDate,2021-03-02T10:58:24+01:00
; #@! TF.GenerationSoftware,Kicad,Pcbnew,(5.1.9)-1
; #@! TF.FileFunction,Plated,1,4,PTH
FMAT,2
INCH
T1C0.0079
T2C0.0157
T3C0.0394
T4C0.1260
%
G90
G05
T1
X0.1024Y0.3307
X0.2047Y0.6063
X0.2244Y0.874
X0.2283Y1.7677
X0.2283Y1.626
X0.252Y2.0787
X0.2559Y2.0026
X0.2559Y1.6654
X0.2559Y0.5551
X0.2598Y2.0394
X0.2677Y1.8976
X0.2677Y1.8622
X0.2677Y1.8386
X0.2677Y1.7992
X0.2677Y1.7663
X0.2697Y1.9331
X0.2717Y0.6142
X0.2756Y3.1299
X0.2756Y2.0551
X0.2756Y2.0197
X0.2756Y1.9685
X0.2756Y1.6811
X0.2756Y1.6457
X0.2756Y1.6181
X0.2756Y0.7953
X0.2795Y1.7323
X0.3268Y2.8071
X0.3425Y1.9685
X0.3425Y1.7323
X0.3504Y3.2717
X0.3504Y1.622
X0.3505Y1.6652
X0.3543Y2.0787
X0.3543Y2.0394
X0.3563Y1.9409
X0.3622Y3.0
X0.3622Y0.4291
X0.374Y3.1299
X0.3799Y2.2028
X0.4134Y1.8976
X0.4134Y1.8504
X0.4134Y1.7992
X0.4134Y1.7598
X0.4213Y1.9528
X0.4409Y3.0
X0.4449Y1.0866
X0.4488Y1.2874
X0.4528Y3.3425
X0.4528Y1.9528
X0.4528Y1.4961
X0.4567Y1.6378
X0.4646Y3.1299
X0.4646Y2.3976
X0.4843Y1.9488
X0.4882Y1.7598
X0.4882Y1.6063
X0.4882Y1.0039
X0.4921Y1.8976
X0.4921Y1.8504
X0.4921Y1.7992
X0.4941Y2.2028
X0.4961Y3.2677
X0.5039Y1.6811
X0.5157Y0.3701
X0.5177Y2.3799
X0.5236Y1.9488
X0.5276Y1.752
X0.5354Y2.4626
X0.5512Y1.9724
X0.5531Y1.4961
X0.5591Y1.752
X0.5689Y1.4528
X0.5709Y1.9961
X0.5709Y1.0669
X0.5748Y2.126
X0.5846Y2.3661
X0.5906Y2.0197
X0.5906Y1.752
X0.6024Y1.9409
X0.6024Y1.8976
X0.6024Y1.8504
X0.6024Y1.0354
X0.6063Y1.5669
X0.6063Y1.2992
X0.6142Y1.626
X0.6142Y1.5984
X0.6181Y0.5433
X0.622Y1.752
X0.626Y2.0512
X0.6299Y1.6535
X0.6457Y1.7992
X0.6496Y2.3386
X0.6535Y1.4882
X0.6535Y1.0039
X0.6535Y0.4055
X0.6555Y1.0965
X0.6654Y1.9528
X0.6654Y1.752
X0.6713Y1.4587
X0.6811Y2.1496
X0.685Y1.5394
X0.6988Y1.4291
X0.7008Y1.9528
X0.7008Y1.752
X0.7184Y1.5305
X0.7244Y1.8504
X0.7264Y2.4626
X0.7283Y1.7992
X0.7323Y1.8976
X0.7323Y1.752
X0.7402Y2.0551
X0.7441Y1.9449
X0.752Y2.4252
X0.752Y1.2953
X0.7539Y1.6535
X0.7539Y1.5709
X0.7618Y1.0945
X0.7618Y1.0059
X0.7972Y1.5354
X0.7972Y1.4272
X0.7992Y1.8504
X0.815Y1.7992
X0.815Y1.752
X0.8307Y2.0276
X0.8346Y2.1535
X0.8366Y2.4331
X0.8366Y2.3425
X0.8386Y0.6181
X0.8543Y1.0945
X0.8543Y1.0059
X0.8622Y1.8937
X0.8622Y0.3898
X0.8661Y2.0236
X0.872Y1.5394
X0.876Y1.4114
X0.8839Y1.3287
X0.8937Y1.0059
X0.8996Y2.2106
X0.9016Y1.2008
X0.9035Y1.9311
X0.9055Y1.0945
X0.9114Y1.4311
X0.9252Y1.8307
X0.9252Y1.2244
X0.9272Y1.7323
X0.9291Y1.6299
X0.937Y0.6181
X0.9409Y1.5394
X0.9528Y1.2402
X0.9587Y1.4193
X0.9803Y0.3898
X0.9941Y1.002
X0.9961Y1.0945
X1.0059Y1.7461
X1.0079Y1.5394
X1.0197Y1.2638
X1.0236Y1.5669
X1.0276Y2.1496
X1.0276Y1.8228
X1.0276Y1.6329
X1.0276Y1.2165
X1.0315Y2.0236
X1.0354Y1.002
X1.0374Y1.0945
X1.0512Y1.3622
X1.0551Y2.3465
X1.063Y1.1732
X1.063Y0.3898
X1.0728Y1.7657
X1.0748Y0.6181
X1.0787Y1.6713
X1.0787Y1.3268
X1.0787Y1.1457
X1.0827Y2.1457
X1.0906Y2.3031
X1.0924Y1.5282
X1.1063Y1.6378
X1.1063Y1.122
X1.1122Y2.435
X1.122Y1.3543
X1.1339Y1.7185
X1.1378Y2.063
X1.1378Y1.9843
X1.1378Y1.8976
X1.1378Y1.8465
X1.1378Y1.7835
X1.1378Y1.6535
X1.1378Y1.3898
X1.1496Y1.2205
X1.1614Y1.5276
X1.1654Y2.0984
X1.1693Y1.1024
X1.1732Y3.126
X1.1772Y0.3898
X1.1811Y0.9606
X1.1969Y2.3465
X1.1969Y2.0433
X1.1969Y1.9567
X1.2047Y1.0669
X1.2087Y1.4677
X1.2183Y2.7379
X1.2185Y2.498
X1.2195Y1.5669
X1.2323Y2.1024
X1.2323Y1.7677
X1.2323Y1.6398
X1.2323Y1.0354
X1.2402Y1.8701
X1.2402Y1.4528
X1.248Y1.689
X1.252Y1.5866
X1.252Y1.3819
X1.2559Y1.9213
X1.2618Y1.3268
X1.2638Y2.439
X1.2638Y1.0118
X1.2677Y1.8031
X1.2693Y1.4504
X1.2756Y2.5118
X1.2835Y1.4094
X1.2835Y1.2598
X1.2913Y1.3858
X1.2953Y1.689
X1.2972Y2.2638
X1.2992Y1.5787
X1.2992Y0.5827
X1.3031Y2.1024
X1.3031Y2.0236
X1.3031Y1.5394
X1.315Y1.7717
X1.315Y0.5236
X1.3268Y1.8583
X1.3268Y1.2559
X1.3272Y1.5083
X1.3307Y1.689
X1.3346Y1.9331
X1.3543Y1.7717
X1.3701Y1.6535
X1.374Y1.5394
X1.378Y1.9094
X1.378Y1.8583
X1.378Y1.622
X1.378Y0.5197
X1.378Y0.3898
X1.3819Y2.0118
X1.3996Y2.1024
X1.4035Y2.313
X1.4055Y1.7835
X1.4055Y1.748
X1.411Y1.5378
X1.4331Y2.0039
X1.4419Y1.7135
X1.4508Y1.3327
X1.4508Y1.2136
X1.4528Y0.5748
X1.4606Y0.5197
X1.4646Y2.3528
X1.4646Y0.3898
X1.4685Y1.7347
X1.4685Y1.563
X1.4724Y2.2913
X1.4809Y1.6667
X1.481Y1.6925
X1.4823Y2.4311
X1.4843Y1.8839
X1.4843Y0.6063
X1.4862Y1.8498
X1.4961Y2.1457
X1.5Y2.1102
X1.5Y1.3386
X1.502Y2.2362
X1.503Y1.4449
X1.5059Y2.3445
X1.5197Y1.5394
X1.5394Y1.1063
X1.5394Y1.0197
X1.5469Y1.3421
X1.5551Y2.0748
X1.5709Y2.7146
X1.5748Y2.185
X1.5748Y2.1181
X1.5748Y1.5344
X1.5748Y1.1063
X1.578Y1.3613
X1.5787Y1.264
X1.5787Y2.3031
X1.5882Y1.7933
X1.5906Y2.4429
X1.5949Y1.344
X1.6102Y0.937
X1.6142Y1.811
X1.6161Y2.3484
X1.6181Y3.4213
X1.6181Y2.1772
X1.6181Y1.3819
X1.6181Y0.3504
X1.6181Y0.2795
X1.6181Y0.2126
X1.622Y3.3504
X1.626Y3.4724
X1.626Y1.4409
X1.6339Y2.0709
X1.6339Y2.0315
X1.6457Y3.4252
X1.6457Y2.4016
X1.6457Y2.1772
X1.6457Y0.2756
X1.6496Y1.2126
X1.6514Y1.2639
X1.6535Y1.3976
X1.6614Y3.4449
X1.6614Y1.4409
X1.6635Y0.3471
X1.6652Y3.3503
X1.6654Y0.2638
X1.6738Y1.4724
X1.6811Y3.4291
X1.6811Y2.3873
X1.685Y0.2756
X1.6929Y1.3819
X1.6934Y2.284
X1.7029Y0.3471
X1.7047Y2.063
X1.7047Y0.622
X1.7067Y2.7146
X1.7087Y1.0157
X1.7126Y2.0236
X1.7126Y1.2623
X1.715Y2.3425
X1.715Y2.311
X1.7165Y3.1713
X1.7244Y2.4803
X1.7283Y2.3976
X1.7323Y3.4252
X1.7323Y3.3583
X1.7323Y2.2835
X1.7323Y2.2244
X1.7323Y2.1811
X1.7323Y0.3465
X1.7323Y0.2795
X1.7415Y0.8487
X1.748Y1.2559
X1.748Y0.7992
X1.7559Y0.878
X1.7559Y0.4449
X1.7598Y3.3425
X1.7617Y0.3471
X1.7663Y3.4291
X1.7663Y0.2677
X1.7717Y3.4724
X1.7717Y2.2677
X1.7736Y3.1713
X1.7736Y2.7146
X1.7756Y1.3307
X1.7756Y0.9016
X1.7835Y0.2126
X1.7874Y1.3661
X1.7913Y2.1575
X1.7913Y1.4724
X1.7913Y1.4016
X1.7953Y1.4331
X1.7992Y0.4528
X1.7992Y0.2717
X1.7994Y0.3505
X1.8031Y3.4252
X1.8031Y3.3425
X1.8031Y0.9449
X1.8071Y1.2559
X1.8091Y3.1713
X1.8091Y2.7126
X1.8091Y2.2382
X1.811Y1.33
X1.8307Y1.8346
X1.8386Y3.4291
X1.8386Y0.5906
X1.8425Y3.3386
X1.8453Y1.328
X1.8504Y1.2559
X1.8504Y0.4449
X1.8504Y0.3504
X1.8504Y0.2795
X1.8622Y3.4291
X1.8622Y2.311
X1.8622Y0.8661
X1.8622Y0.752
X1.8646Y3.3386
X1.8661Y2.4803
X1.8661Y2.2126
X1.8661Y1.7874
X1.8701Y2.7165
X1.8708Y2.3326
X1.878Y1.2559
X1.8791Y1.3272
X1.8858Y1.2244
X1.8898Y1.1102
X1.8937Y3.1732
X1.8937Y2.3465
X1.8976Y3.4291
X1.8976Y2.1614
X1.8978Y0.3505
X1.8991Y3.3346
X1.9016Y0.4606
X1.9016Y0.2756
X1.9094Y1.2559
X1.9134Y1.7087
X1.9173Y1.0512
X1.9291Y1.3465
X1.9291Y0.2323
X1.934Y0.2676
X1.9344Y3.4291
X1.937Y1.311
X1.9372Y0.3505
X1.9409Y3.3386
X1.9409Y1.0669
X1.9449Y2.1914
X1.9449Y2.156
X1.9449Y0.4449
X1.9488Y2.2402
X1.9488Y1.2795
X1.9488Y1.2323
X1.9567Y2.0512
X1.9567Y1.9528
X1.9606Y1.8858
X1.9626Y2.3425
X1.9646Y1.0984
X1.9685Y3.4213
X1.9685Y3.3543
X1.9685Y2.7165
X1.9685Y2.1496
X1.9685Y1.7795
X1.9685Y0.3465
X1.9685Y0.2795
X1.9843Y1.1142
X1.9882Y2.252
X1.9882Y2.1638
X1.9999Y3.3503
X1.9999Y0.3505
X2.0026Y3.4567
X2.0039Y1.6535
X2.0087Y2.1795
X2.0103Y2.1535
X2.0157Y0.2756
X2.0197Y3.4252
X2.0197Y2.7677
X2.0197Y0.8346
X2.0197Y0.8071
X2.0197Y0.7795
X2.0236Y0.874
X2.0236Y0.6496
X2.0295Y2.5551
X2.0354Y2.3996
X2.0354Y2.2677
X2.0354Y2.2283
X2.0354Y0.2598
X2.0356Y0.3505
X2.0394Y3.4331
X2.0394Y3.3465
X2.0433Y1.748
X2.0433Y1.7205
X2.0433Y1.689
X2.0433Y1.6575
X2.0467Y2.4882
X2.0472Y0.7559
X2.0551Y2.0551
X2.0551Y0.2756
X2.0591Y3.4252
X2.063Y2.2008
X2.0645Y1.2913
X2.0669Y1.3465
X2.0669Y1.1496
X2.0709Y2.1772
X2.0709Y1.1811
X2.0749Y0.3505
X2.0787Y3.4528
X2.0787Y3.3504
X2.0787Y0.5236
X2.0827Y2.2283
X2.0827Y0.2323
X2.0866Y0.2795
X2.0945Y2.0276
X2.0945Y1.315
X2.0984Y1.2087
X2.1043Y2.7146
X2.1102Y0.7874
X2.1102Y0.5866
X2.1142Y2.1378
X2.126Y2.2441
X2.126Y2.1969
X2.126Y1.2992
X2.1339Y1.2126
X2.1339Y0.8386
X2.1417Y1.374
X2.1496Y1.4843
X2.1496Y1.4567
X2.1496Y0.8622
X2.1516Y2.4016
X2.1654Y0.8819
X2.1673Y2.4764
X2.1693Y2.5531
X2.1693Y2.1339
X2.1732Y2.2717
X2.1811Y0.9016
X2.185Y1.0315
X2.189Y1.3189
X2.1969Y2.0906
X2.1969Y0.6063
X2.2008Y2.0281
X2.2126Y3.0807
X2.2157Y2.0622
X2.2205Y0.937
X2.2362Y0.9764
X2.2402Y2.3563
X2.2402Y1.3189
X2.2441Y2.4961
X2.2461Y1.4409
X2.248Y1.0945
X2.2539Y2.9941
X2.2559Y1.5197
X2.2598Y0.8189
X2.2638Y2.6142
X2.2677Y2.0925
X2.2677Y1.3465
X2.2717Y1.378
X2.2741Y1.4094
X2.2756Y2.4291
X2.2835Y0.9685
X2.2913Y2.2559
X2.2913Y1.0039
X2.2913Y0.937
X2.2953Y2.4488
X2.311Y1.5709
X2.32Y1.06
X2.3209Y2.0748
X2.3228Y2.1693
X2.3307Y1.0276
X2.3366Y2.565
X2.3386Y2.2598
X2.3543Y2.4902
X2.3598Y1.8882
X2.3622Y2.626
X2.374Y1.8504
X2.374Y0.5118
X2.38Y1.23
X2.3858Y2.5472
X2.3858Y2.3937
X2.3983Y1.7368
X2.4094Y2.3543
X2.4094Y0.6063
X2.4228Y1.3465
X2.4232Y2.4547
X2.435Y2.1732
X2.44Y1.18
X2.4449Y1.9961
X2.4449Y1.3661
X2.448Y1.9004
X2.45Y1.3
X2.4528Y1.8622
X2.4567Y0.5118
X2.4606Y1.8307
X2.4606Y1.2087
X2.4621Y1.3976
X2.4646Y1.7402
X2.4803Y1.3346
X2.4823Y2.0315
X2.49Y1.55
X2.4921Y1.6929
X2.4921Y1.6654
X2.4921Y1.6339
X2.4921Y1.6024
X2.4961Y1.5118
X2.5079Y2.0709
X2.51Y1.14
X2.51Y1.06
X2.51Y1.0
X2.5118Y2.4921
X2.5138Y2.5591
X2.5138Y1.3819
X2.5157Y2.6319
X2.5394Y0.5197
X2.55Y1.29
X2.5551Y1.5591
X2.5571Y1.9882
X2.5669Y1.6102
X2.5669Y0.8346
X2.5768Y0.9327
X2.5827Y2.0807
X2.5945Y1.5827
X2.6024Y1.4626
X2.6063Y1.9882
X2.6299Y1.5315
X2.6358Y0.9327
X2.6378Y1.5591
X2.64Y1.19
X2.6535Y2.563
X2.6555Y1.3957
X2.6614Y0.8346
X2.6713Y2.4902
X2.6713Y2.4055
X2.6713Y2.3406
X2.6815Y1.65
X2.685Y1.4331
X2.7008Y1.5669
X2.7047Y2.5512
X2.7067Y2.0787
X2.7067Y1.9882
X2.7087Y1.4646
X2.7203Y1.18
X2.7291Y2.3811
X2.7323Y0.6063
X2.7362Y2.0295
X2.7362Y1.4921
X2.7382Y1.6102
X2.7461Y2.2185
X2.75Y1.7283
X2.752Y1.8465
X2.7677Y1.6929
X2.7756Y2.0079
X2.7874Y2.3543
X2.7953Y1.7165
X2.7992Y2.0354
X2.8071Y0.5276
X2.811Y2.4724
X2.815Y1.185
X2.8189Y2.6358
X2.8189Y2.0669
X2.8189Y1.5669
X2.8228Y1.7165
X2.8307Y2.2264
X2.8425Y2.4252
X2.8543Y2.4606
X2.8583Y2.0531
X2.8622Y2.5709
X2.8622Y1.689
X2.8622Y1.6004
X2.8681Y1.9587
X2.87Y1.65
X2.874Y1.8465
X2.8976Y2.4035
X2.9055Y0.5315
X2.9291Y3.248
X2.9449Y2.5118
X2.9488Y2.378
X2.9528Y2.1476
X2.9567Y3.1575
X2.9567Y2.3386
X2.9626Y2.7028
X2.9646Y3.3346
X2.9646Y2.5512
X2.9646Y0.6102
X2.9685Y2.5827
X2.9685Y2.4606
X2.9724Y1.1811
X2.9961Y0.5433
X3.015Y2.5273
X3.0157Y2.4606
X3.0236Y2.6654
X3.0256Y1.8406
X3.0276Y2.4961
X3.0276Y2.378
X3.0295Y1.9409
X3.0354Y3.1732
X3.0374Y2.3406
X3.052Y2.462
X3.0531Y3.2106
X3.0551Y3.1358
X3.0591Y2.437
X3.061Y3.0846
X3.063Y2.1417
X3.0831Y2.5457
X3.0866Y3.2717
X3.0886Y2.8268
X3.0906Y3.0413
X3.0906Y2.939
X3.0945Y1.9075
X3.1024Y2.5906
X3.1102Y0.5669
X3.122Y3.2441
X3.122Y3.0787
X3.1299Y1.1811
X3.1535Y3.0433
X3.1555Y2.939
X3.1555Y2.7992
X3.1614Y3.2717
X3.1614Y3.1614
X3.1673Y2.0748
X3.1713Y2.1339
X3.1831Y3.0827
X3.1929Y1.7402
X3.2146Y2.0394
X3.2165Y2.378
X3.2165Y2.2441
X3.2244Y2.3012
X3.248Y3.126
X3.2559Y3.3346
X3.2756Y1.9055
X3.2756Y1.7441
X3.2795Y1.8622
X3.2795Y1.8307
X3.2835Y2.2795
X3.2854Y2.5591
X3.2874Y1.1811
X3.2913Y3.2165
X3.3031Y1.7874
X3.311Y3.1063
X3.3169Y2.2185
X3.3268Y1.9134
X3.3268Y1.8622
X3.3268Y1.8307
X3.3425Y3.2559
X3.3425Y1.9409
X3.3425Y1.7598
X3.3465Y2.0
X3.3503Y2.0392
X3.3503Y1.7009
X3.3503Y1.6652
X3.3504Y2.0787
X3.3504Y1.622
X3.3543Y2.1791
X3.3543Y1.7323
X3.3583Y3.1063
X3.3583Y1.9685
X3.3661Y0.5276
X3.378Y0.4331
X3.4173Y1.8504
X3.4179Y1.8013
X3.4213Y2.0827
X3.4213Y1.7323
X3.4252Y2.0551
X3.4252Y2.0197
X3.4252Y1.9685
X3.427Y1.9297
X3.4291Y1.8937
X3.4291Y1.6811
X3.4291Y1.6457
X3.4291Y1.6181
X3.4331Y1.7678
X3.4488Y2.0354
X3.4528Y1.6654
X3.4567Y2.2894
X3.4606Y2.4724
X3.4606Y2.3996
X3.4626Y2.5689
X3.4685Y1.9291
X3.4685Y1.7677
X3.4685Y0.6299
X3.4724Y1.626
X3.4724Y1.1732
X3.4803Y2.0748
X3.4843Y0.874
X3.4882Y2.2559
X3.5039Y2.5689
X3.5039Y2.4724
X3.5039Y2.3996
T2
X0.7424Y3.2769
X0.7488Y3.326
X0.9252Y3.3661
X0.9843Y3.3661
X1.0433Y3.0709
X1.063Y3.1102
X1.1654Y1.4921
X1.4632Y1.9632
X1.5315Y2.4409
X1.6122Y1.9685
X1.6122Y1.8898
X1.6122Y1.7323
X1.6122Y1.6535
X1.6122Y1.5748
X1.6535Y2.9331
X1.6909Y1.9685
X1.6909Y1.8898
X1.6909Y1.811
X1.6909Y1.7323
X1.6909Y1.6535
X1.6909Y1.5748
X1.7697Y2.0472
X1.7697Y1.9685
X1.7697Y1.8898
X1.7697Y1.811
X1.7697Y1.7323
X1.7697Y1.6535
X1.7697Y1.5748
X1.8484Y2.0472
X1.8484Y1.9685
X1.8484Y1.8898
X1.8484Y1.7323
X1.8484Y1.6535
X1.8484Y1.5748
X1.9272Y1.6535
X1.9272Y1.5748
X2.0059Y2.0472
X2.0059Y1.8898
X2.0059Y1.811
X2.0059Y1.5748
X2.0846Y1.9685
X2.0846Y1.8898
X2.0846Y1.811
X2.0846Y1.5748
X2.1575Y2.0787
X2.1909Y1.5305
X2.3661Y3.3354
X2.8345Y1.0762
X3.4646Y3.0197
X3.4764Y2.811
X3.6024Y3.1929
T3
X0.315Y0.6724
X0.315Y0.4724
X0.415Y0.6724
X0.415Y0.4724
X0.515Y0.6724
X0.515Y0.4724
X0.5205Y2.2598
X0.615Y0.6724
X0.615Y0.4724
X0.6205Y2.2598
X0.715Y0.6724
X0.7205Y2.2598
X0.815Y0.6724
X0.815Y0.4724
X0.8205Y2.2598
X0.915Y0.4724
X0.9205Y2.2598
X1.015Y0.4724
X1.0205Y2.2598
X1.115Y0.4724
X1.1205Y2.2598
X1.2008Y1.1673
X1.215Y0.4724
X1.2205Y2.2598
X1.3008Y1.1673
X1.315Y0.4724
X1.3898Y2.5354
X1.4008Y1.1673
X1.415Y0.4724
X1.4898Y2.5354
X1.5008Y1.1673
X1.515Y0.4724
X1.5898Y2.5354
X1.6008Y1.1673
X1.7008Y1.1673
X1.8008Y1.1673
X1.9008Y1.1673
X1.937Y3.1024
X1.937Y3.0024
X1.937Y2.9024
X1.937Y2.8024
X1.937Y2.5906
X1.937Y2.4906
X1.937Y2.3906
X1.937Y2.2906
X2.315Y0.8724
X2.315Y0.7724
X2.315Y0.6724
X2.315Y0.4724
X2.415Y0.8724
X2.415Y0.7724
X2.415Y0.6724
X2.415Y0.4724
X2.515Y0.8724
X2.515Y0.7724
X2.515Y0.6724
X2.515Y0.4724
X2.615Y0.8724
X2.615Y0.7724
X2.615Y0.6724
X2.615Y0.4724
X2.715Y0.7724
X2.715Y0.6724
X2.815Y0.7724
X2.815Y0.6724
X2.815Y0.4724
X2.915Y0.9724
X2.915Y0.8724
X2.915Y0.7724
X2.915Y0.6724
X2.915Y0.4724
X3.015Y0.9724
X3.015Y0.8724
X3.015Y0.7724
X3.015Y0.6724
X3.015Y0.4724
X3.115Y0.9724
X3.115Y0.8724
X3.115Y0.7724
X3.115Y0.6724
X3.115Y0.4724
X3.215Y0.9724
X3.215Y0.8724
X3.215Y0.7724
X3.215Y0.6724
X3.315Y0.9724
X3.315Y0.8724
X3.315Y0.7724
X3.315Y0.6724
X3.315Y0.4724
X3.3976Y2.5315
X3.3976Y2.4315
X3.3976Y2.3315
X3.415Y0.9724
X3.415Y0.8724
X3.415Y0.7724
X3.415Y0.6724
T4
X0.1575Y3.5433
X0.1575Y0.1575
X3.5433Y3.5433
X3.5433Y0.1575
T0
M30
