%TF.GenerationSoftware,KiCad,Pcbnew,(5.1.9)-1*%
%TF.CreationDate,2021-03-02T10:58:18+01:00*%
%TF.ProjectId,Midular v2 Proto STM32F407VET6,4d696475-6c61-4722-9076-322050726f74,rev?*%
%TF.SameCoordinates,Original*%
%TF.FileFunction,Legend,Top*%
%TF.FilePolarity,Positive*%
%FSLAX46Y46*%
G04 Gerber Fmt 4.6, Leading zero omitted, Abs format (unit mm)*
G04 Created by KiCad (PCBNEW (5.1.9)-1) date 2021-03-02 10:58:18*
%MOMM*%
%LPD*%
G01*
G04 APERTURE LIST*
%ADD10C,0.150000*%
%ADD11C,0.200000*%
%ADD12C,0.140000*%
%ADD13C,0.160000*%
%ADD14C,0.250000*%
%ADD15C,0.300000*%
%ADD16C,0.120000*%
%ADD17C,0.100000*%
%ADD18C,0.254000*%
G04 APERTURE END LIST*
D10*
X57833333Y6150000D02*
X58366666Y6150000D01*
X83233333Y29750000D02*
X83766666Y29750000D01*
X79233333Y29750000D02*
X79766666Y29750000D01*
X75233333Y29750000D02*
X75766666Y29750000D01*
X71233333Y29850000D02*
X71766666Y29850000D01*
X56033333Y76850000D02*
X56566666Y76850000D01*
X55933333Y81950000D02*
X56466666Y81950000D01*
X67433333Y82050000D02*
X67966666Y82050000D01*
X67700000Y81783333D02*
X67700000Y82316666D01*
X64533333Y77050000D02*
X65066666Y77050000D01*
X64800000Y76783333D02*
X64800000Y77316666D01*
X10833333Y79250000D02*
X11366666Y79250000D01*
X11100000Y78983333D02*
X11100000Y79516666D01*
X7733333Y79250000D02*
X8266666Y79250000D01*
X8000000Y78983333D02*
X8000000Y79516666D01*
X65933333Y6350000D02*
X66466666Y6350000D01*
X66200000Y6083333D02*
X66200000Y6616666D01*
X83233333Y34250000D02*
X83766666Y34250000D01*
X83500000Y33983333D02*
X83500000Y34516666D01*
X79333333Y34250000D02*
X79866666Y34250000D01*
X79600000Y33983333D02*
X79600000Y34516666D01*
X75233333Y34250000D02*
X75766666Y34250000D01*
X75500000Y33983333D02*
X75500000Y34516666D01*
X71233333Y34150000D02*
X71766666Y34150000D01*
X71500000Y33883333D02*
X71500000Y34416666D01*
X76723607Y68400000D02*
G75*
G03*
X76723607Y68400000I-223607J0D01*
G01*
X68723607Y68300000D02*
G75*
G03*
X68723607Y68300000I-223607J0D01*
G01*
X60423607Y68400000D02*
G75*
G03*
X60423607Y68400000I-223607J0D01*
G01*
X52200001Y68100000D02*
G75*
G03*
X52200001Y68100000I-223607J0D01*
G01*
X29623607Y47123606D02*
G75*
G03*
X29623607Y47123606I-223607J0D01*
G01*
X26347213Y86400000D02*
G75*
G03*
X26347213Y86400000I-223607J0D01*
G01*
X53123607Y91700000D02*
G75*
G03*
X53123607Y91700000I-223607J0D01*
G01*
X47223607Y66900000D02*
G75*
G03*
X47223607Y66900000I-223607J0D01*
G01*
X47223607Y80000000D02*
G75*
G03*
X47223607Y80000000I-223607J0D01*
G01*
D11*
X50728571Y84347619D02*
X50728571Y83538095D01*
X50776190Y83442857D01*
X50823809Y83395238D01*
X50919047Y83347619D01*
X51109523Y83347619D01*
X51204761Y83395238D01*
X51252380Y83442857D01*
X51300000Y83538095D01*
X51300000Y84347619D01*
X51728571Y83633333D02*
X52204761Y83633333D01*
X51633333Y83347619D02*
X51966666Y84347619D01*
X52300000Y83347619D01*
X53204761Y83347619D02*
X52871428Y83823809D01*
X52633333Y83347619D02*
X52633333Y84347619D01*
X53014285Y84347619D01*
X53109523Y84300000D01*
X53157142Y84252380D01*
X53204761Y84157142D01*
X53204761Y84014285D01*
X53157142Y83919047D01*
X53109523Y83871428D01*
X53014285Y83823809D01*
X52633333Y83823809D01*
X53490476Y84347619D02*
X54061904Y84347619D01*
X53776190Y83347619D02*
X53776190Y84347619D01*
X54919047Y83347619D02*
X54347619Y83347619D01*
X54633333Y83347619D02*
X54633333Y84347619D01*
X54538095Y84204761D01*
X54442857Y84109523D01*
X54347619Y84061904D01*
X83452380Y40228571D02*
X84261904Y40228571D01*
X84357142Y40276190D01*
X84404761Y40323809D01*
X84452380Y40419047D01*
X84452380Y40609523D01*
X84404761Y40704761D01*
X84357142Y40752380D01*
X84261904Y40800000D01*
X83452380Y40800000D01*
X84166666Y41228571D02*
X84166666Y41704761D01*
X84452380Y41133333D02*
X83452380Y41466666D01*
X84452380Y41800000D01*
X84452380Y42704761D02*
X83976190Y42371428D01*
X84452380Y42133333D02*
X83452380Y42133333D01*
X83452380Y42514285D01*
X83500000Y42609523D01*
X83547619Y42657142D01*
X83642857Y42704761D01*
X83785714Y42704761D01*
X83880952Y42657142D01*
X83928571Y42609523D01*
X83976190Y42514285D01*
X83976190Y42133333D01*
X83452380Y42990476D02*
X83452380Y43561904D01*
X84452380Y43276190D02*
X83452380Y43276190D01*
X83452380Y43800000D02*
X83452380Y44419047D01*
X83833333Y44085714D01*
X83833333Y44228571D01*
X83880952Y44323809D01*
X83928571Y44371428D01*
X84023809Y44419047D01*
X84261904Y44419047D01*
X84357142Y44371428D01*
X84404761Y44323809D01*
X84452380Y44228571D01*
X84452380Y43942857D01*
X84404761Y43847619D01*
X84357142Y43800000D01*
D10*
X91523607Y41176394D02*
G75*
G03*
X91523607Y41176394I-223607J0D01*
G01*
X70123607Y13800000D02*
G75*
G03*
X70123607Y13800000I-223607J0D01*
G01*
X57523607Y23900000D02*
G75*
G03*
X57523607Y23900000I-223607J0D01*
G01*
X57523607Y14000000D02*
G75*
G03*
X57523607Y14000000I-223607J0D01*
G01*
D11*
X40528571Y10647619D02*
X40528571Y9838095D01*
X40576190Y9742857D01*
X40623809Y9695238D01*
X40719047Y9647619D01*
X40909523Y9647619D01*
X41004761Y9695238D01*
X41052380Y9742857D01*
X41100000Y9838095D01*
X41100000Y10647619D01*
X41528571Y9933333D02*
X42004761Y9933333D01*
X41433333Y9647619D02*
X41766666Y10647619D01*
X42100000Y9647619D01*
X43004761Y9647619D02*
X42671428Y10123809D01*
X42433333Y9647619D02*
X42433333Y10647619D01*
X42814285Y10647619D01*
X42909523Y10600000D01*
X42957142Y10552380D01*
X43004761Y10457142D01*
X43004761Y10314285D01*
X42957142Y10219047D01*
X42909523Y10171428D01*
X42814285Y10123809D01*
X42433333Y10123809D01*
X43290476Y10647619D02*
X43861904Y10647619D01*
X43576190Y9647619D02*
X43576190Y10647619D01*
X44623809Y10314285D02*
X44623809Y9647619D01*
X44385714Y10695238D02*
X44147619Y9980952D01*
X44766666Y9980952D01*
D10*
X41100001Y2500000D02*
G75*
G03*
X41100001Y2500000I-223607J0D01*
G01*
X19623607Y13900000D02*
G75*
G03*
X19623607Y13900000I-223607J0D01*
G01*
X17723607Y9700000D02*
G75*
G03*
X17723607Y9700000I-223607J0D01*
G01*
X7123607Y19323606D02*
G75*
G03*
X7123607Y19323606I-223607J0D01*
G01*
D11*
X70757142Y83847619D02*
X70757142Y83038095D01*
X70804761Y82942857D01*
X70852380Y82895238D01*
X70947619Y82847619D01*
X71138095Y82847619D01*
X71233333Y82895238D01*
X71280952Y82942857D01*
X71328571Y83038095D01*
X71328571Y83847619D01*
X71757142Y82895238D02*
X71900000Y82847619D01*
X72138095Y82847619D01*
X72233333Y82895238D01*
X72280952Y82942857D01*
X72328571Y83038095D01*
X72328571Y83133333D01*
X72280952Y83228571D01*
X72233333Y83276190D01*
X72138095Y83323809D01*
X71947619Y83371428D01*
X71852380Y83419047D01*
X71804761Y83466666D01*
X71757142Y83561904D01*
X71757142Y83657142D01*
X71804761Y83752380D01*
X71852380Y83800000D01*
X71947619Y83847619D01*
X72185714Y83847619D01*
X72328571Y83800000D01*
X73090476Y83371428D02*
X73233333Y83323809D01*
X73280952Y83276190D01*
X73328571Y83180952D01*
X73328571Y83038095D01*
X73280952Y82942857D01*
X73233333Y82895238D01*
X73138095Y82847619D01*
X72757142Y82847619D01*
X72757142Y83847619D01*
X73090476Y83847619D01*
X73185714Y83800000D01*
X73233333Y83752380D01*
X73280952Y83657142D01*
X73280952Y83561904D01*
X73233333Y83466666D01*
X73185714Y83419047D01*
X73090476Y83371428D01*
X72757142Y83371428D01*
X75090476Y82942857D02*
X75042857Y82895238D01*
X74900000Y82847619D01*
X74804761Y82847619D01*
X74661904Y82895238D01*
X74566666Y82990476D01*
X74519047Y83085714D01*
X74471428Y83276190D01*
X74471428Y83419047D01*
X74519047Y83609523D01*
X74566666Y83704761D01*
X74661904Y83800000D01*
X74804761Y83847619D01*
X74900000Y83847619D01*
X75042857Y83800000D01*
X75090476Y83752380D01*
D10*
X12100000Y54583333D02*
X12100000Y55283333D01*
X12333333Y54783333D01*
X12566666Y55283333D01*
X12566666Y54583333D01*
X13033333Y55283333D02*
X13166666Y55283333D01*
X13233333Y55250000D01*
X13300000Y55183333D01*
X13333333Y55050000D01*
X13333333Y54816666D01*
X13300000Y54683333D01*
X13233333Y54616666D01*
X13166666Y54583333D01*
X13033333Y54583333D01*
X12966666Y54616666D01*
X12900000Y54683333D01*
X12866666Y54816666D01*
X12866666Y55050000D01*
X12900000Y55183333D01*
X12966666Y55250000D01*
X13033333Y55283333D01*
X13600000Y54616666D02*
X13700000Y54583333D01*
X13866666Y54583333D01*
X13933333Y54616666D01*
X13966666Y54650000D01*
X14000000Y54716666D01*
X14000000Y54783333D01*
X13966666Y54850000D01*
X13933333Y54883333D01*
X13866666Y54916666D01*
X13733333Y54950000D01*
X13666666Y54983333D01*
X13633333Y55016666D01*
X13600000Y55083333D01*
X13600000Y55150000D01*
X13633333Y55216666D01*
X13666666Y55250000D01*
X13733333Y55283333D01*
X13900000Y55283333D01*
X14000000Y55250000D01*
X14300000Y54583333D02*
X14300000Y55283333D01*
X15683333Y54650000D02*
X15650000Y54616666D01*
X15550000Y54583333D01*
X15483333Y54583333D01*
X15383333Y54616666D01*
X15316666Y54683333D01*
X15283333Y54750000D01*
X15250000Y54883333D01*
X15250000Y54983333D01*
X15283333Y55116666D01*
X15316666Y55183333D01*
X15383333Y55250000D01*
X15483333Y55283333D01*
X15550000Y55283333D01*
X15650000Y55250000D01*
X15683333Y55216666D01*
X15950000Y54616666D02*
X16050000Y54583333D01*
X16216666Y54583333D01*
X16283333Y54616666D01*
X16316666Y54650000D01*
X16350000Y54716666D01*
X16350000Y54783333D01*
X16316666Y54850000D01*
X16283333Y54883333D01*
X16216666Y54916666D01*
X16083333Y54950000D01*
X16016666Y54983333D01*
X15983333Y55016666D01*
X15950000Y55083333D01*
X15950000Y55150000D01*
X15983333Y55216666D01*
X16016666Y55250000D01*
X16083333Y55283333D01*
X16250000Y55283333D01*
X16350000Y55250000D01*
X17766666Y54583333D02*
X17766666Y55283333D01*
X17933333Y55283333D01*
X18033333Y55250000D01*
X18100000Y55183333D01*
X18133333Y55116666D01*
X18166666Y54983333D01*
X18166666Y54883333D01*
X18133333Y54750000D01*
X18100000Y54683333D01*
X18033333Y54616666D01*
X17933333Y54583333D01*
X17766666Y54583333D01*
X18866666Y54650000D02*
X18833333Y54616666D01*
X18733333Y54583333D01*
X18666666Y54583333D01*
X18566666Y54616666D01*
X18500000Y54683333D01*
X18466666Y54750000D01*
X18433333Y54883333D01*
X18433333Y54983333D01*
X18466666Y55116666D01*
X18500000Y55183333D01*
X18566666Y55250000D01*
X18666666Y55283333D01*
X18733333Y55283333D01*
X18833333Y55250000D01*
X18866666Y55216666D01*
X20266666Y54583333D02*
X20033333Y54916666D01*
X19866666Y54583333D02*
X19866666Y55283333D01*
X20133333Y55283333D01*
X20200000Y55250000D01*
X20233333Y55216666D01*
X20266666Y55150000D01*
X20266666Y55050000D01*
X20233333Y54983333D01*
X20200000Y54950000D01*
X20133333Y54916666D01*
X19866666Y54916666D01*
X20566666Y54950000D02*
X20800000Y54950000D01*
X20900000Y54583333D02*
X20566666Y54583333D01*
X20566666Y55283333D01*
X20900000Y55283333D01*
X21166666Y54616666D02*
X21266666Y54583333D01*
X21433333Y54583333D01*
X21500000Y54616666D01*
X21533333Y54650000D01*
X21566666Y54716666D01*
X21566666Y54783333D01*
X21533333Y54850000D01*
X21500000Y54883333D01*
X21433333Y54916666D01*
X21300000Y54950000D01*
X21233333Y54983333D01*
X21200000Y55016666D01*
X21166666Y55083333D01*
X21166666Y55150000D01*
X21200000Y55216666D01*
X21233333Y55250000D01*
X21300000Y55283333D01*
X21466666Y55283333D01*
X21566666Y55250000D01*
X22400000Y54583333D02*
X22400000Y55283333D01*
X22633333Y54783333D01*
X22866666Y55283333D01*
X22866666Y54583333D01*
X23200000Y54583333D02*
X23200000Y55283333D01*
X23500000Y54616666D02*
X23600000Y54583333D01*
X23766666Y54583333D01*
X23833333Y54616666D01*
X23866666Y54650000D01*
X23900000Y54716666D01*
X23900000Y54783333D01*
X23866666Y54850000D01*
X23833333Y54883333D01*
X23766666Y54916666D01*
X23633333Y54950000D01*
X23566666Y54983333D01*
X23533333Y55016666D01*
X23500000Y55083333D01*
X23500000Y55150000D01*
X23533333Y55216666D01*
X23566666Y55250000D01*
X23633333Y55283333D01*
X23800000Y55283333D01*
X23900000Y55250000D01*
X24333333Y55283333D02*
X24466666Y55283333D01*
X24533333Y55250000D01*
X24600000Y55183333D01*
X24633333Y55050000D01*
X24633333Y54816666D01*
X24600000Y54683333D01*
X24533333Y54616666D01*
X24466666Y54583333D01*
X24333333Y54583333D01*
X24266666Y54616666D01*
X24200000Y54683333D01*
X24166666Y54816666D01*
X24166666Y55050000D01*
X24200000Y55183333D01*
X24266666Y55250000D01*
X24333333Y55283333D01*
X25100000Y54616666D02*
X25200000Y54583333D01*
X25366666Y54583333D01*
X25433333Y54616666D01*
X25466666Y54650000D01*
X25500000Y54716666D01*
X25500000Y54783333D01*
X25466666Y54850000D01*
X25433333Y54883333D01*
X25366666Y54916666D01*
X25233333Y54950000D01*
X25166666Y54983333D01*
X25133333Y55016666D01*
X25100000Y55083333D01*
X25100000Y55150000D01*
X25133333Y55216666D01*
X25166666Y55250000D01*
X25233333Y55283333D01*
X25400000Y55283333D01*
X25500000Y55250000D01*
X26200000Y54650000D02*
X26166666Y54616666D01*
X26066666Y54583333D01*
X26000000Y54583333D01*
X25900000Y54616666D01*
X25833333Y54683333D01*
X25800000Y54750000D01*
X25766666Y54883333D01*
X25766666Y54983333D01*
X25800000Y55116666D01*
X25833333Y55183333D01*
X25900000Y55250000D01*
X26000000Y55283333D01*
X26066666Y55283333D01*
X26166666Y55250000D01*
X26200000Y55216666D01*
X26500000Y54583333D02*
X26500000Y55283333D01*
X26900000Y54583333D02*
X26600000Y54983333D01*
X26900000Y55283333D02*
X26500000Y54883333D01*
X27733333Y55283333D02*
X28166666Y55283333D01*
X27933333Y55016666D01*
X28033333Y55016666D01*
X28100000Y54983333D01*
X28133333Y54950000D01*
X28166666Y54883333D01*
X28166666Y54716666D01*
X28133333Y54650000D01*
X28100000Y54616666D01*
X28033333Y54583333D01*
X27833333Y54583333D01*
X27766666Y54616666D01*
X27733333Y54650000D01*
X28366666Y55283333D02*
X28600000Y54583333D01*
X28833333Y55283333D01*
X29000000Y55283333D02*
X29433333Y55283333D01*
X29200000Y55016666D01*
X29300000Y55016666D01*
X29366666Y54983333D01*
X29400000Y54950000D01*
X29433333Y54883333D01*
X29433333Y54716666D01*
X29400000Y54650000D01*
X29366666Y54616666D01*
X29300000Y54583333D01*
X29100000Y54583333D01*
X29033333Y54616666D01*
X29000000Y54650000D01*
X30466666Y55250000D02*
X30400000Y55283333D01*
X30300000Y55283333D01*
X30200000Y55250000D01*
X30133333Y55183333D01*
X30100000Y55116666D01*
X30066666Y54983333D01*
X30066666Y54883333D01*
X30100000Y54750000D01*
X30133333Y54683333D01*
X30200000Y54616666D01*
X30300000Y54583333D01*
X30366666Y54583333D01*
X30466666Y54616666D01*
X30500000Y54650000D01*
X30500000Y54883333D01*
X30366666Y54883333D01*
X30800000Y54583333D02*
X30800000Y55283333D01*
X31200000Y54583333D01*
X31200000Y55283333D01*
X31533333Y54583333D02*
X31533333Y55283333D01*
X31700000Y55283333D01*
X31800000Y55250000D01*
X31866666Y55183333D01*
X31900000Y55116666D01*
X31933333Y54983333D01*
X31933333Y54883333D01*
X31900000Y54750000D01*
X31866666Y54683333D01*
X31800000Y54616666D01*
X31700000Y54583333D01*
X31533333Y54583333D01*
D11*
X34052380Y56709523D02*
X34052380Y56233333D01*
X33052380Y56233333D01*
X33957142Y57614285D02*
X34004761Y57566666D01*
X34052380Y57423809D01*
X34052380Y57328571D01*
X34004761Y57185714D01*
X33909523Y57090476D01*
X33814285Y57042857D01*
X33623809Y56995238D01*
X33480952Y56995238D01*
X33290476Y57042857D01*
X33195238Y57090476D01*
X33100000Y57185714D01*
X33052380Y57328571D01*
X33052380Y57423809D01*
X33100000Y57566666D01*
X33147619Y57614285D01*
X34052380Y58042857D02*
X33052380Y58042857D01*
X33052380Y58280952D01*
X33100000Y58423809D01*
X33195238Y58519047D01*
X33290476Y58566666D01*
X33480952Y58614285D01*
X33623809Y58614285D01*
X33814285Y58566666D01*
X33909523Y58519047D01*
X34004761Y58423809D01*
X34052380Y58280952D01*
X34052380Y58042857D01*
D10*
X32923607Y55000000D02*
G75*
G03*
X32923607Y55000000I-223607J0D01*
G01*
D11*
X9552380Y50328571D02*
X10361904Y50328571D01*
X10457142Y50376190D01*
X10504761Y50423809D01*
X10552380Y50519047D01*
X10552380Y50709523D01*
X10504761Y50804761D01*
X10457142Y50852380D01*
X10361904Y50900000D01*
X9552380Y50900000D01*
X10266666Y51328571D02*
X10266666Y51804761D01*
X10552380Y51233333D02*
X9552380Y51566666D01*
X10552380Y51900000D01*
X10552380Y52804761D02*
X10076190Y52471428D01*
X10552380Y52233333D02*
X9552380Y52233333D01*
X9552380Y52614285D01*
X9600000Y52709523D01*
X9647619Y52757142D01*
X9742857Y52804761D01*
X9885714Y52804761D01*
X9980952Y52757142D01*
X10028571Y52709523D01*
X10076190Y52614285D01*
X10076190Y52233333D01*
X9552380Y53090476D02*
X9552380Y53661904D01*
X10552380Y53376190D02*
X9552380Y53376190D01*
X9647619Y53947619D02*
X9600000Y53995238D01*
X9552380Y54090476D01*
X9552380Y54328571D01*
X9600000Y54423809D01*
X9647619Y54471428D01*
X9742857Y54519047D01*
X9838095Y54519047D01*
X9980952Y54471428D01*
X10552380Y53900000D01*
X10552380Y54519047D01*
D10*
X2947213Y53200000D02*
G75*
G03*
X2947213Y53200000I-223607J0D01*
G01*
X16923607Y39400000D02*
G75*
G03*
X16923607Y39400000I-223607J0D01*
G01*
X30623607Y31500000D02*
G75*
G03*
X30623607Y31500000I-223607J0D01*
G01*
D11*
X17061904Y40271428D02*
X17395238Y40271428D01*
X17538095Y39747619D02*
X17061904Y39747619D01*
X17061904Y40747619D01*
X17538095Y40747619D01*
X17966666Y39747619D02*
X17966666Y40747619D01*
X18538095Y39747619D01*
X18538095Y40747619D01*
X19585714Y39842857D02*
X19538095Y39795238D01*
X19395238Y39747619D01*
X19300000Y39747619D01*
X19157142Y39795238D01*
X19061904Y39890476D01*
X19014285Y39985714D01*
X18966666Y40176190D01*
X18966666Y40319047D01*
X19014285Y40509523D01*
X19061904Y40604761D01*
X19157142Y40700000D01*
X19300000Y40747619D01*
X19395238Y40747619D01*
X19538095Y40700000D01*
X19585714Y40652380D01*
X20347619Y40271428D02*
X20490476Y40223809D01*
X20538095Y40176190D01*
X20585714Y40080952D01*
X20585714Y39938095D01*
X20538095Y39842857D01*
X20490476Y39795238D01*
X20395238Y39747619D01*
X20014285Y39747619D01*
X20014285Y40747619D01*
X20347619Y40747619D01*
X20442857Y40700000D01*
X20490476Y40652380D01*
X20538095Y40557142D01*
X20538095Y40461904D01*
X20490476Y40366666D01*
X20442857Y40319047D01*
X20347619Y40271428D01*
X20014285Y40271428D01*
X21585714Y39747619D02*
X21252380Y40223809D01*
X21014285Y39747619D02*
X21014285Y40747619D01*
X21395238Y40747619D01*
X21490476Y40700000D01*
X21538095Y40652380D01*
X21585714Y40557142D01*
X21585714Y40414285D01*
X21538095Y40319047D01*
X21490476Y40271428D01*
X21395238Y40223809D01*
X21014285Y40223809D01*
X22014285Y39747619D02*
X22014285Y40747619D01*
X22252380Y40747619D01*
X22395238Y40700000D01*
X22490476Y40604761D01*
X22538095Y40509523D01*
X22585714Y40319047D01*
X22585714Y40176190D01*
X22538095Y39985714D01*
X22490476Y39890476D01*
X22395238Y39795238D01*
X22252380Y39747619D01*
X22014285Y39747619D01*
D10*
X72700000Y29500000D02*
X68000000Y29500000D01*
X72700000Y24700000D02*
X72700000Y29500000D01*
X55200000Y24700000D02*
X72700000Y24700000D01*
X55200000Y33300000D02*
X55200000Y24700000D01*
X68000000Y33300000D02*
X55200000Y33300000D01*
X68000000Y29400000D02*
X68000000Y33300000D01*
X70200000Y74100000D02*
X70200000Y73600000D01*
X62200000Y74100000D02*
X70200000Y74100000D01*
X70200000Y69700000D02*
X70200000Y73600000D01*
X52700000Y69700000D02*
X70200000Y69700000D01*
X52700000Y74100000D02*
X52700000Y69700000D01*
X52800000Y74100000D02*
X52700000Y74100000D01*
X59400000Y74100000D02*
X52800000Y74100000D01*
X55564166Y32183333D02*
X55564166Y32883333D01*
X55864166Y32816666D02*
X55897500Y32850000D01*
X55964166Y32883333D01*
X56130833Y32883333D01*
X56197500Y32850000D01*
X56230833Y32816666D01*
X56264166Y32750000D01*
X56264166Y32683333D01*
X56230833Y32583333D01*
X55830833Y32183333D01*
X56264166Y32183333D01*
X56964166Y32250000D02*
X56930833Y32216666D01*
X56830833Y32183333D01*
X56764166Y32183333D01*
X56664166Y32216666D01*
X56597500Y32283333D01*
X56564166Y32350000D01*
X56530833Y32483333D01*
X56530833Y32583333D01*
X56564166Y32716666D01*
X56597500Y32783333D01*
X56664166Y32850000D01*
X56764166Y32883333D01*
X56830833Y32883333D01*
X56930833Y32850000D01*
X56964166Y32816666D01*
X57797500Y32183333D02*
X57797500Y32883333D01*
X58064166Y32883333D01*
X58130833Y32850000D01*
X58164166Y32816666D01*
X58197500Y32750000D01*
X58197500Y32650000D01*
X58164166Y32583333D01*
X58130833Y32550000D01*
X58064166Y32516666D01*
X57797500Y32516666D01*
X58797500Y32650000D02*
X58797500Y32183333D01*
X58497500Y32650000D02*
X58497500Y32283333D01*
X58530833Y32216666D01*
X58597500Y32183333D01*
X58697500Y32183333D01*
X58764166Y32216666D01*
X58797500Y32250000D01*
X59230833Y32183333D02*
X59164166Y32216666D01*
X59130833Y32283333D01*
X59130833Y32883333D01*
X59597500Y32183333D02*
X59530833Y32216666D01*
X59497500Y32283333D01*
X59497500Y32883333D01*
X59864166Y32450000D02*
X60397500Y32450000D01*
X61030833Y32650000D02*
X61030833Y32183333D01*
X60730833Y32650000D02*
X60730833Y32283333D01*
X60764166Y32216666D01*
X60830833Y32183333D01*
X60930833Y32183333D01*
X60997500Y32216666D01*
X61030833Y32250000D01*
X61364166Y32650000D02*
X61364166Y31950000D01*
X61364166Y32616666D02*
X61430833Y32650000D01*
X61564166Y32650000D01*
X61630833Y32616666D01*
X61664166Y32583333D01*
X61697500Y32516666D01*
X61697500Y32316666D01*
X61664166Y32250000D01*
X61630833Y32216666D01*
X61564166Y32183333D01*
X61430833Y32183333D01*
X61364166Y32216666D01*
X61964166Y32216666D02*
X62030833Y32183333D01*
X62164166Y32183333D01*
X62230833Y32216666D01*
X62264166Y32283333D01*
X62264166Y32316666D01*
X62230833Y32383333D01*
X62164166Y32416666D01*
X62064166Y32416666D01*
X61997500Y32450000D01*
X61964166Y32516666D01*
X61964166Y32550000D01*
X61997500Y32616666D01*
X62064166Y32650000D01*
X62164166Y32650000D01*
X62230833Y32616666D01*
X55697500Y31683333D02*
X55830833Y31683333D01*
X55897500Y31650000D01*
X55964166Y31583333D01*
X55997500Y31450000D01*
X55997500Y31216666D01*
X55964166Y31083333D01*
X55897500Y31016666D01*
X55830833Y30983333D01*
X55697500Y30983333D01*
X55630833Y31016666D01*
X55564166Y31083333D01*
X55530833Y31216666D01*
X55530833Y31450000D01*
X55564166Y31583333D01*
X55630833Y31650000D01*
X55697500Y31683333D01*
X56297500Y31450000D02*
X56297500Y30750000D01*
X56297500Y31416666D02*
X56364166Y31450000D01*
X56497500Y31450000D01*
X56564166Y31416666D01*
X56597500Y31383333D01*
X56630833Y31316666D01*
X56630833Y31116666D01*
X56597500Y31050000D01*
X56564166Y31016666D01*
X56497500Y30983333D01*
X56364166Y30983333D01*
X56297500Y31016666D01*
X57197500Y31016666D02*
X57130833Y30983333D01*
X56997500Y30983333D01*
X56930833Y31016666D01*
X56897500Y31083333D01*
X56897500Y31350000D01*
X56930833Y31416666D01*
X56997500Y31450000D01*
X57130833Y31450000D01*
X57197500Y31416666D01*
X57230833Y31350000D01*
X57230833Y31283333D01*
X56897500Y31216666D01*
X57530833Y31450000D02*
X57530833Y30983333D01*
X57530833Y31383333D02*
X57564166Y31416666D01*
X57630833Y31450000D01*
X57730833Y31450000D01*
X57797500Y31416666D01*
X57830833Y31350000D01*
X57830833Y30983333D01*
X58164166Y31050000D02*
X58197500Y31016666D01*
X58164166Y30983333D01*
X58130833Y31016666D01*
X58164166Y31050000D01*
X58164166Y30983333D01*
X58164166Y31416666D02*
X58197500Y31383333D01*
X58164166Y31350000D01*
X58130833Y31383333D01*
X58164166Y31416666D01*
X58164166Y31350000D01*
X59030833Y30983333D02*
X59030833Y31683333D01*
X59430833Y30983333D01*
X59430833Y31683333D01*
X59864166Y30983333D02*
X59797500Y31016666D01*
X59764166Y31050000D01*
X59730833Y31116666D01*
X59730833Y31316666D01*
X59764166Y31383333D01*
X59797500Y31416666D01*
X59864166Y31450000D01*
X59964166Y31450000D01*
X60030833Y31416666D01*
X60064166Y31383333D01*
X60097500Y31316666D01*
X60097500Y31116666D01*
X60064166Y31050000D01*
X60030833Y31016666D01*
X59964166Y30983333D01*
X59864166Y30983333D01*
X60930833Y30983333D02*
X60930833Y31683333D01*
X61197500Y31683333D01*
X61264166Y31650000D01*
X61297500Y31616666D01*
X61330833Y31550000D01*
X61330833Y31450000D01*
X61297500Y31383333D01*
X61264166Y31350000D01*
X61197500Y31316666D01*
X60930833Y31316666D01*
X61930833Y31450000D02*
X61930833Y30983333D01*
X61630833Y31450000D02*
X61630833Y31083333D01*
X61664166Y31016666D01*
X61730833Y30983333D01*
X61830833Y30983333D01*
X61897500Y31016666D01*
X61930833Y31050000D01*
X62364166Y30983333D02*
X62297500Y31016666D01*
X62264166Y31083333D01*
X62264166Y31683333D01*
X62730833Y30983333D02*
X62664166Y31016666D01*
X62630833Y31083333D01*
X62630833Y31683333D01*
X62997500Y31250000D02*
X63530833Y31250000D01*
X64164166Y31450000D02*
X64164166Y30983333D01*
X63864166Y31450000D02*
X63864166Y31083333D01*
X63897500Y31016666D01*
X63964166Y30983333D01*
X64064166Y30983333D01*
X64130833Y31016666D01*
X64164166Y31050000D01*
X64497500Y31450000D02*
X64497500Y30750000D01*
X64497500Y31416666D02*
X64564166Y31450000D01*
X64697500Y31450000D01*
X64764166Y31416666D01*
X64797500Y31383333D01*
X64830833Y31316666D01*
X64830833Y31116666D01*
X64797500Y31050000D01*
X64764166Y31016666D01*
X64697500Y30983333D01*
X64564166Y30983333D01*
X64497500Y31016666D01*
X55797500Y30150000D02*
X55897500Y30116666D01*
X55930833Y30083333D01*
X55964166Y30016666D01*
X55964166Y29916666D01*
X55930833Y29850000D01*
X55897500Y29816666D01*
X55830833Y29783333D01*
X55564166Y29783333D01*
X55564166Y30483333D01*
X55797500Y30483333D01*
X55864166Y30450000D01*
X55897500Y30416666D01*
X55930833Y30350000D01*
X55930833Y30283333D01*
X55897500Y30216666D01*
X55864166Y30183333D01*
X55797500Y30150000D01*
X55564166Y30150000D01*
X56264166Y29783333D02*
X56264166Y30250000D01*
X56264166Y30116666D02*
X56297500Y30183333D01*
X56330833Y30216666D01*
X56397500Y30250000D01*
X56464166Y30250000D01*
X56697500Y29783333D02*
X56697500Y30250000D01*
X56697500Y30483333D02*
X56664166Y30450000D01*
X56697500Y30416666D01*
X56730833Y30450000D01*
X56697500Y30483333D01*
X56697500Y30416666D01*
X57330833Y29783333D02*
X57330833Y30483333D01*
X57330833Y29816666D02*
X57264166Y29783333D01*
X57130833Y29783333D01*
X57064166Y29816666D01*
X57030833Y29850000D01*
X56997500Y29916666D01*
X56997500Y30116666D01*
X57030833Y30183333D01*
X57064166Y30216666D01*
X57130833Y30250000D01*
X57264166Y30250000D01*
X57330833Y30216666D01*
X57964166Y30250000D02*
X57964166Y29683333D01*
X57930833Y29616666D01*
X57897500Y29583333D01*
X57830833Y29550000D01*
X57730833Y29550000D01*
X57664166Y29583333D01*
X57964166Y29816666D02*
X57897500Y29783333D01*
X57764166Y29783333D01*
X57697500Y29816666D01*
X57664166Y29850000D01*
X57630833Y29916666D01*
X57630833Y30116666D01*
X57664166Y30183333D01*
X57697500Y30216666D01*
X57764166Y30250000D01*
X57897500Y30250000D01*
X57964166Y30216666D01*
X58564166Y29816666D02*
X58497500Y29783333D01*
X58364166Y29783333D01*
X58297500Y29816666D01*
X58264166Y29883333D01*
X58264166Y30150000D01*
X58297500Y30216666D01*
X58364166Y30250000D01*
X58497500Y30250000D01*
X58564166Y30216666D01*
X58597500Y30150000D01*
X58597500Y30083333D01*
X58264166Y30016666D01*
X59197500Y29783333D02*
X59197500Y30483333D01*
X59197500Y29816666D02*
X59130833Y29783333D01*
X58997500Y29783333D01*
X58930833Y29816666D01*
X58897500Y29850000D01*
X58864166Y29916666D01*
X58864166Y30116666D01*
X58897500Y30183333D01*
X58930833Y30216666D01*
X58997500Y30250000D01*
X59130833Y30250000D01*
X59197500Y30216666D01*
X59530833Y29850000D02*
X59564166Y29816666D01*
X59530833Y29783333D01*
X59497500Y29816666D01*
X59530833Y29850000D01*
X59530833Y29783333D01*
X59530833Y30216666D02*
X59564166Y30183333D01*
X59530833Y30150000D01*
X59497500Y30183333D01*
X59530833Y30216666D01*
X59530833Y30150000D01*
X60764166Y29783333D02*
X60364166Y29783333D01*
X60564166Y29783333D02*
X60564166Y30483333D01*
X60497500Y30383333D01*
X60430833Y30316666D01*
X60364166Y30283333D01*
X61064166Y29850000D02*
X61097500Y29816666D01*
X61064166Y29783333D01*
X61030833Y29816666D01*
X61064166Y29850000D01*
X61064166Y29783333D01*
X61764166Y29783333D02*
X61364166Y29783333D01*
X61564166Y29783333D02*
X61564166Y30483333D01*
X61497500Y30383333D01*
X61430833Y30316666D01*
X61364166Y30283333D01*
X62064166Y29783333D02*
X62064166Y30483333D01*
X62130833Y30050000D02*
X62330833Y29783333D01*
X62330833Y30250000D02*
X62064166Y29983333D01*
X63564166Y29783333D02*
X63330833Y30116666D01*
X63164166Y29783333D02*
X63164166Y30483333D01*
X63430833Y30483333D01*
X63497500Y30450000D01*
X63530833Y30416666D01*
X63564166Y30350000D01*
X63564166Y30250000D01*
X63530833Y30183333D01*
X63497500Y30150000D01*
X63430833Y30116666D01*
X63164166Y30116666D01*
X64297500Y30250000D02*
X64564166Y30250000D01*
X64397500Y30483333D02*
X64397500Y29883333D01*
X64430833Y29816666D01*
X64497500Y29783333D01*
X64564166Y29783333D01*
X64897500Y29783333D02*
X64830833Y29816666D01*
X64797500Y29850000D01*
X64764166Y29916666D01*
X64764166Y30116666D01*
X64797500Y30183333D01*
X64830833Y30216666D01*
X64897500Y30250000D01*
X64997500Y30250000D01*
X65064166Y30216666D01*
X65097500Y30183333D01*
X65130833Y30116666D01*
X65130833Y29916666D01*
X65097500Y29850000D01*
X65064166Y29816666D01*
X64997500Y29783333D01*
X64897500Y29783333D01*
X65897500Y30483333D02*
X66330833Y30483333D01*
X66097500Y30216666D01*
X66197500Y30216666D01*
X66264166Y30183333D01*
X66297500Y30150000D01*
X66330833Y30083333D01*
X66330833Y29916666D01*
X66297500Y29850000D01*
X66264166Y29816666D01*
X66197500Y29783333D01*
X65997500Y29783333D01*
X65930833Y29816666D01*
X65897500Y29850000D01*
X66530833Y30483333D02*
X66764166Y29783333D01*
X66997500Y30483333D01*
X67164166Y30483333D02*
X67597500Y30483333D01*
X67364166Y30216666D01*
X67464166Y30216666D01*
X67530833Y30183333D01*
X67564166Y30150000D01*
X67597500Y30083333D01*
X67597500Y29916666D01*
X67564166Y29850000D01*
X67530833Y29816666D01*
X67464166Y29783333D01*
X67264166Y29783333D01*
X67197500Y29816666D01*
X67164166Y29850000D01*
X10809523Y74447619D02*
X10333333Y74447619D01*
X10285714Y73971428D01*
X10333333Y74019047D01*
X10428571Y74066666D01*
X10666666Y74066666D01*
X10761904Y74019047D01*
X10809523Y73971428D01*
X10857142Y73876190D01*
X10857142Y73638095D01*
X10809523Y73542857D01*
X10761904Y73495238D01*
X10666666Y73447619D01*
X10428571Y73447619D01*
X10333333Y73495238D01*
X10285714Y73542857D01*
X11142857Y74447619D02*
X11476190Y73447619D01*
X11809523Y74447619D01*
X6661904Y74447619D02*
X7280952Y74447619D01*
X6947619Y74066666D01*
X7090476Y74066666D01*
X7185714Y74019047D01*
X7233333Y73971428D01*
X7280952Y73876190D01*
X7280952Y73638095D01*
X7233333Y73542857D01*
X7185714Y73495238D01*
X7090476Y73447619D01*
X6804761Y73447619D01*
X6709523Y73495238D01*
X6661904Y73542857D01*
X7566666Y74447619D02*
X7900000Y73447619D01*
X8233333Y74447619D01*
X8471428Y74447619D02*
X9090476Y74447619D01*
X8757142Y74066666D01*
X8900000Y74066666D01*
X8995238Y74019047D01*
X9042857Y73971428D01*
X9090476Y73876190D01*
X9090476Y73638095D01*
X9042857Y73542857D01*
X8995238Y73495238D01*
X8900000Y73447619D01*
X8614285Y73447619D01*
X8519047Y73495238D01*
X8471428Y73542857D01*
D12*
X53298142Y71927142D02*
X53412428Y71889047D01*
X53450523Y71850952D01*
X53488619Y71774761D01*
X53488619Y71660476D01*
X53450523Y71584285D01*
X53412428Y71546190D01*
X53336238Y71508095D01*
X53031476Y71508095D01*
X53031476Y72308095D01*
X53298142Y72308095D01*
X53374333Y72270000D01*
X53412428Y72231904D01*
X53450523Y72155714D01*
X53450523Y72079523D01*
X53412428Y72003333D01*
X53374333Y71965238D01*
X53298142Y71927142D01*
X53031476Y71927142D01*
X53831476Y71508095D02*
X53831476Y72041428D01*
X53831476Y71889047D02*
X53869571Y71965238D01*
X53907666Y72003333D01*
X53983857Y72041428D01*
X54060047Y72041428D01*
X54326714Y71508095D02*
X54326714Y72041428D01*
X54326714Y72308095D02*
X54288619Y72270000D01*
X54326714Y72231904D01*
X54364809Y72270000D01*
X54326714Y72308095D01*
X54326714Y72231904D01*
X55050523Y71508095D02*
X55050523Y72308095D01*
X55050523Y71546190D02*
X54974333Y71508095D01*
X54821952Y71508095D01*
X54745761Y71546190D01*
X54707666Y71584285D01*
X54669571Y71660476D01*
X54669571Y71889047D01*
X54707666Y71965238D01*
X54745761Y72003333D01*
X54821952Y72041428D01*
X54974333Y72041428D01*
X55050523Y72003333D01*
X55774333Y72041428D02*
X55774333Y71393809D01*
X55736238Y71317619D01*
X55698142Y71279523D01*
X55621952Y71241428D01*
X55507666Y71241428D01*
X55431476Y71279523D01*
X55774333Y71546190D02*
X55698142Y71508095D01*
X55545761Y71508095D01*
X55469571Y71546190D01*
X55431476Y71584285D01*
X55393380Y71660476D01*
X55393380Y71889047D01*
X55431476Y71965238D01*
X55469571Y72003333D01*
X55545761Y72041428D01*
X55698142Y72041428D01*
X55774333Y72003333D01*
X56460047Y71546190D02*
X56383857Y71508095D01*
X56231476Y71508095D01*
X56155285Y71546190D01*
X56117190Y71622380D01*
X56117190Y71927142D01*
X56155285Y72003333D01*
X56231476Y72041428D01*
X56383857Y72041428D01*
X56460047Y72003333D01*
X56498142Y71927142D01*
X56498142Y71850952D01*
X56117190Y71774761D01*
X57183857Y71508095D02*
X57183857Y72308095D01*
X57183857Y71546190D02*
X57107666Y71508095D01*
X56955285Y71508095D01*
X56879095Y71546190D01*
X56841000Y71584285D01*
X56802904Y71660476D01*
X56802904Y71889047D01*
X56841000Y71965238D01*
X56879095Y72003333D01*
X56955285Y72041428D01*
X57107666Y72041428D01*
X57183857Y72003333D01*
X57564809Y71584285D02*
X57602904Y71546190D01*
X57564809Y71508095D01*
X57526714Y71546190D01*
X57564809Y71584285D01*
X57564809Y71508095D01*
X57564809Y72003333D02*
X57602904Y71965238D01*
X57564809Y71927142D01*
X57526714Y71965238D01*
X57564809Y72003333D01*
X57564809Y71927142D01*
X58936238Y72308095D02*
X58555285Y72308095D01*
X58517190Y71927142D01*
X58555285Y71965238D01*
X58631476Y72003333D01*
X58821952Y72003333D01*
X58898142Y71965238D01*
X58936238Y71927142D01*
X58974333Y71850952D01*
X58974333Y71660476D01*
X58936238Y71584285D01*
X58898142Y71546190D01*
X58821952Y71508095D01*
X58631476Y71508095D01*
X58555285Y71546190D01*
X58517190Y71584285D01*
X59202904Y72308095D02*
X59469571Y71508095D01*
X59736238Y72308095D01*
X60841000Y71203333D02*
X60802904Y71241428D01*
X60726714Y71355714D01*
X60688619Y71431904D01*
X60650523Y71546190D01*
X60612428Y71736666D01*
X60612428Y71889047D01*
X60650523Y72079523D01*
X60688619Y72193809D01*
X60726714Y72270000D01*
X60802904Y72384285D01*
X60841000Y72422380D01*
X61069571Y72308095D02*
X61260047Y71508095D01*
X61412428Y72079523D01*
X61564809Y71508095D01*
X61755285Y72308095D01*
X62021952Y71546190D02*
X62136238Y71508095D01*
X62326714Y71508095D01*
X62402904Y71546190D01*
X62441000Y71584285D01*
X62479095Y71660476D01*
X62479095Y71736666D01*
X62441000Y71812857D01*
X62402904Y71850952D01*
X62326714Y71889047D01*
X62174333Y71927142D01*
X62098142Y71965238D01*
X62060047Y72003333D01*
X62021952Y72079523D01*
X62021952Y72155714D01*
X62060047Y72231904D01*
X62098142Y72270000D01*
X62174333Y72308095D01*
X62364809Y72308095D01*
X62479095Y72270000D01*
X62783857Y72231904D02*
X62821952Y72270000D01*
X62898142Y72308095D01*
X63088619Y72308095D01*
X63164809Y72270000D01*
X63202904Y72231904D01*
X63241000Y72155714D01*
X63241000Y72079523D01*
X63202904Y71965238D01*
X62745761Y71508095D01*
X63241000Y71508095D01*
X63698142Y71965238D02*
X63621952Y72003333D01*
X63583857Y72041428D01*
X63545761Y72117619D01*
X63545761Y72155714D01*
X63583857Y72231904D01*
X63621952Y72270000D01*
X63698142Y72308095D01*
X63850523Y72308095D01*
X63926714Y72270000D01*
X63964809Y72231904D01*
X64002904Y72155714D01*
X64002904Y72117619D01*
X63964809Y72041428D01*
X63926714Y72003333D01*
X63850523Y71965238D01*
X63698142Y71965238D01*
X63621952Y71927142D01*
X63583857Y71889047D01*
X63545761Y71812857D01*
X63545761Y71660476D01*
X63583857Y71584285D01*
X63621952Y71546190D01*
X63698142Y71508095D01*
X63850523Y71508095D01*
X63926714Y71546190D01*
X63964809Y71584285D01*
X64002904Y71660476D01*
X64002904Y71812857D01*
X63964809Y71889047D01*
X63926714Y71927142D01*
X63850523Y71965238D01*
X64764809Y71508095D02*
X64307666Y71508095D01*
X64536238Y71508095D02*
X64536238Y72308095D01*
X64460047Y72193809D01*
X64383857Y72117619D01*
X64307666Y72079523D01*
X65031476Y72308095D02*
X65526714Y72308095D01*
X65260047Y72003333D01*
X65374333Y72003333D01*
X65450523Y71965238D01*
X65488619Y71927142D01*
X65526714Y71850952D01*
X65526714Y71660476D01*
X65488619Y71584285D01*
X65450523Y71546190D01*
X65374333Y71508095D01*
X65145761Y71508095D01*
X65069571Y71546190D01*
X65031476Y71584285D01*
X66136238Y71927142D02*
X66250523Y71889047D01*
X66288619Y71850952D01*
X66326714Y71774761D01*
X66326714Y71660476D01*
X66288619Y71584285D01*
X66250523Y71546190D01*
X66174333Y71508095D01*
X65869571Y71508095D01*
X65869571Y72308095D01*
X66136238Y72308095D01*
X66212428Y72270000D01*
X66250523Y72231904D01*
X66288619Y72155714D01*
X66288619Y72079523D01*
X66250523Y72003333D01*
X66212428Y71965238D01*
X66136238Y71927142D01*
X65869571Y71927142D01*
X67202904Y72041428D02*
X67393380Y71508095D01*
X67583857Y72041428D01*
X67812428Y72308095D02*
X68307666Y72308095D01*
X68041000Y72003333D01*
X68155285Y72003333D01*
X68231476Y71965238D01*
X68269571Y71927142D01*
X68307666Y71850952D01*
X68307666Y71660476D01*
X68269571Y71584285D01*
X68231476Y71546190D01*
X68155285Y71508095D01*
X67926714Y71508095D01*
X67850523Y71546190D01*
X67812428Y71584285D01*
X68650523Y71812857D02*
X69260047Y71812857D01*
X68955285Y71508095D02*
X68955285Y72117619D01*
X69564809Y71203333D02*
X69602904Y71241428D01*
X69679095Y71355714D01*
X69717190Y71431904D01*
X69755285Y71546190D01*
X69793380Y71736666D01*
X69793380Y71889047D01*
X69755285Y72079523D01*
X69717190Y72193809D01*
X69679095Y72270000D01*
X69602904Y72384285D01*
X69564809Y72422380D01*
X53183857Y70968095D02*
X53336238Y70968095D01*
X53412428Y70930000D01*
X53488619Y70853809D01*
X53526714Y70701428D01*
X53526714Y70434761D01*
X53488619Y70282380D01*
X53412428Y70206190D01*
X53336238Y70168095D01*
X53183857Y70168095D01*
X53107666Y70206190D01*
X53031476Y70282380D01*
X52993380Y70434761D01*
X52993380Y70701428D01*
X53031476Y70853809D01*
X53107666Y70930000D01*
X53183857Y70968095D01*
X53869571Y70701428D02*
X53869571Y69901428D01*
X53869571Y70663333D02*
X53945761Y70701428D01*
X54098142Y70701428D01*
X54174333Y70663333D01*
X54212428Y70625238D01*
X54250523Y70549047D01*
X54250523Y70320476D01*
X54212428Y70244285D01*
X54174333Y70206190D01*
X54098142Y70168095D01*
X53945761Y70168095D01*
X53869571Y70206190D01*
X54898142Y70206190D02*
X54821952Y70168095D01*
X54669571Y70168095D01*
X54593380Y70206190D01*
X54555285Y70282380D01*
X54555285Y70587142D01*
X54593380Y70663333D01*
X54669571Y70701428D01*
X54821952Y70701428D01*
X54898142Y70663333D01*
X54936238Y70587142D01*
X54936238Y70510952D01*
X54555285Y70434761D01*
X55279095Y70701428D02*
X55279095Y70168095D01*
X55279095Y70625238D02*
X55317190Y70663333D01*
X55393380Y70701428D01*
X55507666Y70701428D01*
X55583857Y70663333D01*
X55621952Y70587142D01*
X55621952Y70168095D01*
X56002904Y70244285D02*
X56041000Y70206190D01*
X56002904Y70168095D01*
X55964809Y70206190D01*
X56002904Y70244285D01*
X56002904Y70168095D01*
X56002904Y70663333D02*
X56041000Y70625238D01*
X56002904Y70587142D01*
X55964809Y70625238D01*
X56002904Y70663333D01*
X56002904Y70587142D01*
X57336238Y70701428D02*
X57336238Y70168095D01*
X57145761Y71006190D02*
X56955285Y70434761D01*
X57450523Y70434761D01*
X57641000Y70968095D02*
X57907666Y70168095D01*
X58174333Y70968095D01*
X58364809Y70968095D02*
X58860047Y70968095D01*
X58593380Y70663333D01*
X58707666Y70663333D01*
X58783857Y70625238D01*
X58821952Y70587142D01*
X58860047Y70510952D01*
X58860047Y70320476D01*
X58821952Y70244285D01*
X58783857Y70206190D01*
X58707666Y70168095D01*
X58479095Y70168095D01*
X58402904Y70206190D01*
X58364809Y70244285D01*
X60041000Y69863333D02*
X60002904Y69901428D01*
X59926714Y70015714D01*
X59888619Y70091904D01*
X59850523Y70206190D01*
X59812428Y70396666D01*
X59812428Y70549047D01*
X59850523Y70739523D01*
X59888619Y70853809D01*
X59926714Y70930000D01*
X60002904Y71044285D01*
X60041000Y71082380D01*
X60269571Y70701428D02*
X60460047Y70168095D01*
X60650523Y70701428D01*
X61374333Y70168095D02*
X60917190Y70168095D01*
X61145761Y70168095D02*
X61145761Y70968095D01*
X61069571Y70853809D01*
X60993380Y70777619D01*
X60917190Y70739523D01*
X61755285Y70206190D02*
X61755285Y70168095D01*
X61717190Y70091904D01*
X61679095Y70053809D01*
X62631476Y70701428D02*
X62821952Y70168095D01*
X63012428Y70701428D01*
X63279095Y70891904D02*
X63317190Y70930000D01*
X63393380Y70968095D01*
X63583857Y70968095D01*
X63660047Y70930000D01*
X63698142Y70891904D01*
X63736238Y70815714D01*
X63736238Y70739523D01*
X63698142Y70625238D01*
X63241000Y70168095D01*
X63736238Y70168095D01*
X64002904Y69863333D02*
X64041000Y69901428D01*
X64117190Y70015714D01*
X64155285Y70091904D01*
X64193380Y70206190D01*
X64231476Y70396666D01*
X64231476Y70549047D01*
X64193380Y70739523D01*
X64155285Y70853809D01*
X64117190Y70930000D01*
X64041000Y71044285D01*
X64002904Y71082380D01*
D11*
X91509523Y83947619D02*
X91033333Y83947619D01*
X90985714Y83471428D01*
X91033333Y83519047D01*
X91128571Y83566666D01*
X91366666Y83566666D01*
X91461904Y83519047D01*
X91509523Y83471428D01*
X91557142Y83376190D01*
X91557142Y83138095D01*
X91509523Y83042857D01*
X91461904Y82995238D01*
X91366666Y82947619D01*
X91128571Y82947619D01*
X91033333Y82995238D01*
X90985714Y83042857D01*
X91842857Y83947619D02*
X92176190Y82947619D01*
X92509523Y83947619D01*
X90938095Y79000000D02*
X90842857Y79047619D01*
X90700000Y79047619D01*
X90557142Y79000000D01*
X90461904Y78904761D01*
X90414285Y78809523D01*
X90366666Y78619047D01*
X90366666Y78476190D01*
X90414285Y78285714D01*
X90461904Y78190476D01*
X90557142Y78095238D01*
X90700000Y78047619D01*
X90795238Y78047619D01*
X90938095Y78095238D01*
X90985714Y78142857D01*
X90985714Y78476190D01*
X90795238Y78476190D01*
X91414285Y78047619D02*
X91414285Y79047619D01*
X91985714Y78047619D01*
X91985714Y79047619D01*
X92461904Y78047619D02*
X92461904Y79047619D01*
X92700000Y79047619D01*
X92842857Y79000000D01*
X92938095Y78904761D01*
X92985714Y78809523D01*
X93033333Y78619047D01*
X93033333Y78476190D01*
X92985714Y78285714D01*
X92938095Y78190476D01*
X92842857Y78095238D01*
X92700000Y78047619D01*
X92461904Y78047619D01*
X90561904Y74047619D02*
X91180952Y74047619D01*
X90847619Y73666666D01*
X90990476Y73666666D01*
X91085714Y73619047D01*
X91133333Y73571428D01*
X91180952Y73476190D01*
X91180952Y73238095D01*
X91133333Y73142857D01*
X91085714Y73095238D01*
X90990476Y73047619D01*
X90704761Y73047619D01*
X90609523Y73095238D01*
X90561904Y73142857D01*
X91466666Y74047619D02*
X91800000Y73047619D01*
X92133333Y74047619D01*
X92371428Y74047619D02*
X92990476Y74047619D01*
X92657142Y73666666D01*
X92800000Y73666666D01*
X92895238Y73619047D01*
X92942857Y73571428D01*
X92990476Y73476190D01*
X92990476Y73238095D01*
X92942857Y73142857D01*
X92895238Y73095238D01*
X92800000Y73047619D01*
X92514285Y73047619D01*
X92419047Y73095238D01*
X92371428Y73142857D01*
X90342857Y67947619D02*
X90342857Y68947619D01*
X90676190Y68233333D01*
X91009523Y68947619D01*
X91009523Y67947619D01*
X92057142Y68042857D02*
X92009523Y67995238D01*
X91866666Y67947619D01*
X91771428Y67947619D01*
X91628571Y67995238D01*
X91533333Y68090476D01*
X91485714Y68185714D01*
X91438095Y68376190D01*
X91438095Y68519047D01*
X91485714Y68709523D01*
X91533333Y68804761D01*
X91628571Y68900000D01*
X91771428Y68947619D01*
X91866666Y68947619D01*
X92009523Y68900000D01*
X92057142Y68852380D01*
X92676190Y68947619D02*
X92866666Y68947619D01*
X92961904Y68900000D01*
X93057142Y68804761D01*
X93104761Y68614285D01*
X93104761Y68280952D01*
X93057142Y68090476D01*
X92961904Y67995238D01*
X92866666Y67947619D01*
X92676190Y67947619D01*
X92580952Y67995238D01*
X92485714Y68090476D01*
X92438095Y68280952D01*
X92438095Y68614285D01*
X92485714Y68804761D01*
X92580952Y68900000D01*
X92676190Y68947619D01*
D13*
X90600761Y60418095D02*
X91096000Y60418095D01*
X90829333Y60113333D01*
X90943619Y60113333D01*
X91019809Y60075238D01*
X91057904Y60037142D01*
X91096000Y59960952D01*
X91096000Y59770476D01*
X91057904Y59694285D01*
X91019809Y59656190D01*
X90943619Y59618095D01*
X90715047Y59618095D01*
X90638857Y59656190D01*
X90600761Y59694285D01*
X91324571Y60418095D02*
X91591238Y59618095D01*
X91857904Y60418095D01*
X92048380Y60418095D02*
X92543619Y60418095D01*
X92276952Y60113333D01*
X92391238Y60113333D01*
X92467428Y60075238D01*
X92505523Y60037142D01*
X92543619Y59960952D01*
X92543619Y59770476D01*
X92505523Y59694285D01*
X92467428Y59656190D01*
X92391238Y59618095D01*
X92162666Y59618095D01*
X92086476Y59656190D01*
X92048380Y59694285D01*
X88772190Y58258095D02*
X88772190Y59058095D01*
X88962666Y59058095D01*
X89076952Y59020000D01*
X89153142Y58943809D01*
X89191238Y58867619D01*
X89229333Y58715238D01*
X89229333Y58600952D01*
X89191238Y58448571D01*
X89153142Y58372380D01*
X89076952Y58296190D01*
X88962666Y58258095D01*
X88772190Y58258095D01*
X89572190Y58677142D02*
X89838857Y58677142D01*
X89953142Y58258095D02*
X89572190Y58258095D01*
X89572190Y59058095D01*
X89953142Y59058095D01*
X90181714Y59058095D02*
X90448380Y58258095D01*
X90715047Y59058095D01*
X90981714Y58258095D02*
X90981714Y59058095D01*
X91819809Y58334285D02*
X91781714Y58296190D01*
X91667428Y58258095D01*
X91591238Y58258095D01*
X91476952Y58296190D01*
X91400761Y58372380D01*
X91362666Y58448571D01*
X91324571Y58600952D01*
X91324571Y58715238D01*
X91362666Y58867619D01*
X91400761Y58943809D01*
X91476952Y59020000D01*
X91591238Y59058095D01*
X91667428Y59058095D01*
X91781714Y59020000D01*
X91819809Y58981904D01*
X92162666Y58677142D02*
X92429333Y58677142D01*
X92543619Y58258095D02*
X92162666Y58258095D01*
X92162666Y59058095D01*
X92543619Y59058095D01*
X90967428Y65180000D02*
X90891238Y65218095D01*
X90776952Y65218095D01*
X90662666Y65180000D01*
X90586476Y65103809D01*
X90548380Y65027619D01*
X90510285Y64875238D01*
X90510285Y64760952D01*
X90548380Y64608571D01*
X90586476Y64532380D01*
X90662666Y64456190D01*
X90776952Y64418095D01*
X90853142Y64418095D01*
X90967428Y64456190D01*
X91005523Y64494285D01*
X91005523Y64760952D01*
X90853142Y64760952D01*
X91348380Y64418095D02*
X91348380Y65218095D01*
X91805523Y64418095D01*
X91805523Y65218095D01*
X92186476Y64418095D02*
X92186476Y65218095D01*
X92376952Y65218095D01*
X92491238Y65180000D01*
X92567428Y65103809D01*
X92605523Y65027619D01*
X92643619Y64875238D01*
X92643619Y64760952D01*
X92605523Y64608571D01*
X92567428Y64532380D01*
X92491238Y64456190D01*
X92376952Y64418095D01*
X92186476Y64418095D01*
X89938857Y63058095D02*
X89938857Y63858095D01*
X89938857Y63477142D02*
X90396000Y63477142D01*
X90396000Y63058095D02*
X90396000Y63858095D01*
X90929333Y63858095D02*
X91081714Y63858095D01*
X91157904Y63820000D01*
X91234095Y63743809D01*
X91272190Y63591428D01*
X91272190Y63324761D01*
X91234095Y63172380D01*
X91157904Y63096190D01*
X91081714Y63058095D01*
X90929333Y63058095D01*
X90853142Y63096190D01*
X90776952Y63172380D01*
X90738857Y63324761D01*
X90738857Y63591428D01*
X90776952Y63743809D01*
X90853142Y63820000D01*
X90929333Y63858095D01*
X91576952Y63096190D02*
X91691238Y63058095D01*
X91881714Y63058095D01*
X91957904Y63096190D01*
X91996000Y63134285D01*
X92034095Y63210476D01*
X92034095Y63286666D01*
X91996000Y63362857D01*
X91957904Y63400952D01*
X91881714Y63439047D01*
X91729333Y63477142D01*
X91653142Y63515238D01*
X91615047Y63553333D01*
X91576952Y63629523D01*
X91576952Y63705714D01*
X91615047Y63781904D01*
X91653142Y63820000D01*
X91729333Y63858095D01*
X91919809Y63858095D01*
X92034095Y63820000D01*
X92262666Y63858095D02*
X92719809Y63858095D01*
X92491238Y63058095D02*
X92491238Y63858095D01*
D11*
X88019047Y62147619D02*
X88019047Y61338095D01*
X88066666Y61242857D01*
X88114285Y61195238D01*
X88209523Y61147619D01*
X88400000Y61147619D01*
X88495238Y61195238D01*
X88542857Y61242857D01*
X88590476Y61338095D01*
X88590476Y62147619D01*
X89019047Y61195238D02*
X89161904Y61147619D01*
X89400000Y61147619D01*
X89495238Y61195238D01*
X89542857Y61242857D01*
X89590476Y61338095D01*
X89590476Y61433333D01*
X89542857Y61528571D01*
X89495238Y61576190D01*
X89400000Y61623809D01*
X89209523Y61671428D01*
X89114285Y61719047D01*
X89066666Y61766666D01*
X89019047Y61861904D01*
X89019047Y61957142D01*
X89066666Y62052380D01*
X89114285Y62100000D01*
X89209523Y62147619D01*
X89447619Y62147619D01*
X89590476Y62100000D01*
X90352380Y61671428D02*
X90495238Y61623809D01*
X90542857Y61576190D01*
X90590476Y61480952D01*
X90590476Y61338095D01*
X90542857Y61242857D01*
X90495238Y61195238D01*
X90400000Y61147619D01*
X90019047Y61147619D01*
X90019047Y62147619D01*
X90352380Y62147619D01*
X90447619Y62100000D01*
X90495238Y62052380D01*
X90542857Y61957142D01*
X90542857Y61861904D01*
X90495238Y61766666D01*
X90447619Y61719047D01*
X90352380Y61671428D01*
X90019047Y61671428D01*
X90780952Y61052380D02*
X91542857Y61052380D01*
X91780952Y61147619D02*
X91780952Y62147619D01*
X92257142Y61147619D02*
X92257142Y62147619D01*
X92495238Y62147619D01*
X92638095Y62100000D01*
X92733333Y62004761D01*
X92780952Y61909523D01*
X92828571Y61719047D01*
X92828571Y61576190D01*
X92780952Y61385714D01*
X92733333Y61290476D01*
X92638095Y61195238D01*
X92495238Y61147619D01*
X92257142Y61147619D01*
X71642857Y55095238D02*
X71785714Y55047619D01*
X72023809Y55047619D01*
X72119047Y55095238D01*
X72166666Y55142857D01*
X72214285Y55238095D01*
X72214285Y55333333D01*
X72166666Y55428571D01*
X72119047Y55476190D01*
X72023809Y55523809D01*
X71833333Y55571428D01*
X71738095Y55619047D01*
X71690476Y55666666D01*
X71642857Y55761904D01*
X71642857Y55857142D01*
X71690476Y55952380D01*
X71738095Y56000000D01*
X71833333Y56047619D01*
X72071428Y56047619D01*
X72214285Y56000000D01*
X72547619Y56047619D02*
X72785714Y55047619D01*
X72976190Y55761904D01*
X73166666Y55047619D01*
X73404761Y56047619D01*
X73785714Y55047619D02*
X73785714Y56047619D01*
X74023809Y56047619D01*
X74166666Y56000000D01*
X74261904Y55904761D01*
X74309523Y55809523D01*
X74357142Y55619047D01*
X74357142Y55476190D01*
X74309523Y55285714D01*
X74261904Y55190476D01*
X74166666Y55095238D01*
X74023809Y55047619D01*
X73785714Y55047619D01*
D10*
X63023607Y50400000D02*
G75*
G03*
X63023607Y50400000I-223607J0D01*
G01*
D14*
X37078571Y66271428D02*
X38578571Y66671428D01*
X37078571Y67071428D01*
X37792857Y67871428D02*
X37864285Y68042857D01*
X37935714Y68100000D01*
X38078571Y68157142D01*
X38292857Y68157142D01*
X38435714Y68100000D01*
X38507142Y68042857D01*
X38578571Y67928571D01*
X38578571Y67471428D01*
X37078571Y67471428D01*
X37078571Y67871428D01*
X37150000Y67985714D01*
X37221428Y68042857D01*
X37364285Y68100000D01*
X37507142Y68100000D01*
X37650000Y68042857D01*
X37721428Y67985714D01*
X37792857Y67871428D01*
X37792857Y67471428D01*
X38150000Y68614285D02*
X38150000Y69185714D01*
X38578571Y68500000D02*
X37078571Y68900000D01*
X38578571Y69300000D01*
X37078571Y69528571D02*
X37078571Y70214285D01*
X38578571Y69871428D02*
X37078571Y69871428D01*
X38721428Y70328571D02*
X38721428Y71242857D01*
X38507142Y71471428D02*
X38578571Y71642857D01*
X38578571Y71928571D01*
X38507142Y72042857D01*
X38435714Y72100000D01*
X38292857Y72157142D01*
X38150000Y72157142D01*
X38007142Y72100000D01*
X37935714Y72042857D01*
X37864285Y71928571D01*
X37792857Y71700000D01*
X37721428Y71585714D01*
X37650000Y71528571D01*
X37507142Y71471428D01*
X37364285Y71471428D01*
X37221428Y71528571D01*
X37150000Y71585714D01*
X37078571Y71700000D01*
X37078571Y71985714D01*
X37150000Y72157142D01*
X37792857Y72671428D02*
X37792857Y73071428D01*
X38578571Y73242857D02*
X38578571Y72671428D01*
X37078571Y72671428D01*
X37078571Y73242857D01*
X38578571Y74328571D02*
X38578571Y73757142D01*
X37078571Y73757142D01*
D10*
X50766666Y75850000D02*
X50700000Y75883333D01*
X50600000Y75883333D01*
X50500000Y75850000D01*
X50433333Y75783333D01*
X50400000Y75716666D01*
X50366666Y75583333D01*
X50366666Y75483333D01*
X50400000Y75350000D01*
X50433333Y75283333D01*
X50500000Y75216666D01*
X50600000Y75183333D01*
X50666666Y75183333D01*
X50766666Y75216666D01*
X50800000Y75250000D01*
X50800000Y75483333D01*
X50666666Y75483333D01*
X51100000Y75183333D02*
X51100000Y75883333D01*
X51500000Y75183333D01*
X51500000Y75883333D01*
X51833333Y75183333D02*
X51833333Y75883333D01*
X52000000Y75883333D01*
X52100000Y75850000D01*
X52166666Y75783333D01*
X52200000Y75716666D01*
X52233333Y75583333D01*
X52233333Y75483333D01*
X52200000Y75350000D01*
X52166666Y75283333D01*
X52100000Y75216666D01*
X52000000Y75183333D01*
X51833333Y75183333D01*
X50633333Y73683333D02*
X51066666Y73683333D01*
X50833333Y73416666D01*
X50933333Y73416666D01*
X51000000Y73383333D01*
X51033333Y73350000D01*
X51066666Y73283333D01*
X51066666Y73116666D01*
X51033333Y73050000D01*
X51000000Y73016666D01*
X50933333Y72983333D01*
X50733333Y72983333D01*
X50666666Y73016666D01*
X50633333Y73050000D01*
X51266666Y73683333D02*
X51500000Y72983333D01*
X51733333Y73683333D01*
X51900000Y73683333D02*
X52333333Y73683333D01*
X52100000Y73416666D01*
X52200000Y73416666D01*
X52266666Y73383333D01*
X52300000Y73350000D01*
X52333333Y73283333D01*
X52333333Y73116666D01*
X52300000Y73050000D01*
X52266666Y73016666D01*
X52200000Y72983333D01*
X52000000Y72983333D01*
X51933333Y73016666D01*
X51900000Y73050000D01*
X50566666Y71583333D02*
X50966666Y71583333D01*
X50766666Y70883333D02*
X50766666Y71583333D01*
X51133333Y71583333D02*
X51600000Y70883333D01*
X51600000Y71583333D02*
X51133333Y70883333D01*
X50983333Y77783333D02*
X50750000Y78116666D01*
X50583333Y77783333D02*
X50583333Y78483333D01*
X50850000Y78483333D01*
X50916666Y78450000D01*
X50950000Y78416666D01*
X50983333Y78350000D01*
X50983333Y78250000D01*
X50950000Y78183333D01*
X50916666Y78150000D01*
X50850000Y78116666D01*
X50583333Y78116666D01*
X51216666Y78483333D02*
X51683333Y77783333D01*
X51683333Y78483333D02*
X51216666Y77783333D01*
D11*
X47228571Y81547619D02*
X47228571Y80738095D01*
X47276190Y80642857D01*
X47323809Y80595238D01*
X47419047Y80547619D01*
X47609523Y80547619D01*
X47704761Y80595238D01*
X47752380Y80642857D01*
X47800000Y80738095D01*
X47800000Y81547619D01*
X48228571Y80833333D02*
X48704761Y80833333D01*
X48133333Y80547619D02*
X48466666Y81547619D01*
X48800000Y80547619D01*
X49704761Y80547619D02*
X49371428Y81023809D01*
X49133333Y80547619D02*
X49133333Y81547619D01*
X49514285Y81547619D01*
X49609523Y81500000D01*
X49657142Y81452380D01*
X49704761Y81357142D01*
X49704761Y81214285D01*
X49657142Y81119047D01*
X49609523Y81071428D01*
X49514285Y81023809D01*
X49133333Y81023809D01*
X49990476Y81547619D02*
X50561904Y81547619D01*
X50276190Y80547619D02*
X50276190Y81547619D01*
X51371428Y81547619D02*
X50895238Y81547619D01*
X50847619Y81071428D01*
X50895238Y81119047D01*
X50990476Y81166666D01*
X51228571Y81166666D01*
X51323809Y81119047D01*
X51371428Y81071428D01*
X51419047Y80976190D01*
X51419047Y80738095D01*
X51371428Y80642857D01*
X51323809Y80595238D01*
X51228571Y80547619D01*
X50990476Y80547619D01*
X50895238Y80595238D01*
X50847619Y80642857D01*
D10*
X50766666Y62850000D02*
X50700000Y62883333D01*
X50600000Y62883333D01*
X50500000Y62850000D01*
X50433333Y62783333D01*
X50400000Y62716666D01*
X50366666Y62583333D01*
X50366666Y62483333D01*
X50400000Y62350000D01*
X50433333Y62283333D01*
X50500000Y62216666D01*
X50600000Y62183333D01*
X50666666Y62183333D01*
X50766666Y62216666D01*
X50800000Y62250000D01*
X50800000Y62483333D01*
X50666666Y62483333D01*
X51100000Y62183333D02*
X51100000Y62883333D01*
X51500000Y62183333D01*
X51500000Y62883333D01*
X51833333Y62183333D02*
X51833333Y62883333D01*
X52000000Y62883333D01*
X52100000Y62850000D01*
X52166666Y62783333D01*
X52200000Y62716666D01*
X52233333Y62583333D01*
X52233333Y62483333D01*
X52200000Y62350000D01*
X52166666Y62283333D01*
X52100000Y62216666D01*
X52000000Y62183333D01*
X51833333Y62183333D01*
X50633333Y60683333D02*
X51066666Y60683333D01*
X50833333Y60416666D01*
X50933333Y60416666D01*
X51000000Y60383333D01*
X51033333Y60350000D01*
X51066666Y60283333D01*
X51066666Y60116666D01*
X51033333Y60050000D01*
X51000000Y60016666D01*
X50933333Y59983333D01*
X50733333Y59983333D01*
X50666666Y60016666D01*
X50633333Y60050000D01*
X51266666Y60683333D02*
X51500000Y59983333D01*
X51733333Y60683333D01*
X51900000Y60683333D02*
X52333333Y60683333D01*
X52100000Y60416666D01*
X52200000Y60416666D01*
X52266666Y60383333D01*
X52300000Y60350000D01*
X52333333Y60283333D01*
X52333333Y60116666D01*
X52300000Y60050000D01*
X52266666Y60016666D01*
X52200000Y59983333D01*
X52000000Y59983333D01*
X51933333Y60016666D01*
X51900000Y60050000D01*
X50566666Y58583333D02*
X50966666Y58583333D01*
X50766666Y57883333D02*
X50766666Y58583333D01*
X51133333Y58583333D02*
X51600000Y57883333D01*
X51600000Y58583333D02*
X51133333Y57883333D01*
X50983333Y64783333D02*
X50750000Y65116666D01*
X50583333Y64783333D02*
X50583333Y65483333D01*
X50850000Y65483333D01*
X50916666Y65450000D01*
X50950000Y65416666D01*
X50983333Y65350000D01*
X50983333Y65250000D01*
X50950000Y65183333D01*
X50916666Y65150000D01*
X50850000Y65116666D01*
X50583333Y65116666D01*
X51216666Y65483333D02*
X51683333Y64783333D01*
X51683333Y65483333D02*
X51216666Y64783333D01*
D11*
X48557142Y67542857D02*
X48509523Y67495238D01*
X48366666Y67447619D01*
X48271428Y67447619D01*
X48128571Y67495238D01*
X48033333Y67590476D01*
X47985714Y67685714D01*
X47938095Y67876190D01*
X47938095Y68019047D01*
X47985714Y68209523D01*
X48033333Y68304761D01*
X48128571Y68400000D01*
X48271428Y68447619D01*
X48366666Y68447619D01*
X48509523Y68400000D01*
X48557142Y68352380D01*
X48938095Y67733333D02*
X49414285Y67733333D01*
X48842857Y67447619D02*
X49176190Y68447619D01*
X49509523Y67447619D01*
X49842857Y67447619D02*
X49842857Y68447619D01*
X50414285Y67447619D01*
X50414285Y68447619D01*
D10*
X20150000Y9116666D02*
X20250000Y9083333D01*
X20416666Y9083333D01*
X20483333Y9116666D01*
X20516666Y9150000D01*
X20550000Y9216666D01*
X20550000Y9283333D01*
X20516666Y9350000D01*
X20483333Y9383333D01*
X20416666Y9416666D01*
X20283333Y9450000D01*
X20216666Y9483333D01*
X20183333Y9516666D01*
X20150000Y9583333D01*
X20150000Y9650000D01*
X20183333Y9716666D01*
X20216666Y9750000D01*
X20283333Y9783333D01*
X20450000Y9783333D01*
X20550000Y9750000D01*
X20850000Y9083333D02*
X20850000Y9783333D01*
X21016666Y9783333D01*
X21116666Y9750000D01*
X21183333Y9683333D01*
X21216666Y9616666D01*
X21250000Y9483333D01*
X21250000Y9383333D01*
X21216666Y9250000D01*
X21183333Y9183333D01*
X21116666Y9116666D01*
X21016666Y9083333D01*
X20850000Y9083333D01*
X24369047Y9450000D02*
X24585714Y9450000D01*
X24678571Y9083333D02*
X24369047Y9083333D01*
X24369047Y9783333D01*
X24678571Y9783333D01*
X24895238Y9783333D02*
X25328571Y9083333D01*
X25328571Y9783333D02*
X24895238Y9083333D01*
X25483333Y9783333D02*
X25854761Y9783333D01*
X25669047Y9083333D02*
X25669047Y9783333D01*
X26040476Y9116666D02*
X26133333Y9083333D01*
X26288095Y9083333D01*
X26350000Y9116666D01*
X26380952Y9150000D01*
X26411904Y9216666D01*
X26411904Y9283333D01*
X26380952Y9350000D01*
X26350000Y9383333D01*
X26288095Y9416666D01*
X26164285Y9450000D01*
X26102380Y9483333D01*
X26071428Y9516666D01*
X26040476Y9583333D01*
X26040476Y9650000D01*
X26071428Y9716666D01*
X26102380Y9750000D01*
X26164285Y9783333D01*
X26319047Y9783333D01*
X26411904Y9750000D01*
X26690476Y9083333D02*
X26690476Y9783333D01*
X26845238Y9783333D01*
X26938095Y9750000D01*
X27000000Y9683333D01*
X27030952Y9616666D01*
X27061904Y9483333D01*
X27061904Y9383333D01*
X27030952Y9250000D01*
X27000000Y9183333D01*
X26938095Y9116666D01*
X26845238Y9083333D01*
X26690476Y9083333D01*
X30666666Y9150000D02*
X30633333Y9116666D01*
X30533333Y9083333D01*
X30466666Y9083333D01*
X30366666Y9116666D01*
X30300000Y9183333D01*
X30266666Y9250000D01*
X30233333Y9383333D01*
X30233333Y9483333D01*
X30266666Y9616666D01*
X30300000Y9683333D01*
X30366666Y9750000D01*
X30466666Y9783333D01*
X30533333Y9783333D01*
X30633333Y9750000D01*
X30666666Y9716666D01*
X30966666Y9083333D02*
X30966666Y9783333D01*
X31366666Y9083333D02*
X31066666Y9483333D01*
X31366666Y9783333D02*
X30966666Y9383333D01*
X35366666Y9783333D02*
X35533333Y9083333D01*
X35666666Y9583333D01*
X35800000Y9083333D01*
X35966666Y9783333D01*
X36200000Y9116666D02*
X36300000Y9083333D01*
X36466666Y9083333D01*
X36533333Y9116666D01*
X36566666Y9150000D01*
X36600000Y9216666D01*
X36600000Y9283333D01*
X36566666Y9350000D01*
X36533333Y9383333D01*
X36466666Y9416666D01*
X36333333Y9450000D01*
X36266666Y9483333D01*
X36233333Y9516666D01*
X36200000Y9583333D01*
X36200000Y9650000D01*
X36233333Y9716666D01*
X36266666Y9750000D01*
X36333333Y9783333D01*
X36500000Y9783333D01*
X36600000Y9750000D01*
X38366666Y9783333D02*
X38033333Y9783333D01*
X38000000Y9450000D01*
X38033333Y9483333D01*
X38100000Y9516666D01*
X38266666Y9516666D01*
X38333333Y9483333D01*
X38366666Y9450000D01*
X38400000Y9383333D01*
X38400000Y9216666D01*
X38366666Y9150000D01*
X38333333Y9116666D01*
X38266666Y9083333D01*
X38100000Y9083333D01*
X38033333Y9116666D01*
X38000000Y9150000D01*
X38600000Y9783333D02*
X38833333Y9083333D01*
X39066666Y9783333D01*
X32866666Y9750000D02*
X32800000Y9783333D01*
X32700000Y9783333D01*
X32600000Y9750000D01*
X32533333Y9683333D01*
X32500000Y9616666D01*
X32466666Y9483333D01*
X32466666Y9383333D01*
X32500000Y9250000D01*
X32533333Y9183333D01*
X32600000Y9116666D01*
X32700000Y9083333D01*
X32766666Y9083333D01*
X32866666Y9116666D01*
X32900000Y9150000D01*
X32900000Y9383333D01*
X32766666Y9383333D01*
X33200000Y9083333D02*
X33200000Y9783333D01*
X33600000Y9083333D01*
X33600000Y9783333D01*
X33933333Y9083333D02*
X33933333Y9783333D01*
X34100000Y9783333D01*
X34200000Y9750000D01*
X34266666Y9683333D01*
X34300000Y9616666D01*
X34333333Y9483333D01*
X34333333Y9383333D01*
X34300000Y9250000D01*
X34266666Y9183333D01*
X34200000Y9116666D01*
X34100000Y9083333D01*
X33933333Y9083333D01*
X27866666Y9750000D02*
X27800000Y9783333D01*
X27700000Y9783333D01*
X27600000Y9750000D01*
X27533333Y9683333D01*
X27500000Y9616666D01*
X27466666Y9483333D01*
X27466666Y9383333D01*
X27500000Y9250000D01*
X27533333Y9183333D01*
X27600000Y9116666D01*
X27700000Y9083333D01*
X27766666Y9083333D01*
X27866666Y9116666D01*
X27900000Y9150000D01*
X27900000Y9383333D01*
X27766666Y9383333D01*
X28200000Y9083333D02*
X28200000Y9783333D01*
X28600000Y9083333D01*
X28600000Y9783333D01*
X28933333Y9083333D02*
X28933333Y9783333D01*
X29100000Y9783333D01*
X29200000Y9750000D01*
X29266666Y9683333D01*
X29300000Y9616666D01*
X29333333Y9483333D01*
X29333333Y9383333D01*
X29300000Y9250000D01*
X29266666Y9183333D01*
X29200000Y9116666D01*
X29100000Y9083333D01*
X28933333Y9083333D01*
X22466666Y9750000D02*
X22400000Y9783333D01*
X22300000Y9783333D01*
X22200000Y9750000D01*
X22133333Y9683333D01*
X22100000Y9616666D01*
X22066666Y9483333D01*
X22066666Y9383333D01*
X22100000Y9250000D01*
X22133333Y9183333D01*
X22200000Y9116666D01*
X22300000Y9083333D01*
X22366666Y9083333D01*
X22466666Y9116666D01*
X22500000Y9150000D01*
X22500000Y9383333D01*
X22366666Y9383333D01*
X22800000Y9083333D02*
X22800000Y9783333D01*
X23200000Y9083333D01*
X23200000Y9783333D01*
X23533333Y9083333D02*
X23533333Y9783333D01*
X23700000Y9783333D01*
X23800000Y9750000D01*
X23866666Y9683333D01*
X23900000Y9616666D01*
X23933333Y9483333D01*
X23933333Y9383333D01*
X23900000Y9250000D01*
X23866666Y9183333D01*
X23800000Y9116666D01*
X23700000Y9083333D01*
X23533333Y9083333D01*
D13*
X29138095Y14238095D02*
X29138095Y15038095D01*
X29480952Y14961904D02*
X29519047Y15000000D01*
X29595238Y15038095D01*
X29785714Y15038095D01*
X29861904Y15000000D01*
X29900000Y14961904D01*
X29938095Y14885714D01*
X29938095Y14809523D01*
X29900000Y14695238D01*
X29442857Y14238095D01*
X29938095Y14238095D01*
X30242857Y14276190D02*
X30357142Y14238095D01*
X30547619Y14238095D01*
X30623809Y14276190D01*
X30661904Y14314285D01*
X30700000Y14390476D01*
X30700000Y14466666D01*
X30661904Y14542857D01*
X30623809Y14580952D01*
X30547619Y14619047D01*
X30395238Y14657142D01*
X30319047Y14695238D01*
X30280952Y14733333D01*
X30242857Y14809523D01*
X30242857Y14885714D01*
X30280952Y14961904D01*
X30319047Y15000000D01*
X30395238Y15038095D01*
X30585714Y15038095D01*
X30700000Y15000000D01*
D10*
X12466666Y9650000D02*
X12400000Y9683333D01*
X12300000Y9683333D01*
X12200000Y9650000D01*
X12133333Y9583333D01*
X12100000Y9516666D01*
X12066666Y9383333D01*
X12066666Y9283333D01*
X12100000Y9150000D01*
X12133333Y9083333D01*
X12200000Y9016666D01*
X12300000Y8983333D01*
X12366666Y8983333D01*
X12466666Y9016666D01*
X12500000Y9050000D01*
X12500000Y9283333D01*
X12366666Y9283333D01*
X12800000Y8983333D02*
X12800000Y9683333D01*
X13200000Y8983333D01*
X13200000Y9683333D01*
X13533333Y8983333D02*
X13533333Y9683333D01*
X13700000Y9683333D01*
X13800000Y9650000D01*
X13866666Y9583333D01*
X13900000Y9516666D01*
X13933333Y9383333D01*
X13933333Y9283333D01*
X13900000Y9150000D01*
X13866666Y9083333D01*
X13800000Y9016666D01*
X13700000Y8983333D01*
X13533333Y8983333D01*
X9733333Y9683333D02*
X10166666Y9683333D01*
X9933333Y9416666D01*
X10033333Y9416666D01*
X10100000Y9383333D01*
X10133333Y9350000D01*
X10166666Y9283333D01*
X10166666Y9116666D01*
X10133333Y9050000D01*
X10100000Y9016666D01*
X10033333Y8983333D01*
X9833333Y8983333D01*
X9766666Y9016666D01*
X9733333Y9050000D01*
X10366666Y9683333D02*
X10600000Y8983333D01*
X10833333Y9683333D01*
X11000000Y9683333D02*
X11433333Y9683333D01*
X11200000Y9416666D01*
X11300000Y9416666D01*
X11366666Y9383333D01*
X11400000Y9350000D01*
X11433333Y9283333D01*
X11433333Y9116666D01*
X11400000Y9050000D01*
X11366666Y9016666D01*
X11300000Y8983333D01*
X11100000Y8983333D01*
X11033333Y9016666D01*
X11000000Y9050000D01*
X14766666Y9683333D02*
X14900000Y9683333D01*
X14966666Y9650000D01*
X15033333Y9583333D01*
X15066666Y9450000D01*
X15066666Y9216666D01*
X15033333Y9083333D01*
X14966666Y9016666D01*
X14900000Y8983333D01*
X14766666Y8983333D01*
X14700000Y9016666D01*
X14633333Y9083333D01*
X14600000Y9216666D01*
X14600000Y9450000D01*
X14633333Y9583333D01*
X14700000Y9650000D01*
X14766666Y9683333D01*
X15366666Y9683333D02*
X15366666Y9116666D01*
X15400000Y9050000D01*
X15433333Y9016666D01*
X15500000Y8983333D01*
X15633333Y8983333D01*
X15700000Y9016666D01*
X15733333Y9050000D01*
X15766666Y9116666D01*
X15766666Y9683333D01*
X16000000Y9683333D02*
X16400000Y9683333D01*
X16200000Y8983333D02*
X16200000Y9683333D01*
X17000000Y8983333D02*
X16600000Y8983333D01*
X16800000Y8983333D02*
X16800000Y9683333D01*
X16733333Y9583333D01*
X16666666Y9516666D01*
X16600000Y9483333D01*
X6966666Y9683333D02*
X7100000Y9683333D01*
X7166666Y9650000D01*
X7233333Y9583333D01*
X7266666Y9450000D01*
X7266666Y9216666D01*
X7233333Y9083333D01*
X7166666Y9016666D01*
X7100000Y8983333D01*
X6966666Y8983333D01*
X6900000Y9016666D01*
X6833333Y9083333D01*
X6800000Y9216666D01*
X6800000Y9450000D01*
X6833333Y9583333D01*
X6900000Y9650000D01*
X6966666Y9683333D01*
X7566666Y9683333D02*
X7566666Y9116666D01*
X7600000Y9050000D01*
X7633333Y9016666D01*
X7700000Y8983333D01*
X7833333Y8983333D01*
X7900000Y9016666D01*
X7933333Y9050000D01*
X7966666Y9116666D01*
X7966666Y9683333D01*
X8200000Y9683333D02*
X8600000Y9683333D01*
X8400000Y8983333D02*
X8400000Y9683333D01*
X8800000Y9616666D02*
X8833333Y9650000D01*
X8900000Y9683333D01*
X9066666Y9683333D01*
X9133333Y9650000D01*
X9166666Y9616666D01*
X9200000Y9550000D01*
X9200000Y9483333D01*
X9166666Y9383333D01*
X8766666Y8983333D01*
X9200000Y8983333D01*
D13*
X10747619Y13538095D02*
X10747619Y14338095D01*
X10938095Y14338095D01*
X11052380Y14300000D01*
X11128571Y14223809D01*
X11166666Y14147619D01*
X11204761Y13995238D01*
X11204761Y13880952D01*
X11166666Y13728571D01*
X11128571Y13652380D01*
X11052380Y13576190D01*
X10938095Y13538095D01*
X10747619Y13538095D01*
X11509523Y13766666D02*
X11890476Y13766666D01*
X11433333Y13538095D02*
X11700000Y14338095D01*
X11966666Y13538095D01*
X12690476Y13614285D02*
X12652380Y13576190D01*
X12538095Y13538095D01*
X12461904Y13538095D01*
X12347619Y13576190D01*
X12271428Y13652380D01*
X12233333Y13728571D01*
X12195238Y13880952D01*
X12195238Y13995238D01*
X12233333Y14147619D01*
X12271428Y14223809D01*
X12347619Y14300000D01*
X12461904Y14338095D01*
X12538095Y14338095D01*
X12652380Y14300000D01*
X12690476Y14261904D01*
D10*
X47766666Y27616666D02*
X47766666Y27283333D01*
X47533333Y27983333D02*
X47766666Y27616666D01*
X48000000Y27983333D01*
X48533333Y27750000D02*
X48533333Y27283333D01*
X48366666Y28016666D02*
X48200000Y27516666D01*
X48633333Y27516666D01*
X45366666Y27616666D02*
X45366666Y27283333D01*
X45133333Y27983333D02*
X45366666Y27616666D01*
X45600000Y27983333D01*
X45766666Y27983333D02*
X46200000Y27983333D01*
X45966666Y27716666D01*
X46066666Y27716666D01*
X46133333Y27683333D01*
X46166666Y27650000D01*
X46200000Y27583333D01*
X46200000Y27416666D01*
X46166666Y27350000D01*
X46133333Y27316666D01*
X46066666Y27283333D01*
X45866666Y27283333D01*
X45800000Y27316666D01*
X45766666Y27350000D01*
X42966666Y27716666D02*
X42966666Y27383333D01*
X42733333Y28083333D02*
X42966666Y27716666D01*
X43200000Y28083333D01*
X43400000Y28016666D02*
X43433333Y28050000D01*
X43500000Y28083333D01*
X43666666Y28083333D01*
X43733333Y28050000D01*
X43766666Y28016666D01*
X43800000Y27950000D01*
X43800000Y27883333D01*
X43766666Y27783333D01*
X43366666Y27383333D01*
X43800000Y27383333D01*
X40766666Y27716666D02*
X40766666Y27383333D01*
X40533333Y28083333D02*
X40766666Y27716666D01*
X41000000Y28083333D01*
X41600000Y27383333D02*
X41200000Y27383333D01*
X41400000Y27383333D02*
X41400000Y28083333D01*
X41333333Y27983333D01*
X41266666Y27916666D01*
X41200000Y27883333D01*
X37433333Y28083333D02*
X37900000Y27383333D01*
X37900000Y28083333D02*
X37433333Y27383333D01*
X38466666Y27850000D02*
X38466666Y27383333D01*
X38300000Y28116666D02*
X38133333Y27616666D01*
X38566666Y27616666D01*
X35033333Y28083333D02*
X35500000Y27383333D01*
X35500000Y28083333D02*
X35033333Y27383333D01*
X35700000Y28083333D02*
X36133333Y28083333D01*
X35900000Y27816666D01*
X36000000Y27816666D01*
X36066666Y27783333D01*
X36100000Y27750000D01*
X36133333Y27683333D01*
X36133333Y27516666D01*
X36100000Y27450000D01*
X36066666Y27416666D01*
X36000000Y27383333D01*
X35800000Y27383333D01*
X35733333Y27416666D01*
X35700000Y27450000D01*
X32433333Y28083333D02*
X32900000Y27383333D01*
X32900000Y28083333D02*
X32433333Y27383333D01*
X33133333Y28016666D02*
X33166666Y28050000D01*
X33233333Y28083333D01*
X33400000Y28083333D01*
X33466666Y28050000D01*
X33500000Y28016666D01*
X33533333Y27950000D01*
X33533333Y27883333D01*
X33500000Y27783333D01*
X33100000Y27383333D01*
X33533333Y27383333D01*
X29933333Y28083333D02*
X30400000Y27383333D01*
X30400000Y28083333D02*
X29933333Y27383333D01*
X31033333Y27383333D02*
X30633333Y27383333D01*
X30833333Y27383333D02*
X30833333Y28083333D01*
X30766666Y27983333D01*
X30700000Y27916666D01*
X30633333Y27883333D01*
D11*
X28328571Y29266666D02*
X28376190Y29409523D01*
X28423809Y29457142D01*
X28519047Y29504761D01*
X28661904Y29504761D01*
X28757142Y29457142D01*
X28804761Y29409523D01*
X28852380Y29314285D01*
X28852380Y28933333D01*
X27852380Y28933333D01*
X27852380Y29266666D01*
X27900000Y29361904D01*
X27947619Y29409523D01*
X28042857Y29457142D01*
X28138095Y29457142D01*
X28233333Y29409523D01*
X28280952Y29361904D01*
X28328571Y29266666D01*
X28328571Y28933333D01*
X27852380Y29790476D02*
X27852380Y30361904D01*
X28852380Y30076190D02*
X27852380Y30076190D01*
X28852380Y30695238D02*
X27852380Y30695238D01*
X28852380Y31266666D01*
X27852380Y31266666D01*
D10*
X19966666Y14683333D02*
X19966666Y15383333D01*
X20233333Y15383333D01*
X20300000Y15350000D01*
X20333333Y15316666D01*
X20366666Y15250000D01*
X20366666Y15150000D01*
X20333333Y15083333D01*
X20300000Y15050000D01*
X20233333Y15016666D01*
X19966666Y15016666D01*
X20666666Y15050000D02*
X20900000Y15050000D01*
X21000000Y14683333D02*
X20666666Y14683333D01*
X20666666Y15383333D01*
X21000000Y15383333D01*
X21600000Y15383333D02*
X21466666Y15383333D01*
X21400000Y15350000D01*
X21366666Y15316666D01*
X21300000Y15216666D01*
X21266666Y15083333D01*
X21266666Y14816666D01*
X21300000Y14750000D01*
X21333333Y14716666D01*
X21400000Y14683333D01*
X21533333Y14683333D01*
X21600000Y14716666D01*
X21633333Y14750000D01*
X21666666Y14816666D01*
X21666666Y14983333D01*
X21633333Y15050000D01*
X21600000Y15083333D01*
X21533333Y15116666D01*
X21400000Y15116666D01*
X21333333Y15083333D01*
X21300000Y15050000D01*
X21266666Y14983333D01*
X7233333Y14683333D02*
X7233333Y15383333D01*
X7500000Y15383333D01*
X7566666Y15350000D01*
X7600000Y15316666D01*
X7633333Y15250000D01*
X7633333Y15150000D01*
X7600000Y15083333D01*
X7566666Y15050000D01*
X7500000Y15016666D01*
X7233333Y15016666D01*
X8166666Y15050000D02*
X8266666Y15016666D01*
X8300000Y14983333D01*
X8333333Y14916666D01*
X8333333Y14816666D01*
X8300000Y14750000D01*
X8266666Y14716666D01*
X8200000Y14683333D01*
X7933333Y14683333D01*
X7933333Y15383333D01*
X8166666Y15383333D01*
X8233333Y15350000D01*
X8266666Y15316666D01*
X8300000Y15250000D01*
X8300000Y15183333D01*
X8266666Y15116666D01*
X8233333Y15083333D01*
X8166666Y15050000D01*
X7933333Y15050000D01*
X8666666Y14683333D02*
X8800000Y14683333D01*
X8866666Y14716666D01*
X8900000Y14750000D01*
X8966666Y14850000D01*
X9000000Y14983333D01*
X9000000Y15250000D01*
X8966666Y15316666D01*
X8933333Y15350000D01*
X8866666Y15383333D01*
X8733333Y15383333D01*
X8666666Y15350000D01*
X8633333Y15316666D01*
X8600000Y15250000D01*
X8600000Y15083333D01*
X8633333Y15016666D01*
X8666666Y14983333D01*
X8733333Y14950000D01*
X8866666Y14950000D01*
X8933333Y14983333D01*
X8966666Y15016666D01*
X9000000Y15083333D01*
X9666666Y14683333D02*
X9666666Y15383333D01*
X9933333Y15383333D01*
X10000000Y15350000D01*
X10033333Y15316666D01*
X10066666Y15250000D01*
X10066666Y15150000D01*
X10033333Y15083333D01*
X10000000Y15050000D01*
X9933333Y15016666D01*
X9666666Y15016666D01*
X10366666Y15050000D02*
X10600000Y15050000D01*
X10700000Y14683333D02*
X10366666Y14683333D01*
X10366666Y15383333D01*
X10700000Y15383333D01*
X10966666Y15316666D02*
X11000000Y15350000D01*
X11066666Y15383333D01*
X11233333Y15383333D01*
X11300000Y15350000D01*
X11333333Y15316666D01*
X11366666Y15250000D01*
X11366666Y15183333D01*
X11333333Y15083333D01*
X10933333Y14683333D01*
X11366666Y14683333D01*
X17666666Y14683333D02*
X17666666Y15383333D01*
X17933333Y15383333D01*
X18000000Y15350000D01*
X18033333Y15316666D01*
X18066666Y15250000D01*
X18066666Y15150000D01*
X18033333Y15083333D01*
X18000000Y15050000D01*
X17933333Y15016666D01*
X17666666Y15016666D01*
X18366666Y15050000D02*
X18600000Y15050000D01*
X18700000Y14683333D02*
X18366666Y14683333D01*
X18366666Y15383333D01*
X18700000Y15383333D01*
X19333333Y15383333D02*
X19000000Y15383333D01*
X18966666Y15050000D01*
X19000000Y15083333D01*
X19066666Y15116666D01*
X19233333Y15116666D01*
X19300000Y15083333D01*
X19333333Y15050000D01*
X19366666Y14983333D01*
X19366666Y14816666D01*
X19333333Y14750000D01*
X19300000Y14716666D01*
X19233333Y14683333D01*
X19066666Y14683333D01*
X19000000Y14716666D01*
X18966666Y14750000D01*
X12166666Y14683333D02*
X12166666Y15383333D01*
X12433333Y15383333D01*
X12500000Y15350000D01*
X12533333Y15316666D01*
X12566666Y15250000D01*
X12566666Y15150000D01*
X12533333Y15083333D01*
X12500000Y15050000D01*
X12433333Y15016666D01*
X12166666Y15016666D01*
X12866666Y15050000D02*
X13100000Y15050000D01*
X13200000Y14683333D02*
X12866666Y14683333D01*
X12866666Y15383333D01*
X13200000Y15383333D01*
X13433333Y15383333D02*
X13866666Y15383333D01*
X13633333Y15116666D01*
X13733333Y15116666D01*
X13800000Y15083333D01*
X13833333Y15050000D01*
X13866666Y14983333D01*
X13866666Y14816666D01*
X13833333Y14750000D01*
X13800000Y14716666D01*
X13733333Y14683333D01*
X13533333Y14683333D01*
X13466666Y14716666D01*
X13433333Y14750000D01*
X14966666Y14683333D02*
X14966666Y15383333D01*
X15233333Y15383333D01*
X15300000Y15350000D01*
X15333333Y15316666D01*
X15366666Y15250000D01*
X15366666Y15150000D01*
X15333333Y15083333D01*
X15300000Y15050000D01*
X15233333Y15016666D01*
X14966666Y15016666D01*
X15666666Y15050000D02*
X15900000Y15050000D01*
X16000000Y14683333D02*
X15666666Y14683333D01*
X15666666Y15383333D01*
X16000000Y15383333D01*
X16600000Y15150000D02*
X16600000Y14683333D01*
X16433333Y15416666D02*
X16266666Y14916666D01*
X16700000Y14916666D01*
D11*
X13500000Y20000000D02*
X13404761Y20047619D01*
X13261904Y20047619D01*
X13119047Y20000000D01*
X13023809Y19904761D01*
X12976190Y19809523D01*
X12928571Y19619047D01*
X12928571Y19476190D01*
X12976190Y19285714D01*
X13023809Y19190476D01*
X13119047Y19095238D01*
X13261904Y19047619D01*
X13357142Y19047619D01*
X13500000Y19095238D01*
X13547619Y19142857D01*
X13547619Y19476190D01*
X13357142Y19476190D01*
X13976190Y19047619D02*
X13976190Y20047619D01*
X14357142Y20047619D01*
X14452380Y20000000D01*
X14500000Y19952380D01*
X14547619Y19857142D01*
X14547619Y19714285D01*
X14500000Y19619047D01*
X14452380Y19571428D01*
X14357142Y19523809D01*
X13976190Y19523809D01*
X14976190Y19047619D02*
X14976190Y20047619D01*
X15642857Y20047619D02*
X15833333Y20047619D01*
X15928571Y20000000D01*
X16023809Y19904761D01*
X16071428Y19714285D01*
X16071428Y19380952D01*
X16023809Y19190476D01*
X15928571Y19095238D01*
X15833333Y19047619D01*
X15642857Y19047619D01*
X15547619Y19095238D01*
X15452380Y19190476D01*
X15404761Y19380952D01*
X15404761Y19714285D01*
X15452380Y19904761D01*
X15547619Y20000000D01*
X15642857Y20047619D01*
D10*
X83000000Y9683333D02*
X83000000Y10383333D01*
X83266666Y10383333D01*
X83333333Y10350000D01*
X83366666Y10316666D01*
X83400000Y10250000D01*
X83400000Y10150000D01*
X83366666Y10083333D01*
X83333333Y10050000D01*
X83266666Y10016666D01*
X83000000Y10016666D01*
X83933333Y10050000D02*
X84033333Y10016666D01*
X84066666Y9983333D01*
X84100000Y9916666D01*
X84100000Y9816666D01*
X84066666Y9750000D01*
X84033333Y9716666D01*
X83966666Y9683333D01*
X83700000Y9683333D01*
X83700000Y10383333D01*
X83933333Y10383333D01*
X84000000Y10350000D01*
X84033333Y10316666D01*
X84066666Y10250000D01*
X84066666Y10183333D01*
X84033333Y10116666D01*
X84000000Y10083333D01*
X83933333Y10050000D01*
X83700000Y10050000D01*
X84766666Y9683333D02*
X84366666Y9683333D01*
X84566666Y9683333D02*
X84566666Y10383333D01*
X84500000Y10283333D01*
X84433333Y10216666D01*
X84366666Y10183333D01*
X85366666Y10150000D02*
X85366666Y9683333D01*
X85200000Y10416666D02*
X85033333Y9916666D01*
X85466666Y9916666D01*
X78633333Y9683333D02*
X78633333Y10383333D01*
X78900000Y10383333D01*
X78966666Y10350000D01*
X79000000Y10316666D01*
X79033333Y10250000D01*
X79033333Y10150000D01*
X79000000Y10083333D01*
X78966666Y10050000D01*
X78900000Y10016666D01*
X78633333Y10016666D01*
X79333333Y10050000D02*
X79566666Y10050000D01*
X79666666Y9683333D02*
X79333333Y9683333D01*
X79333333Y10383333D01*
X79666666Y10383333D01*
X80333333Y9683333D02*
X79933333Y9683333D01*
X80133333Y9683333D02*
X80133333Y10383333D01*
X80066666Y10283333D01*
X80000000Y10216666D01*
X79933333Y10183333D01*
X80966666Y10383333D02*
X80633333Y10383333D01*
X80600000Y10050000D01*
X80633333Y10083333D01*
X80700000Y10116666D01*
X80866666Y10116666D01*
X80933333Y10083333D01*
X80966666Y10050000D01*
X81000000Y9983333D01*
X81000000Y9816666D01*
X80966666Y9750000D01*
X80933333Y9716666D01*
X80866666Y9683333D01*
X80700000Y9683333D01*
X80633333Y9716666D01*
X80600000Y9750000D01*
X75933333Y9683333D02*
X75933333Y10383333D01*
X76200000Y10383333D01*
X76266666Y10350000D01*
X76300000Y10316666D01*
X76333333Y10250000D01*
X76333333Y10150000D01*
X76300000Y10083333D01*
X76266666Y10050000D01*
X76200000Y10016666D01*
X75933333Y10016666D01*
X76633333Y10050000D02*
X76866666Y10050000D01*
X76966666Y9683333D02*
X76633333Y9683333D01*
X76633333Y10383333D01*
X76966666Y10383333D01*
X77633333Y9683333D02*
X77233333Y9683333D01*
X77433333Y9683333D02*
X77433333Y10383333D01*
X77366666Y10283333D01*
X77300000Y10216666D01*
X77233333Y10183333D01*
X78233333Y10150000D02*
X78233333Y9683333D01*
X78066666Y10416666D02*
X77900000Y9916666D01*
X78333333Y9916666D01*
X73133333Y9683333D02*
X73133333Y10383333D01*
X73400000Y10383333D01*
X73466666Y10350000D01*
X73500000Y10316666D01*
X73533333Y10250000D01*
X73533333Y10150000D01*
X73500000Y10083333D01*
X73466666Y10050000D01*
X73400000Y10016666D01*
X73133333Y10016666D01*
X73833333Y10050000D02*
X74066666Y10050000D01*
X74166666Y9683333D02*
X73833333Y9683333D01*
X73833333Y10383333D01*
X74166666Y10383333D01*
X74833333Y9683333D02*
X74433333Y9683333D01*
X74633333Y9683333D02*
X74633333Y10383333D01*
X74566666Y10283333D01*
X74500000Y10216666D01*
X74433333Y10183333D01*
X75066666Y10383333D02*
X75500000Y10383333D01*
X75266666Y10116666D01*
X75366666Y10116666D01*
X75433333Y10083333D01*
X75466666Y10050000D01*
X75500000Y9983333D01*
X75500000Y9816666D01*
X75466666Y9750000D01*
X75433333Y9716666D01*
X75366666Y9683333D01*
X75166666Y9683333D01*
X75100000Y9716666D01*
X75066666Y9750000D01*
X70333333Y9683333D02*
X70333333Y10383333D01*
X70600000Y10383333D01*
X70666666Y10350000D01*
X70700000Y10316666D01*
X70733333Y10250000D01*
X70733333Y10150000D01*
X70700000Y10083333D01*
X70666666Y10050000D01*
X70600000Y10016666D01*
X70333333Y10016666D01*
X71033333Y10050000D02*
X71266666Y10050000D01*
X71366666Y9683333D02*
X71033333Y9683333D01*
X71033333Y10383333D01*
X71366666Y10383333D01*
X72033333Y9683333D02*
X71633333Y9683333D01*
X71833333Y9683333D02*
X71833333Y10383333D01*
X71766666Y10283333D01*
X71700000Y10216666D01*
X71633333Y10183333D01*
X72300000Y10316666D02*
X72333333Y10350000D01*
X72400000Y10383333D01*
X72566666Y10383333D01*
X72633333Y10350000D01*
X72666666Y10316666D01*
X72700000Y10250000D01*
X72700000Y10183333D01*
X72666666Y10083333D01*
X72266666Y9683333D01*
X72700000Y9683333D01*
D11*
X81652380Y14047619D02*
X81652380Y15047619D01*
X82033333Y15047619D01*
X82128571Y15000000D01*
X82176190Y14952380D01*
X82223809Y14857142D01*
X82223809Y14714285D01*
X82176190Y14619047D01*
X82128571Y14571428D01*
X82033333Y14523809D01*
X81652380Y14523809D01*
X82842857Y15047619D02*
X83033333Y15047619D01*
X83128571Y15000000D01*
X83223809Y14904761D01*
X83271428Y14714285D01*
X83271428Y14380952D01*
X83223809Y14190476D01*
X83128571Y14095238D01*
X83033333Y14047619D01*
X82842857Y14047619D01*
X82747619Y14095238D01*
X82652380Y14190476D01*
X82604761Y14380952D01*
X82604761Y14714285D01*
X82652380Y14904761D01*
X82747619Y15000000D01*
X82842857Y15047619D01*
X84271428Y14047619D02*
X83938095Y14523809D01*
X83700000Y14047619D02*
X83700000Y15047619D01*
X84080952Y15047619D01*
X84176190Y15000000D01*
X84223809Y14952380D01*
X84271428Y14857142D01*
X84271428Y14714285D01*
X84223809Y14619047D01*
X84176190Y14571428D01*
X84080952Y14523809D01*
X83700000Y14523809D01*
X84557142Y15047619D02*
X85128571Y15047619D01*
X84842857Y14047619D02*
X84842857Y15047619D01*
X86557142Y14571428D02*
X86700000Y14523809D01*
X86747619Y14476190D01*
X86795238Y14380952D01*
X86795238Y14238095D01*
X86747619Y14142857D01*
X86700000Y14095238D01*
X86604761Y14047619D01*
X86223809Y14047619D01*
X86223809Y15047619D01*
X86557142Y15047619D01*
X86652380Y15000000D01*
X86700000Y14952380D01*
X86747619Y14857142D01*
X86747619Y14761904D01*
X86700000Y14666666D01*
X86652380Y14619047D01*
X86557142Y14571428D01*
X86223809Y14571428D01*
X70880952Y15000000D02*
X70785714Y15047619D01*
X70642857Y15047619D01*
X70500000Y15000000D01*
X70404761Y14904761D01*
X70357142Y14809523D01*
X70309523Y14619047D01*
X70309523Y14476190D01*
X70357142Y14285714D01*
X70404761Y14190476D01*
X70500000Y14095238D01*
X70642857Y14047619D01*
X70738095Y14047619D01*
X70880952Y14095238D01*
X70928571Y14142857D01*
X70928571Y14476190D01*
X70738095Y14476190D01*
X71357142Y14047619D02*
X71357142Y15047619D01*
X71738095Y15047619D01*
X71833333Y15000000D01*
X71880952Y14952380D01*
X71928571Y14857142D01*
X71928571Y14714285D01*
X71880952Y14619047D01*
X71833333Y14571428D01*
X71738095Y14523809D01*
X71357142Y14523809D01*
X72357142Y14047619D02*
X72357142Y15047619D01*
X73023809Y15047619D02*
X73214285Y15047619D01*
X73309523Y15000000D01*
X73404761Y14904761D01*
X73452380Y14714285D01*
X73452380Y14380952D01*
X73404761Y14190476D01*
X73309523Y14095238D01*
X73214285Y14047619D01*
X73023809Y14047619D01*
X72928571Y14095238D01*
X72833333Y14190476D01*
X72785714Y14380952D01*
X72785714Y14714285D01*
X72833333Y14904761D01*
X72928571Y15000000D01*
X73023809Y15047619D01*
X74642857Y14047619D02*
X74642857Y15047619D01*
X75023809Y15047619D01*
X75119047Y15000000D01*
X75166666Y14952380D01*
X75214285Y14857142D01*
X75214285Y14714285D01*
X75166666Y14619047D01*
X75119047Y14571428D01*
X75023809Y14523809D01*
X74642857Y14523809D01*
X75833333Y15047619D02*
X76023809Y15047619D01*
X76119047Y15000000D01*
X76214285Y14904761D01*
X76261904Y14714285D01*
X76261904Y14380952D01*
X76214285Y14190476D01*
X76119047Y14095238D01*
X76023809Y14047619D01*
X75833333Y14047619D01*
X75738095Y14095238D01*
X75642857Y14190476D01*
X75595238Y14380952D01*
X75595238Y14714285D01*
X75642857Y14904761D01*
X75738095Y15000000D01*
X75833333Y15047619D01*
X77261904Y14047619D02*
X76928571Y14523809D01*
X76690476Y14047619D02*
X76690476Y15047619D01*
X77071428Y15047619D01*
X77166666Y15000000D01*
X77214285Y14952380D01*
X77261904Y14857142D01*
X77261904Y14714285D01*
X77214285Y14619047D01*
X77166666Y14571428D01*
X77071428Y14523809D01*
X76690476Y14523809D01*
X77547619Y15047619D02*
X78119047Y15047619D01*
X77833333Y14047619D02*
X77833333Y15047619D01*
X79214285Y14571428D02*
X79547619Y14571428D01*
X79690476Y14047619D02*
X79214285Y14047619D01*
X79214285Y15047619D01*
X79690476Y15047619D01*
D10*
X66466666Y10483333D02*
X66133333Y10483333D01*
X66100000Y10150000D01*
X66133333Y10183333D01*
X66200000Y10216666D01*
X66366666Y10216666D01*
X66433333Y10183333D01*
X66466666Y10150000D01*
X66500000Y10083333D01*
X66500000Y9916666D01*
X66466666Y9850000D01*
X66433333Y9816666D01*
X66366666Y9783333D01*
X66200000Y9783333D01*
X66133333Y9816666D01*
X66100000Y9850000D01*
X66700000Y10483333D02*
X66933333Y9783333D01*
X67166666Y10483333D01*
X62816666Y9783333D02*
X62816666Y10483333D01*
X62983333Y10483333D01*
X63083333Y10450000D01*
X63150000Y10383333D01*
X63183333Y10316666D01*
X63216666Y10183333D01*
X63216666Y10083333D01*
X63183333Y9950000D01*
X63150000Y9883333D01*
X63083333Y9816666D01*
X62983333Y9783333D01*
X62816666Y9783333D01*
X63650000Y10483333D02*
X63783333Y10483333D01*
X63850000Y10450000D01*
X63916666Y10383333D01*
X63950000Y10250000D01*
X63950000Y10016666D01*
X63916666Y9883333D01*
X63850000Y9816666D01*
X63783333Y9783333D01*
X63650000Y9783333D01*
X63583333Y9816666D01*
X63516666Y9883333D01*
X63483333Y10016666D01*
X63483333Y10250000D01*
X63516666Y10383333D01*
X63583333Y10450000D01*
X63650000Y10483333D01*
X64250000Y10483333D02*
X64250000Y9916666D01*
X64283333Y9850000D01*
X64316666Y9816666D01*
X64383333Y9783333D01*
X64516666Y9783333D01*
X64583333Y9816666D01*
X64616666Y9850000D01*
X64650000Y9916666D01*
X64650000Y10483333D01*
X64883333Y10483333D02*
X65283333Y10483333D01*
X65083333Y9783333D02*
X65083333Y10483333D01*
X60666666Y10450000D02*
X60600000Y10483333D01*
X60500000Y10483333D01*
X60400000Y10450000D01*
X60333333Y10383333D01*
X60300000Y10316666D01*
X60266666Y10183333D01*
X60266666Y10083333D01*
X60300000Y9950000D01*
X60333333Y9883333D01*
X60400000Y9816666D01*
X60500000Y9783333D01*
X60566666Y9783333D01*
X60666666Y9816666D01*
X60700000Y9850000D01*
X60700000Y10083333D01*
X60566666Y10083333D01*
X61000000Y9783333D02*
X61000000Y10483333D01*
X61400000Y9783333D01*
X61400000Y10483333D01*
X61733333Y9783333D02*
X61733333Y10483333D01*
X61900000Y10483333D01*
X62000000Y10450000D01*
X62066666Y10383333D01*
X62100000Y10316666D01*
X62133333Y10183333D01*
X62133333Y10083333D01*
X62100000Y9950000D01*
X62066666Y9883333D01*
X62000000Y9816666D01*
X61900000Y9783333D01*
X61733333Y9783333D01*
X58300000Y10250000D02*
X58300000Y9783333D01*
X58133333Y10516666D02*
X57966666Y10016666D01*
X58400000Y10016666D01*
X58566666Y10483333D02*
X58800000Y9783333D01*
X59033333Y10483333D01*
X59200000Y10483333D02*
X59633333Y10483333D01*
X59400000Y10216666D01*
X59500000Y10216666D01*
X59566666Y10183333D01*
X59600000Y10150000D01*
X59633333Y10083333D01*
X59633333Y9916666D01*
X59600000Y9850000D01*
X59566666Y9816666D01*
X59500000Y9783333D01*
X59300000Y9783333D01*
X59233333Y9816666D01*
X59200000Y9850000D01*
D11*
X59033333Y14747619D02*
X59271428Y13747619D01*
X59461904Y14461904D01*
X59652380Y13747619D01*
X59890476Y14747619D01*
X60223809Y13795238D02*
X60366666Y13747619D01*
X60604761Y13747619D01*
X60700000Y13795238D01*
X60747619Y13842857D01*
X60795238Y13938095D01*
X60795238Y14033333D01*
X60747619Y14128571D01*
X60700000Y14176190D01*
X60604761Y14223809D01*
X60414285Y14271428D01*
X60319047Y14319047D01*
X60271428Y14366666D01*
X60223809Y14461904D01*
X60223809Y14557142D01*
X60271428Y14652380D01*
X60319047Y14700000D01*
X60414285Y14747619D01*
X60652380Y14747619D01*
X60795238Y14700000D01*
X61176190Y14652380D02*
X61223809Y14700000D01*
X61319047Y14747619D01*
X61557142Y14747619D01*
X61652380Y14700000D01*
X61700000Y14652380D01*
X61747619Y14557142D01*
X61747619Y14461904D01*
X61700000Y14319047D01*
X61128571Y13747619D01*
X61747619Y13747619D01*
X62319047Y14319047D02*
X62223809Y14366666D01*
X62176190Y14414285D01*
X62128571Y14509523D01*
X62128571Y14557142D01*
X62176190Y14652380D01*
X62223809Y14700000D01*
X62319047Y14747619D01*
X62509523Y14747619D01*
X62604761Y14700000D01*
X62652380Y14652380D01*
X62700000Y14557142D01*
X62700000Y14509523D01*
X62652380Y14414285D01*
X62604761Y14366666D01*
X62509523Y14319047D01*
X62319047Y14319047D01*
X62223809Y14271428D01*
X62176190Y14223809D01*
X62128571Y14128571D01*
X62128571Y13938095D01*
X62176190Y13842857D01*
X62223809Y13795238D01*
X62319047Y13747619D01*
X62509523Y13747619D01*
X62604761Y13795238D01*
X62652380Y13842857D01*
X62700000Y13938095D01*
X62700000Y14128571D01*
X62652380Y14223809D01*
X62604761Y14271428D01*
X62509523Y14319047D01*
X63652380Y13747619D02*
X63080952Y13747619D01*
X63366666Y13747619D02*
X63366666Y14747619D01*
X63271428Y14604761D01*
X63176190Y14509523D01*
X63080952Y14461904D01*
X64033333Y14652380D02*
X64080952Y14700000D01*
X64176190Y14747619D01*
X64414285Y14747619D01*
X64509523Y14700000D01*
X64557142Y14652380D01*
X64604761Y14557142D01*
X64604761Y14461904D01*
X64557142Y14319047D01*
X63985714Y13747619D01*
X64604761Y13747619D01*
X64795238Y13652380D02*
X65557142Y13652380D01*
X65747619Y14652380D02*
X65795238Y14700000D01*
X65890476Y14747619D01*
X66128571Y14747619D01*
X66223809Y14700000D01*
X66271428Y14652380D01*
X66319047Y14557142D01*
X66319047Y14461904D01*
X66271428Y14319047D01*
X65700000Y13747619D01*
X66319047Y13747619D01*
D10*
X88000000Y23430000D02*
X89200000Y23430000D01*
X88070000Y20830000D02*
X89200000Y20830000D01*
X57470000Y20830000D02*
X55700000Y20830000D01*
D14*
X70207142Y30480952D02*
X70278571Y30666666D01*
X70278571Y30976190D01*
X70207142Y31100000D01*
X70135714Y31161904D01*
X69992857Y31223809D01*
X69850000Y31223809D01*
X69707142Y31161904D01*
X69635714Y31100000D01*
X69564285Y30976190D01*
X69492857Y30728571D01*
X69421428Y30604761D01*
X69350000Y30542857D01*
X69207142Y30480952D01*
X69064285Y30480952D01*
X68921428Y30542857D01*
X68850000Y30604761D01*
X68778571Y30728571D01*
X68778571Y31038095D01*
X68850000Y31223809D01*
X68778571Y31595238D02*
X68778571Y32338095D01*
X70278571Y31966666D02*
X68778571Y31966666D01*
X69850000Y32709523D02*
X69850000Y33328571D01*
X70278571Y32585714D02*
X68778571Y33019047D01*
X70278571Y33452380D01*
X68778571Y33700000D02*
X68778571Y34442857D01*
X70278571Y34071428D02*
X68778571Y34071428D01*
X68778571Y34876190D02*
X69992857Y34876190D01*
X70135714Y34938095D01*
X70207142Y35000000D01*
X70278571Y35123809D01*
X70278571Y35371428D01*
X70207142Y35495238D01*
X70135714Y35557142D01*
X69992857Y35619047D01*
X68778571Y35619047D01*
X70207142Y36176190D02*
X70278571Y36361904D01*
X70278571Y36671428D01*
X70207142Y36795238D01*
X70135714Y36857142D01*
X69992857Y36919047D01*
X69850000Y36919047D01*
X69707142Y36857142D01*
X69635714Y36795238D01*
X69564285Y36671428D01*
X69492857Y36423809D01*
X69421428Y36300000D01*
X69350000Y36238095D01*
X69207142Y36176190D01*
X69064285Y36176190D01*
X68921428Y36238095D01*
X68850000Y36300000D01*
X68778571Y36423809D01*
X68778571Y36733333D01*
X68850000Y36919047D01*
D10*
X88400000Y21490476D02*
X88361904Y21414285D01*
X88361904Y21300000D01*
X88400000Y21185714D01*
X88476190Y21109523D01*
X88552380Y21071428D01*
X88704761Y21033333D01*
X88819047Y21033333D01*
X88971428Y21071428D01*
X89047619Y21109523D01*
X89123809Y21185714D01*
X89161904Y21300000D01*
X89161904Y21376190D01*
X89123809Y21490476D01*
X89085714Y21528571D01*
X88819047Y21528571D01*
X88819047Y21376190D01*
X89161904Y21871428D02*
X88361904Y21871428D01*
X89161904Y22328571D01*
X88361904Y22328571D01*
X89161904Y22709523D02*
X88361904Y22709523D01*
X88361904Y22900000D01*
X88400000Y23014285D01*
X88476190Y23090476D01*
X88552380Y23128571D01*
X88704761Y23166666D01*
X88819047Y23166666D01*
X88971428Y23128571D01*
X89047619Y23090476D01*
X89123809Y23014285D01*
X89161904Y22900000D01*
X89161904Y22709523D01*
D11*
X89352380Y15509523D02*
X88352380Y15509523D01*
X88352380Y15890476D01*
X88400000Y15985714D01*
X88447619Y16033333D01*
X88542857Y16080952D01*
X88685714Y16080952D01*
X88780952Y16033333D01*
X88828571Y15985714D01*
X88876190Y15890476D01*
X88876190Y15509523D01*
X89352380Y17080952D02*
X88876190Y16747619D01*
X89352380Y16509523D02*
X88352380Y16509523D01*
X88352380Y16890476D01*
X88400000Y16985714D01*
X88447619Y17033333D01*
X88542857Y17080952D01*
X88685714Y17080952D01*
X88780952Y17033333D01*
X88828571Y16985714D01*
X88876190Y16890476D01*
X88876190Y16509523D01*
X88352380Y17700000D02*
X88352380Y17890476D01*
X88400000Y17985714D01*
X88495238Y18080952D01*
X88685714Y18128571D01*
X89019047Y18128571D01*
X89209523Y18080952D01*
X89304761Y17985714D01*
X89352380Y17890476D01*
X89352380Y17700000D01*
X89304761Y17604761D01*
X89209523Y17509523D01*
X89019047Y17461904D01*
X88685714Y17461904D01*
X88495238Y17509523D01*
X88400000Y17604761D01*
X88352380Y17700000D01*
X88352380Y18414285D02*
X88352380Y18985714D01*
X89352380Y18700000D02*
X88352380Y18700000D01*
X88352380Y19509523D02*
X88352380Y19700000D01*
X88400000Y19795238D01*
X88495238Y19890476D01*
X88685714Y19938095D01*
X89019047Y19938095D01*
X89209523Y19890476D01*
X89304761Y19795238D01*
X89352380Y19700000D01*
X89352380Y19509523D01*
X89304761Y19414285D01*
X89209523Y19319047D01*
X89019047Y19271428D01*
X88685714Y19271428D01*
X88495238Y19319047D01*
X88400000Y19414285D01*
X88352380Y19509523D01*
X57152380Y15509523D02*
X56152380Y15509523D01*
X56152380Y15890476D01*
X56200000Y15985714D01*
X56247619Y16033333D01*
X56342857Y16080952D01*
X56485714Y16080952D01*
X56580952Y16033333D01*
X56628571Y15985714D01*
X56676190Y15890476D01*
X56676190Y15509523D01*
X57152380Y17080952D02*
X56676190Y16747619D01*
X57152380Y16509523D02*
X56152380Y16509523D01*
X56152380Y16890476D01*
X56200000Y16985714D01*
X56247619Y17033333D01*
X56342857Y17080952D01*
X56485714Y17080952D01*
X56580952Y17033333D01*
X56628571Y16985714D01*
X56676190Y16890476D01*
X56676190Y16509523D01*
X56152380Y17700000D02*
X56152380Y17890476D01*
X56200000Y17985714D01*
X56295238Y18080952D01*
X56485714Y18128571D01*
X56819047Y18128571D01*
X57009523Y18080952D01*
X57104761Y17985714D01*
X57152380Y17890476D01*
X57152380Y17700000D01*
X57104761Y17604761D01*
X57009523Y17509523D01*
X56819047Y17461904D01*
X56485714Y17461904D01*
X56295238Y17509523D01*
X56200000Y17604761D01*
X56152380Y17700000D01*
X56152380Y18414285D02*
X56152380Y18985714D01*
X57152380Y18700000D02*
X56152380Y18700000D01*
X56152380Y19509523D02*
X56152380Y19700000D01*
X56200000Y19795238D01*
X56295238Y19890476D01*
X56485714Y19938095D01*
X56819047Y19938095D01*
X57009523Y19890476D01*
X57104761Y19795238D01*
X57152380Y19700000D01*
X57152380Y19509523D01*
X57104761Y19414285D01*
X57009523Y19319047D01*
X56819047Y19271428D01*
X56485714Y19271428D01*
X56295238Y19319047D01*
X56200000Y19414285D01*
X56152380Y19509523D01*
X57152380Y21323809D02*
X56152380Y21323809D01*
X56247619Y21752380D02*
X56200000Y21800000D01*
X56152380Y21895238D01*
X56152380Y22133333D01*
X56200000Y22228571D01*
X56247619Y22276190D01*
X56342857Y22323809D01*
X56438095Y22323809D01*
X56580952Y22276190D01*
X57152380Y21704761D01*
X57152380Y22323809D01*
X57057142Y23323809D02*
X57104761Y23276190D01*
X57152380Y23133333D01*
X57152380Y23038095D01*
X57104761Y22895238D01*
X57009523Y22800000D01*
X56914285Y22752380D01*
X56723809Y22704761D01*
X56580952Y22704761D01*
X56390476Y22752380D01*
X56295238Y22800000D01*
X56200000Y22895238D01*
X56152380Y23038095D01*
X56152380Y23133333D01*
X56200000Y23276190D01*
X56247619Y23323809D01*
D10*
X58266666Y23716666D02*
X58366666Y23683333D01*
X58533333Y23683333D01*
X58600000Y23716666D01*
X58633333Y23750000D01*
X58666666Y23816666D01*
X58666666Y23883333D01*
X58633333Y23950000D01*
X58600000Y23983333D01*
X58533333Y24016666D01*
X58400000Y24050000D01*
X58333333Y24083333D01*
X58300000Y24116666D01*
X58266666Y24183333D01*
X58266666Y24250000D01*
X58300000Y24316666D01*
X58333333Y24350000D01*
X58400000Y24383333D01*
X58566666Y24383333D01*
X58666666Y24350000D01*
X59366666Y23750000D02*
X59333333Y23716666D01*
X59233333Y23683333D01*
X59166666Y23683333D01*
X59066666Y23716666D01*
X59000000Y23783333D01*
X58966666Y23850000D01*
X58933333Y23983333D01*
X58933333Y24083333D01*
X58966666Y24216666D01*
X59000000Y24283333D01*
X59066666Y24350000D01*
X59166666Y24383333D01*
X59233333Y24383333D01*
X59333333Y24350000D01*
X59366666Y24316666D01*
X60000000Y23683333D02*
X59666666Y23683333D01*
X59666666Y24383333D01*
X65550000Y23716666D02*
X65650000Y23683333D01*
X65816666Y23683333D01*
X65883333Y23716666D01*
X65916666Y23750000D01*
X65950000Y23816666D01*
X65950000Y23883333D01*
X65916666Y23950000D01*
X65883333Y23983333D01*
X65816666Y24016666D01*
X65683333Y24050000D01*
X65616666Y24083333D01*
X65583333Y24116666D01*
X65550000Y24183333D01*
X65550000Y24250000D01*
X65583333Y24316666D01*
X65616666Y24350000D01*
X65683333Y24383333D01*
X65850000Y24383333D01*
X65950000Y24350000D01*
X66250000Y23683333D02*
X66250000Y24383333D01*
X66416666Y24383333D01*
X66516666Y24350000D01*
X66583333Y24283333D01*
X66616666Y24216666D01*
X66650000Y24083333D01*
X66650000Y23983333D01*
X66616666Y23850000D01*
X66583333Y23783333D01*
X66516666Y23716666D01*
X66416666Y23683333D01*
X66250000Y23683333D01*
X66916666Y23883333D02*
X67250000Y23883333D01*
X66850000Y23683333D02*
X67083333Y24383333D01*
X67316666Y23683333D01*
X62933333Y24383333D02*
X63366666Y24383333D01*
X63133333Y24116666D01*
X63233333Y24116666D01*
X63300000Y24083333D01*
X63333333Y24050000D01*
X63366666Y23983333D01*
X63366666Y23816666D01*
X63333333Y23750000D01*
X63300000Y23716666D01*
X63233333Y23683333D01*
X63033333Y23683333D01*
X62966666Y23716666D01*
X62933333Y23750000D01*
X63566666Y24383333D02*
X63800000Y23683333D01*
X64033333Y24383333D01*
X64200000Y24383333D02*
X64633333Y24383333D01*
X64400000Y24116666D01*
X64500000Y24116666D01*
X64566666Y24083333D01*
X64600000Y24050000D01*
X64633333Y23983333D01*
X64633333Y23816666D01*
X64600000Y23750000D01*
X64566666Y23716666D01*
X64500000Y23683333D01*
X64300000Y23683333D01*
X64233333Y23716666D01*
X64200000Y23750000D01*
X60866666Y24350000D02*
X60800000Y24383333D01*
X60700000Y24383333D01*
X60600000Y24350000D01*
X60533333Y24283333D01*
X60500000Y24216666D01*
X60466666Y24083333D01*
X60466666Y23983333D01*
X60500000Y23850000D01*
X60533333Y23783333D01*
X60600000Y23716666D01*
X60700000Y23683333D01*
X60766666Y23683333D01*
X60866666Y23716666D01*
X60900000Y23750000D01*
X60900000Y23983333D01*
X60766666Y23983333D01*
X61200000Y23683333D02*
X61200000Y24383333D01*
X61600000Y23683333D01*
X61600000Y24383333D01*
X61933333Y23683333D02*
X61933333Y24383333D01*
X62100000Y24383333D01*
X62200000Y24350000D01*
X62266666Y24283333D01*
X62300000Y24216666D01*
X62333333Y24083333D01*
X62333333Y23983333D01*
X62300000Y23850000D01*
X62266666Y23783333D01*
X62200000Y23716666D01*
X62100000Y23683333D01*
X61933333Y23683333D01*
X71500000Y21590476D02*
X71461904Y21514285D01*
X71461904Y21400000D01*
X71500000Y21285714D01*
X71576190Y21209523D01*
X71652380Y21171428D01*
X71804761Y21133333D01*
X71919047Y21133333D01*
X72071428Y21171428D01*
X72147619Y21209523D01*
X72223809Y21285714D01*
X72261904Y21400000D01*
X72261904Y21476190D01*
X72223809Y21590476D01*
X72185714Y21628571D01*
X71919047Y21628571D01*
X71919047Y21476190D01*
X72261904Y21971428D02*
X71461904Y21971428D01*
X72261904Y22428571D01*
X71461904Y22428571D01*
X72261904Y22809523D02*
X71461904Y22809523D01*
X71461904Y23000000D01*
X71500000Y23114285D01*
X71576190Y23190476D01*
X71652380Y23228571D01*
X71804761Y23266666D01*
X71919047Y23266666D01*
X72071428Y23228571D01*
X72147619Y23190476D01*
X72223809Y23114285D01*
X72261904Y23000000D01*
X72261904Y22809523D01*
X88000000Y23430000D02*
X88900000Y23430000D01*
X72710000Y23430000D02*
X70500000Y23430000D01*
D15*
X83714285Y27921428D02*
X83000000Y27921428D01*
X82928571Y27207142D01*
X83000000Y27278571D01*
X83142857Y27350000D01*
X83500000Y27350000D01*
X83642857Y27278571D01*
X83714285Y27207142D01*
X83785714Y27064285D01*
X83785714Y26707142D01*
X83714285Y26564285D01*
X83642857Y26492857D01*
X83500000Y26421428D01*
X83142857Y26421428D01*
X83000000Y26492857D01*
X82928571Y26564285D01*
X84214285Y27921428D02*
X84714285Y26421428D01*
X85214285Y27921428D01*
X74742857Y27921428D02*
X75671428Y27921428D01*
X75171428Y27350000D01*
X75385714Y27350000D01*
X75528571Y27278571D01*
X75600000Y27207142D01*
X75671428Y27064285D01*
X75671428Y26707142D01*
X75600000Y26564285D01*
X75528571Y26492857D01*
X75385714Y26421428D01*
X74957142Y26421428D01*
X74814285Y26492857D01*
X74742857Y26564285D01*
X76100000Y27921428D02*
X76600000Y26421428D01*
X77100000Y27921428D01*
X77457142Y27921428D02*
X78385714Y27921428D01*
X77885714Y27350000D01*
X78100000Y27350000D01*
X78242857Y27278571D01*
X78314285Y27207142D01*
X78385714Y27064285D01*
X78385714Y26707142D01*
X78314285Y26564285D01*
X78242857Y26492857D01*
X78100000Y26421428D01*
X77671428Y26421428D01*
X77528571Y26492857D01*
X77457142Y26564285D01*
D10*
X80300000Y26000000D02*
X80300000Y27500000D01*
X80300000Y23430000D02*
X88000000Y23430000D01*
X80300000Y23430000D02*
X80300000Y26000000D01*
X72710000Y23430000D02*
X80300000Y23430000D01*
D14*
X81492857Y30790476D02*
X81492857Y31223809D01*
X82278571Y31409523D02*
X82278571Y30790476D01*
X80778571Y30790476D01*
X80778571Y31409523D01*
X82278571Y32709523D02*
X81564285Y32276190D01*
X82278571Y31966666D02*
X80778571Y31966666D01*
X80778571Y32461904D01*
X80850000Y32585714D01*
X80921428Y32647619D01*
X81064285Y32709523D01*
X81278571Y32709523D01*
X81421428Y32647619D01*
X81492857Y32585714D01*
X81564285Y32461904D01*
X81564285Y31966666D01*
X82278571Y34009523D02*
X81564285Y33576190D01*
X82278571Y33266666D02*
X80778571Y33266666D01*
X80778571Y33761904D01*
X80850000Y33885714D01*
X80921428Y33947619D01*
X81064285Y34009523D01*
X81278571Y34009523D01*
X81421428Y33947619D01*
X81492857Y33885714D01*
X81564285Y33761904D01*
X81564285Y33266666D01*
X80778571Y34814285D02*
X80778571Y35061904D01*
X80850000Y35185714D01*
X80992857Y35309523D01*
X81278571Y35371428D01*
X81778571Y35371428D01*
X82064285Y35309523D01*
X82207142Y35185714D01*
X82278571Y35061904D01*
X82278571Y34814285D01*
X82207142Y34690476D01*
X82064285Y34566666D01*
X81778571Y34504761D01*
X81278571Y34504761D01*
X80992857Y34566666D01*
X80850000Y34690476D01*
X80778571Y34814285D01*
X82278571Y36671428D02*
X81564285Y36238095D01*
X82278571Y35928571D02*
X80778571Y35928571D01*
X80778571Y36423809D01*
X80850000Y36547619D01*
X80921428Y36609523D01*
X81064285Y36671428D01*
X81278571Y36671428D01*
X81421428Y36609523D01*
X81492857Y36547619D01*
X81564285Y36423809D01*
X81564285Y35928571D01*
X76778571Y30509523D02*
X76778571Y31252380D01*
X78278571Y30880952D02*
X76778571Y30880952D01*
X76778571Y31561904D02*
X78278571Y32428571D01*
X76778571Y32428571D02*
X78278571Y31561904D01*
X74278571Y31283333D02*
X73564285Y30850000D01*
X74278571Y30540476D02*
X72778571Y30540476D01*
X72778571Y31035714D01*
X72850000Y31159523D01*
X72921428Y31221428D01*
X73064285Y31283333D01*
X73278571Y31283333D01*
X73421428Y31221428D01*
X73492857Y31159523D01*
X73564285Y31035714D01*
X73564285Y30540476D01*
X72778571Y31716666D02*
X74278571Y32583333D01*
X72778571Y32583333D02*
X74278571Y31716666D01*
D15*
X4678571Y63921428D02*
X3964285Y63421428D01*
X4678571Y63064285D02*
X3178571Y63064285D01*
X3178571Y63635714D01*
X3250000Y63778571D01*
X3321428Y63850000D01*
X3464285Y63921428D01*
X3678571Y63921428D01*
X3821428Y63850000D01*
X3892857Y63778571D01*
X3964285Y63635714D01*
X3964285Y63064285D01*
X3892857Y64564285D02*
X3892857Y65064285D01*
X4678571Y65278571D02*
X4678571Y64564285D01*
X3178571Y64564285D01*
X3178571Y65278571D01*
X4607142Y65850000D02*
X4678571Y66064285D01*
X4678571Y66421428D01*
X4607142Y66564285D01*
X4535714Y66635714D01*
X4392857Y66707142D01*
X4250000Y66707142D01*
X4107142Y66635714D01*
X4035714Y66564285D01*
X3964285Y66421428D01*
X3892857Y66135714D01*
X3821428Y65992857D01*
X3750000Y65921428D01*
X3607142Y65850000D01*
X3464285Y65850000D01*
X3321428Y65921428D01*
X3250000Y65992857D01*
X3178571Y66135714D01*
X3178571Y66492857D01*
X3250000Y66707142D01*
X3892857Y67350000D02*
X3892857Y67850000D01*
X4678571Y68064285D02*
X4678571Y67350000D01*
X3178571Y67350000D01*
X3178571Y68064285D01*
X3178571Y68492857D02*
X3178571Y69350000D01*
X4678571Y68921428D02*
X3178571Y68921428D01*
X17947857Y65507142D02*
X18162142Y65435714D01*
X18233571Y65364285D01*
X18305000Y65221428D01*
X18305000Y65007142D01*
X18233571Y64864285D01*
X18162142Y64792857D01*
X18019285Y64721428D01*
X17447857Y64721428D01*
X17447857Y66221428D01*
X17947857Y66221428D01*
X18090714Y66150000D01*
X18162142Y66078571D01*
X18233571Y65935714D01*
X18233571Y65792857D01*
X18162142Y65650000D01*
X18090714Y65578571D01*
X17947857Y65507142D01*
X17447857Y65507142D01*
X19233571Y66221428D02*
X19519285Y66221428D01*
X19662142Y66150000D01*
X19805000Y66007142D01*
X19876428Y65721428D01*
X19876428Y65221428D01*
X19805000Y64935714D01*
X19662142Y64792857D01*
X19519285Y64721428D01*
X19233571Y64721428D01*
X19090714Y64792857D01*
X18947857Y64935714D01*
X18876428Y65221428D01*
X18876428Y65721428D01*
X18947857Y66007142D01*
X19090714Y66150000D01*
X19233571Y66221428D01*
X20805000Y66221428D02*
X21090714Y66221428D01*
X21233571Y66150000D01*
X21376428Y66007142D01*
X21447857Y65721428D01*
X21447857Y65221428D01*
X21376428Y64935714D01*
X21233571Y64792857D01*
X21090714Y64721428D01*
X20805000Y64721428D01*
X20662142Y64792857D01*
X20519285Y64935714D01*
X20447857Y65221428D01*
X20447857Y65721428D01*
X20519285Y66007142D01*
X20662142Y66150000D01*
X20805000Y66221428D01*
X21876428Y66221428D02*
X22733571Y66221428D01*
X22305000Y64721428D02*
X22305000Y66221428D01*
X23519285Y66221428D02*
X23662142Y66221428D01*
X23805000Y66150000D01*
X23876428Y66078571D01*
X23947857Y65935714D01*
X24019285Y65650000D01*
X24019285Y65292857D01*
X23947857Y65007142D01*
X23876428Y64864285D01*
X23805000Y64792857D01*
X23662142Y64721428D01*
X23519285Y64721428D01*
X23376428Y64792857D01*
X23305000Y64864285D01*
X23233571Y65007142D01*
X23162142Y65292857D01*
X23162142Y65650000D01*
X23233571Y65935714D01*
X23305000Y66078571D01*
X23376428Y66150000D01*
X23519285Y66221428D01*
X40092857Y66721428D02*
X40164285Y66935714D01*
X40235714Y67007142D01*
X40378571Y67078571D01*
X40592857Y67078571D01*
X40735714Y67007142D01*
X40807142Y66935714D01*
X40878571Y66792857D01*
X40878571Y66221428D01*
X39378571Y66221428D01*
X39378571Y66721428D01*
X39450000Y66864285D01*
X39521428Y66935714D01*
X39664285Y67007142D01*
X39807142Y67007142D01*
X39950000Y66935714D01*
X40021428Y66864285D01*
X40092857Y66721428D01*
X40092857Y66221428D01*
X40450000Y67650000D02*
X40450000Y68364285D01*
X40878571Y67507142D02*
X39378571Y68007142D01*
X40878571Y68507142D01*
X39378571Y68792857D02*
X39378571Y69650000D01*
X40878571Y69221428D02*
X39378571Y69221428D01*
X39378571Y69935714D02*
X39378571Y70792857D01*
X40878571Y70364285D02*
X39378571Y70364285D01*
X34378571Y66342857D02*
X34378571Y67271428D01*
X34950000Y66771428D01*
X34950000Y66985714D01*
X35021428Y67128571D01*
X35092857Y67200000D01*
X35235714Y67271428D01*
X35592857Y67271428D01*
X35735714Y67200000D01*
X35807142Y67128571D01*
X35878571Y66985714D01*
X35878571Y66557142D01*
X35807142Y66414285D01*
X35735714Y66342857D01*
X34378571Y67700000D02*
X35878571Y68200000D01*
X34378571Y68700000D01*
X34378571Y69057142D02*
X34378571Y69985714D01*
X34950000Y69485714D01*
X34950000Y69700000D01*
X35021428Y69842857D01*
X35092857Y69914285D01*
X35235714Y69985714D01*
X35592857Y69985714D01*
X35735714Y69914285D01*
X35807142Y69842857D01*
X35878571Y69700000D01*
X35878571Y69271428D01*
X35807142Y69128571D01*
X35735714Y69057142D01*
D10*
X25906226Y62300000D02*
G75*
G03*
X25906226Y62300000I-806226J0D01*
G01*
D15*
X16600000Y62021428D02*
X16600000Y63521428D01*
X17171428Y63521428D01*
X17314285Y63450000D01*
X17385714Y63378571D01*
X17457142Y63235714D01*
X17457142Y63021428D01*
X17385714Y62878571D01*
X17314285Y62807142D01*
X17171428Y62735714D01*
X16600000Y62735714D01*
X18957142Y62021428D02*
X18457142Y62735714D01*
X18100000Y62021428D02*
X18100000Y63521428D01*
X18671428Y63521428D01*
X18814285Y63450000D01*
X18885714Y63378571D01*
X18957142Y63235714D01*
X18957142Y63021428D01*
X18885714Y62878571D01*
X18814285Y62807142D01*
X18671428Y62735714D01*
X18100000Y62735714D01*
X20385714Y63450000D02*
X20242857Y63521428D01*
X20028571Y63521428D01*
X19814285Y63450000D01*
X19671428Y63307142D01*
X19600000Y63164285D01*
X19528571Y62878571D01*
X19528571Y62664285D01*
X19600000Y62378571D01*
X19671428Y62235714D01*
X19814285Y62092857D01*
X20028571Y62021428D01*
X20171428Y62021428D01*
X20385714Y62092857D01*
X20457142Y62164285D01*
X20457142Y62664285D01*
X20171428Y62664285D01*
X21957142Y62021428D02*
X21457142Y62735714D01*
X21100000Y62021428D02*
X21100000Y63521428D01*
X21671428Y63521428D01*
X21814285Y63450000D01*
X21885714Y63378571D01*
X21957142Y63235714D01*
X21957142Y63021428D01*
X21885714Y62878571D01*
X21814285Y62807142D01*
X21671428Y62735714D01*
X21100000Y62735714D01*
X22600000Y62021428D02*
X22600000Y63521428D01*
X23100000Y62450000D01*
X23600000Y63521428D01*
X23600000Y62021428D01*
D10*
X25906226Y68600000D02*
G75*
G03*
X25906226Y68600000I-806226J0D01*
G01*
D15*
X20592857Y67521428D02*
X20092857Y68235714D01*
X19735714Y67521428D02*
X19735714Y69021428D01*
X20307142Y69021428D01*
X20450000Y68950000D01*
X20521428Y68878571D01*
X20592857Y68735714D01*
X20592857Y68521428D01*
X20521428Y68378571D01*
X20450000Y68307142D01*
X20307142Y68235714D01*
X19735714Y68235714D01*
X21235714Y69021428D02*
X21235714Y67807142D01*
X21307142Y67664285D01*
X21378571Y67592857D01*
X21521428Y67521428D01*
X21807142Y67521428D01*
X21950000Y67592857D01*
X22021428Y67664285D01*
X22092857Y67807142D01*
X22092857Y69021428D01*
X22807142Y67521428D02*
X22807142Y69021428D01*
X23664285Y67521428D01*
X23664285Y69021428D01*
D10*
X56461904Y39447619D02*
X55985714Y39447619D01*
X55938095Y38971428D01*
X55985714Y39019047D01*
X56080952Y39066666D01*
X56319047Y39066666D01*
X56414285Y39019047D01*
X56461904Y38971428D01*
X56509523Y38876190D01*
X56509523Y38638095D01*
X56461904Y38542857D01*
X56414285Y38495238D01*
X56319047Y38447619D01*
X56080952Y38447619D01*
X55985714Y38495238D01*
X55938095Y38542857D01*
X57461904Y38447619D02*
X56890476Y38447619D01*
X57176190Y38447619D02*
X57176190Y39447619D01*
X57080952Y39304761D01*
X56985714Y39209523D01*
X56890476Y39161904D01*
X38485714Y53547619D02*
X37914285Y53547619D01*
X38200000Y53547619D02*
X38200000Y54547619D01*
X38104761Y54404761D01*
X38009523Y54309523D01*
X37914285Y54261904D01*
X38460555Y52700000D02*
G75*
G03*
X38460555Y52700000I-360555J0D01*
G01*
D11*
X41257142Y41447619D02*
X41257142Y40733333D01*
X41200000Y40590476D01*
X41085714Y40495238D01*
X40914285Y40447619D01*
X40800000Y40447619D01*
X42400000Y40447619D02*
X41828571Y40447619D01*
X41828571Y41447619D01*
X43485714Y40542857D02*
X43428571Y40495238D01*
X43257142Y40447619D01*
X43142857Y40447619D01*
X42971428Y40495238D01*
X42857142Y40590476D01*
X42800000Y40685714D01*
X42742857Y40876190D01*
X42742857Y41019047D01*
X42800000Y41209523D01*
X42857142Y41304761D01*
X42971428Y41400000D01*
X43142857Y41447619D01*
X43257142Y41447619D01*
X43428571Y41400000D01*
X43485714Y41352380D01*
X44342857Y41447619D02*
X44342857Y40733333D01*
X44285714Y40590476D01*
X44171428Y40495238D01*
X44000000Y40447619D01*
X43885714Y40447619D01*
X45485714Y40447619D02*
X44914285Y40447619D01*
X44914285Y41447619D01*
X46571428Y40542857D02*
X46514285Y40495238D01*
X46342857Y40447619D01*
X46228571Y40447619D01*
X46057142Y40495238D01*
X45942857Y40590476D01*
X45885714Y40685714D01*
X45828571Y40876190D01*
X45828571Y41019047D01*
X45885714Y41209523D01*
X45942857Y41304761D01*
X46057142Y41400000D01*
X46228571Y41447619D01*
X46342857Y41447619D01*
X46514285Y41400000D01*
X46571428Y41352380D01*
X47428571Y41447619D02*
X47428571Y40733333D01*
X47371428Y40590476D01*
X47257142Y40495238D01*
X47085714Y40447619D01*
X46971428Y40447619D01*
X48571428Y40447619D02*
X48000000Y40447619D01*
X48000000Y41447619D01*
X49657142Y40542857D02*
X49600000Y40495238D01*
X49428571Y40447619D01*
X49314285Y40447619D01*
X49142857Y40495238D01*
X49028571Y40590476D01*
X48971428Y40685714D01*
X48914285Y40876190D01*
X48914285Y41019047D01*
X48971428Y41209523D01*
X49028571Y41304761D01*
X49142857Y41400000D01*
X49314285Y41447619D01*
X49428571Y41447619D01*
X49600000Y41400000D01*
X49657142Y41352380D01*
X50514285Y41447619D02*
X50514285Y40733333D01*
X50457142Y40590476D01*
X50342857Y40495238D01*
X50171428Y40447619D01*
X50057142Y40447619D01*
X51657142Y40447619D02*
X51085714Y40447619D01*
X51085714Y41447619D01*
X52742857Y40542857D02*
X52685714Y40495238D01*
X52514285Y40447619D01*
X52400000Y40447619D01*
X52228571Y40495238D01*
X52114285Y40590476D01*
X52057142Y40685714D01*
X52000000Y40876190D01*
X52000000Y41019047D01*
X52057142Y41209523D01*
X52114285Y41304761D01*
X52228571Y41400000D01*
X52400000Y41447619D01*
X52514285Y41447619D01*
X52685714Y41400000D01*
X52742857Y41352380D01*
D16*
%TO.C,R18*%
X11735000Y82227064D02*
X11735000Y81772936D01*
X10265000Y82227064D02*
X10265000Y81772936D01*
%TO.C,R17*%
X7265000Y82227064D02*
X7265000Y81772936D01*
X8735000Y82227064D02*
X8735000Y81772936D01*
%TO.C,D9*%
X11910000Y75115000D02*
X11910000Y78000000D01*
X10090000Y75115000D02*
X11910000Y75115000D01*
X10090000Y78000000D02*
X10090000Y75115000D01*
%TO.C,D8*%
X8910000Y75115000D02*
X8910000Y78000000D01*
X7090000Y75115000D02*
X8910000Y75115000D01*
X7090000Y78000000D02*
X7090000Y75115000D01*
%TO.C,J21*%
X88070000Y15750000D02*
X88070000Y20950000D01*
X60070000Y15750000D02*
X88070000Y15750000D01*
X57470000Y20950000D02*
X88070000Y20950000D01*
X60070000Y15750000D02*
X60070000Y18350000D01*
X60070000Y18350000D02*
X57470000Y18350000D01*
X57470000Y18350000D02*
X57470000Y20950000D01*
X58800000Y15750000D02*
X57470000Y15750000D01*
X57470000Y15750000D02*
X57470000Y17080000D01*
%TO.C,J20*%
X88070000Y20830000D02*
X88070000Y26030000D01*
X75310000Y20830000D02*
X88070000Y20830000D01*
X72710000Y26030000D02*
X88070000Y26030000D01*
X75310000Y20830000D02*
X75310000Y23430000D01*
X75310000Y23430000D02*
X72710000Y23430000D01*
X72710000Y23430000D02*
X72710000Y26030000D01*
X74040000Y20830000D02*
X72710000Y20830000D01*
X72710000Y20830000D02*
X72710000Y22160000D01*
%TO.C,R11*%
X74765000Y36572936D02*
X74765000Y37027064D01*
X76235000Y36572936D02*
X76235000Y37027064D01*
%TO.C,R10*%
X82765000Y36572936D02*
X82765000Y37027064D01*
X84235000Y36572936D02*
X84235000Y37027064D01*
%TO.C,R9*%
X80235000Y37027064D02*
X80235000Y36572936D01*
X78765000Y37027064D02*
X78765000Y36572936D01*
%TO.C,R8*%
X72235000Y37027064D02*
X72235000Y36572936D01*
X70765000Y37027064D02*
X70765000Y36572936D01*
%TO.C,R16*%
X75277500Y81354724D02*
X75277500Y80845276D01*
X76322500Y81354724D02*
X76322500Y80845276D01*
%TO.C,R15*%
X81977500Y81254724D02*
X81977500Y80745276D01*
X83022500Y81254724D02*
X83022500Y80745276D01*
%TO.C,C14*%
X14835000Y84161252D02*
X14835000Y83638748D01*
X13365000Y84161252D02*
X13365000Y83638748D01*
%TO.C,J18*%
X82870000Y13330000D02*
X84200000Y13330000D01*
X82870000Y12000000D02*
X82870000Y13330000D01*
X82870000Y10730000D02*
X85530000Y10730000D01*
X85530000Y10730000D02*
X85530000Y10670000D01*
X82870000Y10730000D02*
X82870000Y10670000D01*
X82870000Y10670000D02*
X85530000Y10670000D01*
%TO.C,J1*%
X84970000Y65630000D02*
X86300000Y65630000D01*
X84970000Y64300000D02*
X84970000Y65630000D01*
X84970000Y63030000D02*
X87630000Y63030000D01*
X87630000Y63030000D02*
X87630000Y57890000D01*
X84970000Y63030000D02*
X84970000Y57890000D01*
X84970000Y57890000D02*
X87630000Y57890000D01*
%TO.C,R14*%
X86380000Y80446359D02*
X86380000Y80753641D01*
X85620000Y80446359D02*
X85620000Y80753641D01*
%TO.C,R13*%
X84320000Y80753641D02*
X84320000Y80446359D01*
X85080000Y80753641D02*
X85080000Y80446359D01*
%TO.C,R4*%
X83053641Y59280000D02*
X82746359Y59280000D01*
X83053641Y58520000D02*
X82746359Y58520000D01*
%TO.C,R3*%
X82746359Y56620000D02*
X83053641Y56620000D01*
X82746359Y57380000D02*
X83053641Y57380000D01*
%TO.C,JP3*%
X33970000Y63070000D02*
X33970000Y64400000D01*
X35300000Y63070000D02*
X33970000Y63070000D01*
X36570000Y63070000D02*
X36570000Y65730000D01*
X36570000Y65730000D02*
X41710000Y65730000D01*
X36570000Y63070000D02*
X41710000Y63070000D01*
X41710000Y63070000D02*
X41710000Y65730000D01*
%TO.C,JP1*%
X70496000Y26336000D02*
X69096000Y26336000D01*
X68396000Y27036000D02*
X68396000Y27636000D01*
X69096000Y28336000D02*
X70496000Y28336000D01*
X71196000Y27636000D02*
X71196000Y27036000D01*
X71196000Y27036000D02*
G75*
G02*
X70496000Y26336000I-700000J0D01*
G01*
X70496000Y28336000D02*
G75*
G02*
X71196000Y27636000I0J-700000D01*
G01*
X68396000Y27636000D02*
G75*
G02*
X69096000Y28336000I700000J0D01*
G01*
X69096000Y26336000D02*
G75*
G02*
X68396000Y27036000I0J700000D01*
G01*
%TO.C,D4*%
X76410000Y30115000D02*
X76410000Y33000000D01*
X74590000Y30115000D02*
X76410000Y30115000D01*
X74590000Y33000000D02*
X74590000Y30115000D01*
%TO.C,D3*%
X84410000Y30115000D02*
X84410000Y33000000D01*
X82590000Y30115000D02*
X84410000Y30115000D01*
X82590000Y33000000D02*
X82590000Y30115000D01*
%TO.C,D2*%
X78590000Y33000000D02*
X78590000Y30115000D01*
X78590000Y30115000D02*
X80410000Y30115000D01*
X80410000Y30115000D02*
X80410000Y33000000D01*
%TO.C,D1*%
X72410000Y30115000D02*
X72410000Y33000000D01*
X70590000Y30115000D02*
X72410000Y30115000D01*
X70590000Y33000000D02*
X70590000Y30115000D01*
%TO.C,C3*%
X31446267Y53210000D02*
X31153733Y53210000D01*
X31446267Y52190000D02*
X31153733Y52190000D01*
%TO.C,Y2*%
X35175000Y50625000D02*
X35175000Y51975000D01*
X33425000Y50625000D02*
X33425000Y51975000D01*
%TO.C,C21*%
X37760000Y47487836D02*
X37760000Y47272164D01*
X37040000Y47487836D02*
X37040000Y47272164D01*
%TO.C,R12*%
X52865000Y59327064D02*
X52865000Y58872936D01*
X54335000Y59327064D02*
X54335000Y58872936D01*
%TO.C,J16*%
X6670000Y15750000D02*
X6670000Y17080000D01*
X8000000Y15750000D02*
X6670000Y15750000D01*
X9270000Y15750000D02*
X9270000Y18410000D01*
X9270000Y18410000D02*
X22030000Y18410000D01*
X9270000Y15750000D02*
X22030000Y15750000D01*
X22030000Y15750000D02*
X22030000Y18410000D01*
%TO.C,J13*%
X70170000Y10670000D02*
X70170000Y12000000D01*
X71500000Y10670000D02*
X70170000Y10670000D01*
X72770000Y10670000D02*
X72770000Y13330000D01*
X72770000Y13330000D02*
X80450000Y13330000D01*
X72770000Y10670000D02*
X80450000Y10670000D01*
X80450000Y10670000D02*
X80450000Y13330000D01*
%TO.C,J15*%
X29170000Y28320000D02*
X29170000Y29650000D01*
X30500000Y28320000D02*
X29170000Y28320000D01*
X31770000Y28320000D02*
X31770000Y30980000D01*
X31770000Y30980000D02*
X49610000Y30980000D01*
X31770000Y28320000D02*
X49610000Y28320000D01*
X49610000Y28320000D02*
X49610000Y30980000D01*
%TO.C,WS4*%
X76350000Y62250000D02*
X83650000Y62250000D01*
X76350000Y66600000D02*
X76350000Y67750000D01*
X76350000Y67750000D02*
X83650000Y67750000D01*
%TO.C,WS3*%
X68350000Y62250000D02*
X75650000Y62250000D01*
X68350000Y66600000D02*
X68350000Y67750000D01*
X68350000Y67750000D02*
X75650000Y67750000D01*
%TO.C,WS2*%
X60350000Y62250000D02*
X67650000Y62250000D01*
X60350000Y66600000D02*
X60350000Y67750000D01*
X60350000Y67750000D02*
X67650000Y67750000D01*
%TO.C,WS1*%
X52350000Y62250000D02*
X59650000Y62250000D01*
X52350000Y66600000D02*
X52350000Y67750000D01*
X52350000Y67750000D02*
X59650000Y67750000D01*
%TO.C,U3*%
X77690000Y81300000D02*
X77690000Y79500000D01*
X80910000Y79500000D02*
X80910000Y81950000D01*
%TO.C,U2*%
X19590000Y79090000D02*
X20850000Y79090000D01*
X26410000Y79090000D02*
X25150000Y79090000D01*
X19590000Y82850000D02*
X19590000Y79090000D01*
X26410000Y85100000D02*
X26410000Y79090000D01*
%TO.C,TP4*%
X89700000Y83740000D02*
G75*
G03*
X89700000Y83740000I-1200000J0D01*
G01*
%TO.C,TP3*%
X89700000Y73580000D02*
G75*
G03*
X89700000Y73580000I-1200000J0D01*
G01*
%TO.C,TP2*%
X89700000Y78660000D02*
G75*
G03*
X89700000Y78660000I-1200000J0D01*
G01*
%TO.C,TP1*%
X89700000Y68500000D02*
G75*
G03*
X89700000Y68500000I-1200000J0D01*
G01*
%TO.C,R7*%
X67300000Y27347064D02*
X67300000Y25892936D01*
X65480000Y27347064D02*
X65480000Y25892936D01*
%TO.C,R5*%
X60430000Y25882936D02*
X60430000Y27337064D01*
X62250000Y25882936D02*
X62250000Y27337064D01*
%TO.C,JP2*%
X62180000Y74340000D02*
X62180000Y73740000D01*
X60080000Y75040000D02*
X61480000Y75040000D01*
X59380000Y73740000D02*
X59380000Y74340000D01*
X61480000Y73040000D02*
X60080000Y73040000D01*
X62180000Y73740000D02*
G75*
G02*
X61480000Y73040000I-700000J0D01*
G01*
X61480000Y75040000D02*
G75*
G02*
X62180000Y74340000I0J-700000D01*
G01*
X59380000Y74340000D02*
G75*
G02*
X60080000Y75040000I700000J0D01*
G01*
X60080000Y73040000D02*
G75*
G02*
X59380000Y73740000I0J700000D01*
G01*
%TO.C,J19*%
X62965000Y51735000D02*
X62965000Y55265000D01*
X69435000Y51735000D02*
X69435000Y55265000D01*
X63030000Y50410000D02*
X63030000Y51735000D01*
X62965000Y51735000D02*
X63030000Y51735000D01*
X62965000Y55265000D02*
X63030000Y55265000D01*
X69370000Y51735000D02*
X69435000Y51735000D01*
X69370000Y55265000D02*
X69435000Y55265000D01*
%TO.C,J17*%
X6670000Y13330000D02*
X6670000Y10670000D01*
X14350000Y13330000D02*
X6670000Y13330000D01*
X14350000Y10670000D02*
X6670000Y10670000D01*
X14350000Y13330000D02*
X14350000Y10670000D01*
X15620000Y13330000D02*
X16950000Y13330000D01*
X16950000Y13330000D02*
X16950000Y12000000D01*
%TO.C,J14*%
X39810000Y10670000D02*
X39810000Y13330000D01*
X21970000Y10670000D02*
X39810000Y10670000D01*
X21970000Y13330000D02*
X39810000Y13330000D01*
X21970000Y10670000D02*
X21970000Y13330000D01*
X20700000Y10670000D02*
X19370000Y10670000D01*
X19370000Y10670000D02*
X19370000Y12000000D01*
%TO.C,J12*%
X47870000Y69850000D02*
X50530000Y69850000D01*
X47870000Y77530000D02*
X47870000Y69850000D01*
X50530000Y77530000D02*
X50530000Y69850000D01*
X47870000Y77530000D02*
X50530000Y77530000D01*
X47870000Y78800000D02*
X47870000Y80130000D01*
X47870000Y80130000D02*
X49200000Y80130000D01*
%TO.C,J11*%
X67750000Y20830000D02*
X67750000Y23490000D01*
X60070000Y20830000D02*
X67750000Y20830000D01*
X60070000Y23490000D02*
X67750000Y23490000D01*
X60070000Y20830000D02*
X60070000Y23490000D01*
X58800000Y20830000D02*
X57470000Y20830000D01*
X57470000Y20830000D02*
X57470000Y22160000D01*
%TO.C,J10*%
X67750000Y10670000D02*
X67750000Y13330000D01*
X60070000Y10670000D02*
X67750000Y10670000D01*
X60070000Y13330000D02*
X67750000Y13330000D01*
X60070000Y10670000D02*
X60070000Y13330000D01*
X58800000Y10670000D02*
X57470000Y10670000D01*
X57470000Y10670000D02*
X57470000Y12000000D01*
%TO.C,J9*%
X11890000Y58730000D02*
X11890000Y56070000D01*
X29730000Y58730000D02*
X11890000Y58730000D01*
X29730000Y56070000D02*
X11890000Y56070000D01*
X29730000Y58730000D02*
X29730000Y56070000D01*
X31000000Y58730000D02*
X32330000Y58730000D01*
X32330000Y58730000D02*
X32330000Y57400000D01*
%TO.C,J8*%
X47870000Y56850000D02*
X50530000Y56850000D01*
X47870000Y64530000D02*
X47870000Y56850000D01*
X50530000Y64530000D02*
X50530000Y56850000D01*
X47870000Y64530000D02*
X50530000Y64530000D01*
X47870000Y65800000D02*
X47870000Y67130000D01*
X47870000Y67130000D02*
X49200000Y67130000D01*
%TO.C,J7*%
X85120000Y41000000D02*
X85120000Y53000000D01*
X86880000Y41000000D02*
X86880000Y53000000D01*
X86880000Y41000000D02*
X90370000Y41000000D01*
X86880000Y53000000D02*
X90370000Y53000000D01*
X90370000Y41000000D02*
X90370000Y38240000D01*
X90370000Y53000000D02*
X90370000Y55760000D01*
X90370000Y38240000D02*
X87810000Y38240000D01*
X90370000Y55760000D02*
X87810000Y55760000D01*
X87810000Y38240000D02*
X87810000Y41000000D01*
X87810000Y55760000D02*
X87810000Y53000000D01*
X87810000Y41000000D02*
X85120000Y41000000D01*
X87810000Y53000000D02*
X85120000Y53000000D01*
%TO.C,J6*%
X41000000Y8880000D02*
X53000000Y8880000D01*
X41000000Y7120000D02*
X53000000Y7120000D01*
X41000000Y7120000D02*
X41000000Y3630000D01*
X53000000Y7120000D02*
X53000000Y3630000D01*
X41000000Y3630000D02*
X38240000Y3630000D01*
X53000000Y3630000D02*
X55760000Y3630000D01*
X38240000Y3630000D02*
X38240000Y6190000D01*
X55760000Y3630000D02*
X55760000Y6190000D01*
X38240000Y6190000D02*
X41000000Y6190000D01*
X55760000Y6190000D02*
X53000000Y6190000D01*
X41000000Y6190000D02*
X41000000Y8880000D01*
X53000000Y6190000D02*
X53000000Y8880000D01*
%TO.C,J5*%
X8880000Y53000000D02*
X8880000Y41000000D01*
X7120000Y53000000D02*
X7120000Y41000000D01*
X7120000Y53000000D02*
X3630000Y53000000D01*
X7120000Y41000000D02*
X3630000Y41000000D01*
X3630000Y53000000D02*
X3630000Y55760000D01*
X3630000Y41000000D02*
X3630000Y38240000D01*
X3630000Y55760000D02*
X6190000Y55760000D01*
X3630000Y38240000D02*
X6190000Y38240000D01*
X6190000Y55760000D02*
X6190000Y53000000D01*
X6190000Y38240000D02*
X6190000Y41000000D01*
X6190000Y53000000D02*
X8880000Y53000000D01*
X6190000Y41000000D02*
X8880000Y41000000D01*
%TO.C,J4*%
X53000000Y85120000D02*
X41000000Y85120000D01*
X53000000Y86880000D02*
X41000000Y86880000D01*
X53000000Y86880000D02*
X53000000Y90370000D01*
X41000000Y86880000D02*
X41000000Y90370000D01*
X53000000Y90370000D02*
X55760000Y90370000D01*
X41000000Y90370000D02*
X38240000Y90370000D01*
X55760000Y90370000D02*
X55760000Y87810000D01*
X38240000Y90370000D02*
X38240000Y87810000D01*
X55760000Y87810000D02*
X53000000Y87810000D01*
X38240000Y87810000D02*
X41000000Y87810000D01*
X53000000Y87810000D02*
X53000000Y85120000D01*
X41000000Y87810000D02*
X41000000Y85120000D01*
%TO.C,J3*%
X17000000Y38880000D02*
X29000000Y38880000D01*
X17000000Y37120000D02*
X29000000Y37120000D01*
X17000000Y37120000D02*
X17000000Y33630000D01*
X29000000Y37120000D02*
X29000000Y33630000D01*
X17000000Y33630000D02*
X14240000Y33630000D01*
X29000000Y33630000D02*
X31760000Y33630000D01*
X14240000Y33630000D02*
X14240000Y36190000D01*
X31760000Y33630000D02*
X31760000Y36190000D01*
X14240000Y36190000D02*
X17000000Y36190000D01*
X31760000Y36190000D02*
X29000000Y36190000D01*
X17000000Y36190000D02*
X17000000Y38880000D01*
X29000000Y36190000D02*
X29000000Y38880000D01*
D11*
%TO.C,J2*%
X74530000Y93250000D02*
X83470000Y93250000D01*
X83470000Y93250000D02*
X83470000Y93250000D01*
X83470000Y93250000D02*
X74530000Y93250000D01*
X74530000Y93250000D02*
X74530000Y93250000D01*
X83470000Y87402000D02*
X83500000Y87402000D01*
X83500000Y87402000D02*
X83500000Y89652000D01*
X83500000Y89652000D02*
X83470000Y89652000D01*
X83470000Y89652000D02*
X83470000Y87402000D01*
X83470000Y91652000D02*
X83470000Y91652000D01*
X83470000Y91652000D02*
X83470000Y93250000D01*
X83470000Y93250000D02*
X83470000Y93250000D01*
X83470000Y93250000D02*
X83470000Y91652000D01*
X74530000Y91652000D02*
X74530000Y91652000D01*
X74530000Y91652000D02*
X74530000Y93250000D01*
X74530000Y93250000D02*
X74530000Y93250000D01*
X74530000Y93250000D02*
X74530000Y91652000D01*
X74530000Y87402000D02*
X74530000Y87402000D01*
X74530000Y87402000D02*
X74530000Y89652000D01*
X74530000Y89652000D02*
X74530000Y89652000D01*
X74530000Y89652000D02*
X74530000Y87402000D01*
X82500000Y84152000D02*
X82500000Y84152000D01*
X82400000Y84152000D02*
X82400000Y84152000D01*
X82500000Y84152000D02*
X82500000Y84152000D01*
X82400000Y84152000D02*
G75*
G02*
X82500000Y84152000I50000J0D01*
G01*
X82500000Y84152000D02*
G75*
G02*
X82400000Y84152000I-50000J0D01*
G01*
X82400000Y84152000D02*
G75*
G02*
X82500000Y84152000I50000J0D01*
G01*
D16*
%TO.C,FB1*%
X68270378Y89060000D02*
X69069622Y89060000D01*
X68270378Y87940000D02*
X69069622Y87940000D01*
%TO.C,F1*%
X62239545Y89460000D02*
X63220455Y89460000D01*
X62239545Y87640000D02*
X63220455Y87640000D01*
%TO.C,D7*%
X58800000Y9550000D02*
X58800000Y6250000D01*
X58800000Y6250000D02*
X64200000Y6250000D01*
X58800000Y9550000D02*
X64200000Y9550000D01*
%TO.C,D6*%
X57250000Y86070000D02*
X57250000Y81770000D01*
X57250000Y81770000D02*
X64800000Y81770000D01*
X57250000Y86070000D02*
X64800000Y86070000D01*
%TO.C,D5*%
X57300000Y80150000D02*
X57300000Y76850000D01*
X57300000Y76850000D02*
X62700000Y76850000D01*
X57300000Y80150000D02*
X62700000Y80150000D01*
%TO.C,C35*%
X57860000Y37387836D02*
X57860000Y37172164D01*
X57140000Y37387836D02*
X57140000Y37172164D01*
%TO.C,C34*%
X57192164Y53960000D02*
X57407836Y53960000D01*
X57192164Y53240000D02*
X57407836Y53240000D01*
%TO.C,C33*%
X35207836Y38440000D02*
X34992164Y38440000D01*
X35207836Y39160000D02*
X34992164Y39160000D01*
%TO.C,C32*%
X41607836Y56640000D02*
X41392164Y56640000D01*
X41607836Y57360000D02*
X41392164Y57360000D01*
%TO.C,C31*%
X41607836Y55340000D02*
X41392164Y55340000D01*
X41607836Y56060000D02*
X41392164Y56060000D01*
%TO.C,C30*%
X57640000Y51792164D02*
X57640000Y52007836D01*
X58360000Y51792164D02*
X58360000Y52007836D01*
%TO.C,C29*%
X56340000Y51792164D02*
X56340000Y52007836D01*
X57060000Y51792164D02*
X57060000Y52007836D01*
%TO.C,C28*%
X55840000Y37192164D02*
X55840000Y37407836D01*
X56560000Y37192164D02*
X56560000Y37407836D01*
%TO.C,C27*%
X54540000Y37192164D02*
X54540000Y37407836D01*
X55260000Y37192164D02*
X55260000Y37407836D01*
%TO.C,C26*%
X41712164Y35460000D02*
X41927836Y35460000D01*
X41712164Y34740000D02*
X41927836Y34740000D01*
%TO.C,C25*%
X41692164Y36660000D02*
X41907836Y36660000D01*
X41692164Y35940000D02*
X41907836Y35940000D01*
%TO.C,C24*%
X35640000Y42392164D02*
X35640000Y42607836D01*
X36360000Y42392164D02*
X36360000Y42607836D01*
%TO.C,C23*%
X36940000Y42392164D02*
X36940000Y42607836D01*
X37660000Y42392164D02*
X37660000Y42607836D01*
%TO.C,C22*%
X36360000Y47507836D02*
X36360000Y47292164D01*
X35640000Y47507836D02*
X35640000Y47292164D01*
%TO.C,C20*%
X37660000Y40607836D02*
X37660000Y40392164D01*
X36940000Y40607836D02*
X36940000Y40392164D01*
%TO.C,C19*%
X36360000Y40607836D02*
X36360000Y40392164D01*
X35640000Y40607836D02*
X35640000Y40392164D01*
%TO.C,C13*%
X60240000Y51772164D02*
X60240000Y51987836D01*
X60960000Y51772164D02*
X60960000Y51987836D01*
%TO.C,C12*%
X58940000Y51792164D02*
X58940000Y52007836D01*
X59660000Y51792164D02*
X59660000Y52007836D01*
%TO.C,C11*%
X52892164Y35360000D02*
X53107836Y35360000D01*
X52892164Y34640000D02*
X53107836Y34640000D01*
%TO.C,C10*%
X52892164Y36660000D02*
X53107836Y36660000D01*
X52892164Y35940000D02*
X53107836Y35940000D01*
%TO.C,C18*%
X27840000Y78192164D02*
X27840000Y78407836D01*
X28560000Y78192164D02*
X28560000Y78407836D01*
%TO.C,C17*%
X29965000Y78138748D02*
X29965000Y78661252D01*
X31435000Y78138748D02*
X31435000Y78661252D01*
%TO.C,C16*%
X16360000Y84107836D02*
X16360000Y83892164D01*
X15640000Y84107836D02*
X15640000Y83892164D01*
%TO.C,C15*%
X17860000Y84107836D02*
X17860000Y83892164D01*
X17140000Y84107836D02*
X17140000Y83892164D01*
%TO.C,C9*%
X77140000Y59992164D02*
X77140000Y60207836D01*
X77860000Y59992164D02*
X77860000Y60207836D01*
%TO.C,C8*%
X69940000Y59892164D02*
X69940000Y60107836D01*
X70660000Y59892164D02*
X70660000Y60107836D01*
%TO.C,C7*%
X60340000Y59892164D02*
X60340000Y60107836D01*
X61060000Y59892164D02*
X61060000Y60107836D01*
%TO.C,C6*%
X56040000Y59892164D02*
X56040000Y60107836D01*
X56760000Y59892164D02*
X56760000Y60107836D01*
D17*
%TO.C,SW2*%
X10100000Y62950000D02*
X10100000Y69100000D01*
D11*
X8300000Y59900000D02*
X8300000Y59900000D01*
X8300000Y60000000D02*
X8300000Y60000000D01*
X8300000Y59900000D02*
X8300000Y59900000D01*
D17*
X9050000Y62950000D02*
X10100000Y62950000D01*
X9050000Y62950000D02*
X9050000Y62950000D01*
X10100000Y62950000D02*
X9050000Y62950000D01*
X10100000Y62950000D02*
X10100000Y62950000D01*
X10050000Y69050000D02*
X9050000Y69050000D01*
X10050000Y69050000D02*
X10050000Y69050000D01*
X9050000Y69050000D02*
X10050000Y69050000D01*
X9050000Y69050000D02*
X9050000Y69050000D01*
X7550000Y69050000D02*
X6500000Y69050000D01*
X7550000Y69050000D02*
X7550000Y69050000D01*
X6500000Y69050000D02*
X7550000Y69050000D01*
X6500000Y69050000D02*
X6500000Y69050000D01*
X7550000Y62950000D02*
X6500000Y62950000D01*
X7550000Y62950000D02*
X7550000Y62950000D01*
X6500000Y62950000D02*
X7550000Y62950000D01*
X6500000Y62950000D02*
X6500000Y62950000D01*
X6500000Y62950000D02*
X6500000Y62950000D01*
X6500000Y69050000D02*
X6500000Y62950000D01*
X6500000Y69050000D02*
X6500000Y69050000D01*
X6500000Y62950000D02*
X6500000Y69050000D01*
D11*
X8300000Y60000000D02*
G75*
G02*
X8300000Y59900000I0J-50000D01*
G01*
X8300000Y59900000D02*
G75*
G02*
X8300000Y60000000I0J50000D01*
G01*
X8300000Y60000000D02*
G75*
G02*
X8300000Y59900000I0J-50000D01*
G01*
%TO.C,SW1*%
X32600000Y68100000D02*
X32600000Y68100000D01*
X32600000Y68200000D02*
X32600000Y68200000D01*
X32600000Y68100000D02*
X32600000Y68100000D01*
D17*
X26850000Y63350000D02*
X26850000Y63350000D01*
X26850000Y68850000D02*
X26850000Y63350000D01*
X26850000Y68850000D02*
X26850000Y68850000D01*
X26850000Y63350000D02*
X26850000Y68850000D01*
D11*
X32600000Y68200000D02*
G75*
G02*
X32600000Y68100000I0J-50000D01*
G01*
X32600000Y68100000D02*
G75*
G02*
X32600000Y68200000I0J50000D01*
G01*
X32600000Y68200000D02*
G75*
G02*
X32600000Y68100000I0J-50000D01*
G01*
D16*
%TO.C,R6*%
X36653641Y45880000D02*
X36346359Y45880000D01*
X36653641Y45120000D02*
X36346359Y45120000D01*
%TO.C,R1*%
X37780000Y58946359D02*
X37780000Y59253641D01*
X37020000Y58946359D02*
X37020000Y59253641D01*
%TO.C,C5*%
X32815835Y40560000D02*
X32584165Y40560000D01*
X32815835Y39840000D02*
X32584165Y39840000D01*
%TO.C,C1*%
X31353733Y47790000D02*
X31646267Y47790000D01*
X31353733Y48810000D02*
X31646267Y48810000D01*
%TO.C,C2*%
X31646267Y41490000D02*
X31353733Y41490000D01*
X31646267Y42510000D02*
X31353733Y42510000D01*
%TO.C,C4*%
X31446267Y49890000D02*
X31153733Y49890000D01*
X31446267Y50910000D02*
X31153733Y50910000D01*
%TO.C,R2*%
X35135000Y45227064D02*
X35135000Y44772936D01*
X33665000Y45227064D02*
X33665000Y44772936D01*
%TO.C,U1*%
X53410000Y38890000D02*
X54110000Y38890000D01*
X54110000Y38890000D02*
X54110000Y39590000D01*
X40590000Y38890000D02*
X39890000Y38890000D01*
X39890000Y38890000D02*
X39890000Y39590000D01*
X53410000Y53110000D02*
X54110000Y53110000D01*
X54110000Y53110000D02*
X54110000Y52410000D01*
X40590000Y53110000D02*
X39890000Y53110000D01*
X39890000Y53110000D02*
X39890000Y52410000D01*
X39890000Y52410000D02*
X38525000Y52410000D01*
%TO.C,Y1*%
X33150000Y47200000D02*
X29850000Y47200000D01*
X29850000Y47200000D02*
X29850000Y43200000D01*
%TO.C,J1*%
X83261904Y61333333D02*
X83833333Y61333333D01*
X83947619Y61295238D01*
X84023809Y61219047D01*
X84061904Y61104761D01*
X84061904Y61028571D01*
X84061904Y62133333D02*
X84061904Y61676190D01*
X84061904Y61904761D02*
X83261904Y61904761D01*
X83376190Y61828571D01*
X83452380Y61752380D01*
X83490476Y61676190D01*
%TO.C,JP1*%
D10*
X68962666Y26083619D02*
X68962666Y25369333D01*
X68915047Y25226476D01*
X68819809Y25131238D01*
X68676952Y25083619D01*
X68581714Y25083619D01*
X69438857Y25083619D02*
X69438857Y26083619D01*
X69819809Y26083619D01*
X69915047Y26036000D01*
X69962666Y25988380D01*
X70010285Y25893142D01*
X70010285Y25750285D01*
X69962666Y25655047D01*
X69915047Y25607428D01*
X69819809Y25559809D01*
X69438857Y25559809D01*
X70962666Y25083619D02*
X70391238Y25083619D01*
X70676952Y25083619D02*
X70676952Y26083619D01*
X70581714Y25940761D01*
X70486476Y25845523D01*
X70391238Y25797904D01*
%TO.C,WS4*%
X77619047Y69147619D02*
X77857142Y68147619D01*
X78047619Y68861904D01*
X78238095Y68147619D01*
X78476190Y69147619D01*
X78809523Y68195238D02*
X78952380Y68147619D01*
X79190476Y68147619D01*
X79285714Y68195238D01*
X79333333Y68242857D01*
X79380952Y68338095D01*
X79380952Y68433333D01*
X79333333Y68528571D01*
X79285714Y68576190D01*
X79190476Y68623809D01*
X79000000Y68671428D01*
X78904761Y68719047D01*
X78857142Y68766666D01*
X78809523Y68861904D01*
X78809523Y68957142D01*
X78857142Y69052380D01*
X78904761Y69100000D01*
X79000000Y69147619D01*
X79238095Y69147619D01*
X79380952Y69100000D01*
X80238095Y68814285D02*
X80238095Y68147619D01*
X80000000Y69195238D02*
X79761904Y68480952D01*
X80380952Y68480952D01*
%TO.C,WS3*%
X69519047Y69147619D02*
X69757142Y68147619D01*
X69947619Y68861904D01*
X70138095Y68147619D01*
X70376190Y69147619D01*
X70709523Y68195238D02*
X70852380Y68147619D01*
X71090476Y68147619D01*
X71185714Y68195238D01*
X71233333Y68242857D01*
X71280952Y68338095D01*
X71280952Y68433333D01*
X71233333Y68528571D01*
X71185714Y68576190D01*
X71090476Y68623809D01*
X70900000Y68671428D01*
X70804761Y68719047D01*
X70757142Y68766666D01*
X70709523Y68861904D01*
X70709523Y68957142D01*
X70757142Y69052380D01*
X70804761Y69100000D01*
X70900000Y69147619D01*
X71138095Y69147619D01*
X71280952Y69100000D01*
X71614285Y69147619D02*
X72233333Y69147619D01*
X71900000Y68766666D01*
X72042857Y68766666D01*
X72138095Y68719047D01*
X72185714Y68671428D01*
X72233333Y68576190D01*
X72233333Y68338095D01*
X72185714Y68242857D01*
X72138095Y68195238D01*
X72042857Y68147619D01*
X71757142Y68147619D01*
X71661904Y68195238D01*
X71614285Y68242857D01*
%TO.C,WS2*%
X61319047Y69147619D02*
X61557142Y68147619D01*
X61747619Y68861904D01*
X61938095Y68147619D01*
X62176190Y69147619D01*
X62509523Y68195238D02*
X62652380Y68147619D01*
X62890476Y68147619D01*
X62985714Y68195238D01*
X63033333Y68242857D01*
X63080952Y68338095D01*
X63080952Y68433333D01*
X63033333Y68528571D01*
X62985714Y68576190D01*
X62890476Y68623809D01*
X62700000Y68671428D01*
X62604761Y68719047D01*
X62557142Y68766666D01*
X62509523Y68861904D01*
X62509523Y68957142D01*
X62557142Y69052380D01*
X62604761Y69100000D01*
X62700000Y69147619D01*
X62938095Y69147619D01*
X63080952Y69100000D01*
X63461904Y69052380D02*
X63509523Y69100000D01*
X63604761Y69147619D01*
X63842857Y69147619D01*
X63938095Y69100000D01*
X63985714Y69052380D01*
X64033333Y68957142D01*
X64033333Y68861904D01*
X63985714Y68719047D01*
X63414285Y68147619D01*
X64033333Y68147619D01*
%TO.C,WS1*%
X53419047Y69047619D02*
X53657142Y68047619D01*
X53847619Y68761904D01*
X54038095Y68047619D01*
X54276190Y69047619D01*
X54609523Y68095238D02*
X54752380Y68047619D01*
X54990476Y68047619D01*
X55085714Y68095238D01*
X55133333Y68142857D01*
X55180952Y68238095D01*
X55180952Y68333333D01*
X55133333Y68428571D01*
X55085714Y68476190D01*
X54990476Y68523809D01*
X54800000Y68571428D01*
X54704761Y68619047D01*
X54657142Y68666666D01*
X54609523Y68761904D01*
X54609523Y68857142D01*
X54657142Y68952380D01*
X54704761Y69000000D01*
X54800000Y69047619D01*
X55038095Y69047619D01*
X55180952Y69000000D01*
X56133333Y68047619D02*
X55561904Y68047619D01*
X55847619Y68047619D02*
X55847619Y69047619D01*
X55752380Y68904761D01*
X55657142Y68809523D01*
X55561904Y68761904D01*
%TO.C,U2*%
X26952380Y80238095D02*
X27761904Y80238095D01*
X27857142Y80285714D01*
X27904761Y80333333D01*
X27952380Y80428571D01*
X27952380Y80619047D01*
X27904761Y80714285D01*
X27857142Y80761904D01*
X27761904Y80809523D01*
X26952380Y80809523D01*
X27047619Y81238095D02*
X27000000Y81285714D01*
X26952380Y81380952D01*
X26952380Y81619047D01*
X27000000Y81714285D01*
X27047619Y81761904D01*
X27142857Y81809523D01*
X27238095Y81809523D01*
X27380952Y81761904D01*
X27952380Y81190476D01*
X27952380Y81809523D01*
D16*
X20099999Y80900000D02*
X20385714Y80900000D01*
X20042857Y80728571D02*
X20242857Y81328571D01*
X20442857Y80728571D01*
X20642857Y80728571D02*
X20642857Y81328571D01*
X20842857Y80900000D01*
X21042857Y81328571D01*
X21042857Y80728571D01*
X21299999Y80757142D02*
X21385714Y80728571D01*
X21528571Y80728571D01*
X21585714Y80757142D01*
X21614285Y80785714D01*
X21642857Y80842857D01*
X21642857Y80900000D01*
X21614285Y80957142D01*
X21585714Y80985714D01*
X21528571Y81014285D01*
X21414285Y81042857D01*
X21357142Y81071428D01*
X21328571Y81100000D01*
X21299999Y81157142D01*
X21299999Y81214285D01*
X21328571Y81271428D01*
X21357142Y81300000D01*
X21414285Y81328571D01*
X21557142Y81328571D01*
X21642857Y81300000D01*
X22214285Y80728571D02*
X21871428Y80728571D01*
X22042857Y80728571D02*
X22042857Y81328571D01*
X21985714Y81242857D01*
X21928571Y81185714D01*
X21871428Y81157142D01*
X22785714Y80728571D02*
X22442857Y80728571D01*
X22614285Y80728571D02*
X22614285Y81328571D01*
X22557142Y81242857D01*
X22499999Y81185714D01*
X22442857Y81157142D01*
X23357142Y80728571D02*
X23014285Y80728571D01*
X23185714Y80728571D02*
X23185714Y81328571D01*
X23128571Y81242857D01*
X23071428Y81185714D01*
X23014285Y81157142D01*
X23557142Y81328571D02*
X23957142Y81328571D01*
X23699999Y80728571D01*
X24185714Y80957142D02*
X24642857Y80957142D01*
X24871428Y81328571D02*
X25242857Y81328571D01*
X25042857Y81100000D01*
X25128571Y81100000D01*
X25185714Y81071428D01*
X25214285Y81042857D01*
X25242857Y80985714D01*
X25242857Y80842857D01*
X25214285Y80785714D01*
X25185714Y80757142D01*
X25128571Y80728571D01*
X24957142Y80728571D01*
X24900000Y80757142D01*
X24871428Y80785714D01*
X25499999Y80785714D02*
X25528571Y80757142D01*
X25499999Y80728571D01*
X25471428Y80757142D01*
X25499999Y80785714D01*
X25499999Y80728571D01*
X25728571Y81328571D02*
X26099999Y81328571D01*
X25899999Y81100000D01*
X25985714Y81100000D01*
X26042857Y81071428D01*
X26071428Y81042857D01*
X26099999Y80985714D01*
X26099999Y80842857D01*
X26071428Y80785714D01*
X26042857Y80757142D01*
X25985714Y80728571D01*
X25814285Y80728571D01*
X25757142Y80757142D01*
X25728571Y80785714D01*
%TO.C,TP4*%
D10*
X87238095Y86285619D02*
X87809523Y86285619D01*
X87523809Y85285619D02*
X87523809Y86285619D01*
X88142857Y85285619D02*
X88142857Y86285619D01*
X88523809Y86285619D01*
X88619047Y86238000D01*
X88666666Y86190380D01*
X88714285Y86095142D01*
X88714285Y85952285D01*
X88666666Y85857047D01*
X88619047Y85809428D01*
X88523809Y85761809D01*
X88142857Y85761809D01*
X89571428Y85952285D02*
X89571428Y85285619D01*
X89333333Y86333238D02*
X89095238Y85618952D01*
X89714285Y85618952D01*
%TO.C,TP3*%
X87238095Y76125619D02*
X87809523Y76125619D01*
X87523809Y75125619D02*
X87523809Y76125619D01*
X88142857Y75125619D02*
X88142857Y76125619D01*
X88523809Y76125619D01*
X88619047Y76078000D01*
X88666666Y76030380D01*
X88714285Y75935142D01*
X88714285Y75792285D01*
X88666666Y75697047D01*
X88619047Y75649428D01*
X88523809Y75601809D01*
X88142857Y75601809D01*
X89047619Y76125619D02*
X89666666Y76125619D01*
X89333333Y75744666D01*
X89476190Y75744666D01*
X89571428Y75697047D01*
X89619047Y75649428D01*
X89666666Y75554190D01*
X89666666Y75316095D01*
X89619047Y75220857D01*
X89571428Y75173238D01*
X89476190Y75125619D01*
X89190476Y75125619D01*
X89095238Y75173238D01*
X89047619Y75220857D01*
%TO.C,TP2*%
X87238095Y81205619D02*
X87809523Y81205619D01*
X87523809Y80205619D02*
X87523809Y81205619D01*
X88142857Y80205619D02*
X88142857Y81205619D01*
X88523809Y81205619D01*
X88619047Y81158000D01*
X88666666Y81110380D01*
X88714285Y81015142D01*
X88714285Y80872285D01*
X88666666Y80777047D01*
X88619047Y80729428D01*
X88523809Y80681809D01*
X88142857Y80681809D01*
X89095238Y81110380D02*
X89142857Y81158000D01*
X89238095Y81205619D01*
X89476190Y81205619D01*
X89571428Y81158000D01*
X89619047Y81110380D01*
X89666666Y81015142D01*
X89666666Y80919904D01*
X89619047Y80777047D01*
X89047619Y80205619D01*
X89666666Y80205619D01*
%TO.C,TP1*%
X87238095Y71045619D02*
X87809523Y71045619D01*
X87523809Y70045619D02*
X87523809Y71045619D01*
X88142857Y70045619D02*
X88142857Y71045619D01*
X88523809Y71045619D01*
X88619047Y70998000D01*
X88666666Y70950380D01*
X88714285Y70855142D01*
X88714285Y70712285D01*
X88666666Y70617047D01*
X88619047Y70569428D01*
X88523809Y70521809D01*
X88142857Y70521809D01*
X89666666Y70045619D02*
X89095238Y70045619D01*
X89380952Y70045619D02*
X89380952Y71045619D01*
X89285714Y70902761D01*
X89190476Y70807523D01*
X89095238Y70759904D01*
%TO.C,JP2*%
X55166666Y73947619D02*
X55166666Y73233333D01*
X55119047Y73090476D01*
X55023809Y72995238D01*
X54880952Y72947619D01*
X54785714Y72947619D01*
X55642857Y72947619D02*
X55642857Y73947619D01*
X56023809Y73947619D01*
X56119047Y73900000D01*
X56166666Y73852380D01*
X56214285Y73757142D01*
X56214285Y73614285D01*
X56166666Y73519047D01*
X56119047Y73471428D01*
X56023809Y73423809D01*
X55642857Y73423809D01*
X56595238Y73852380D02*
X56642857Y73900000D01*
X56738095Y73947619D01*
X56976190Y73947619D01*
X57071428Y73900000D01*
X57119047Y73852380D01*
X57166666Y73757142D01*
X57166666Y73661904D01*
X57119047Y73519047D01*
X56547619Y72947619D01*
X57166666Y72947619D01*
%TO.C,J14*%
X17822380Y11190476D02*
X18536666Y11190476D01*
X18679523Y11142857D01*
X18774761Y11047619D01*
X18822380Y10904761D01*
X18822380Y10809523D01*
X18822380Y12190476D02*
X18822380Y11619047D01*
X18822380Y11904761D02*
X17822380Y11904761D01*
X17965238Y11809523D01*
X18060476Y11714285D01*
X18108095Y11619047D01*
X18155714Y13047619D02*
X18822380Y13047619D01*
X17774761Y12809523D02*
X18489047Y12571428D01*
X18489047Y13190476D01*
%TO.C,J7*%
X87302380Y46666666D02*
X88016666Y46666666D01*
X88159523Y46619047D01*
X88254761Y46523809D01*
X88302380Y46380952D01*
X88302380Y46285714D01*
X87302380Y47047619D02*
X87302380Y47714285D01*
X88302380Y47285714D01*
%TO.C,F1*%
X59328571Y88216666D02*
X59328571Y87883333D01*
X59852380Y87883333D02*
X58852380Y87883333D01*
X58852380Y88359523D01*
X59852380Y89264285D02*
X59852380Y88692857D01*
X59852380Y88978571D02*
X58852380Y88978571D01*
X58995238Y88883333D01*
X59090476Y88788095D01*
X59138095Y88692857D01*
X56633333Y90038095D02*
X56633333Y90838095D01*
X56938095Y90838095D01*
X57014285Y90800000D01*
X57052380Y90761904D01*
X57090476Y90685714D01*
X57090476Y90571428D01*
X57052380Y90495238D01*
X57014285Y90457142D01*
X56938095Y90419047D01*
X56633333Y90419047D01*
X57547619Y90038095D02*
X57471428Y90076190D01*
X57433333Y90114285D01*
X57395238Y90190476D01*
X57395238Y90419047D01*
X57433333Y90495238D01*
X57471428Y90533333D01*
X57547619Y90571428D01*
X57661904Y90571428D01*
X57738095Y90533333D01*
X57776190Y90495238D01*
X57814285Y90419047D01*
X57814285Y90190476D01*
X57776190Y90114285D01*
X57738095Y90076190D01*
X57661904Y90038095D01*
X57547619Y90038095D01*
X58271428Y90038095D02*
X58195238Y90076190D01*
X58157142Y90152380D01*
X58157142Y90838095D01*
X58500000Y90571428D02*
X58690476Y90038095D01*
X58880952Y90571428D02*
X58690476Y90038095D01*
X58614285Y89847619D01*
X58576190Y89809523D01*
X58500000Y89771428D01*
X59071428Y90571428D02*
X59376190Y90571428D01*
X59185714Y90038095D02*
X59185714Y90723809D01*
X59223809Y90800000D01*
X59300000Y90838095D01*
X59376190Y90838095D01*
X59985714Y90571428D02*
X59985714Y90038095D01*
X59642857Y90571428D02*
X59642857Y90152380D01*
X59680952Y90076190D01*
X59757142Y90038095D01*
X59871428Y90038095D01*
X59947619Y90076190D01*
X59985714Y90114285D01*
X60328571Y90076190D02*
X60404761Y90038095D01*
X60557142Y90038095D01*
X60633333Y90076190D01*
X60671428Y90152380D01*
X60671428Y90190476D01*
X60633333Y90266666D01*
X60557142Y90304761D01*
X60442857Y90304761D01*
X60366666Y90342857D01*
X60328571Y90419047D01*
X60328571Y90457142D01*
X60366666Y90533333D01*
X60442857Y90571428D01*
X60557142Y90571428D01*
X60633333Y90533333D01*
X61319047Y90076190D02*
X61242857Y90038095D01*
X61090476Y90038095D01*
X61014285Y90076190D01*
X60976190Y90152380D01*
X60976190Y90457142D01*
X61014285Y90533333D01*
X61090476Y90571428D01*
X61242857Y90571428D01*
X61319047Y90533333D01*
X61357142Y90457142D01*
X61357142Y90380952D01*
X60976190Y90304761D01*
X62690476Y90838095D02*
X62309523Y90838095D01*
X62271428Y90457142D01*
X62309523Y90495238D01*
X62385714Y90533333D01*
X62576190Y90533333D01*
X62652380Y90495238D01*
X62690476Y90457142D01*
X62728571Y90380952D01*
X62728571Y90190476D01*
X62690476Y90114285D01*
X62652380Y90076190D01*
X62576190Y90038095D01*
X62385714Y90038095D01*
X62309523Y90076190D01*
X62271428Y90114285D01*
X63223809Y90838095D02*
X63300000Y90838095D01*
X63376190Y90800000D01*
X63414285Y90761904D01*
X63452380Y90685714D01*
X63490476Y90533333D01*
X63490476Y90342857D01*
X63452380Y90190476D01*
X63414285Y90114285D01*
X63376190Y90076190D01*
X63300000Y90038095D01*
X63223809Y90038095D01*
X63147619Y90076190D01*
X63109523Y90114285D01*
X63071428Y90190476D01*
X63033333Y90342857D01*
X63033333Y90533333D01*
X63071428Y90685714D01*
X63109523Y90761904D01*
X63147619Y90800000D01*
X63223809Y90838095D01*
X63985714Y90838095D02*
X64061904Y90838095D01*
X64138095Y90800000D01*
X64176190Y90761904D01*
X64214285Y90685714D01*
X64252380Y90533333D01*
X64252380Y90342857D01*
X64214285Y90190476D01*
X64176190Y90114285D01*
X64138095Y90076190D01*
X64061904Y90038095D01*
X63985714Y90038095D01*
X63909523Y90076190D01*
X63871428Y90114285D01*
X63833333Y90190476D01*
X63795238Y90342857D01*
X63795238Y90533333D01*
X63833333Y90685714D01*
X63871428Y90761904D01*
X63909523Y90800000D01*
X63985714Y90838095D01*
X64595238Y90038095D02*
X64595238Y90571428D01*
X64595238Y90495238D02*
X64633333Y90533333D01*
X64709523Y90571428D01*
X64823809Y90571428D01*
X64900000Y90533333D01*
X64938095Y90457142D01*
X64938095Y90038095D01*
X64938095Y90457142D02*
X64976190Y90533333D01*
X65052380Y90571428D01*
X65166666Y90571428D01*
X65242857Y90533333D01*
X65280952Y90457142D01*
X65280952Y90038095D01*
X65623809Y90266666D02*
X66004761Y90266666D01*
X65547619Y90038095D02*
X65814285Y90838095D01*
X66080952Y90038095D01*
%TO.C,SW2*%
D18*
X8814047Y64306666D02*
X8874523Y64488095D01*
X8874523Y64790476D01*
X8814047Y64911428D01*
X8753571Y64971904D01*
X8632619Y65032380D01*
X8511666Y65032380D01*
X8390714Y64971904D01*
X8330238Y64911428D01*
X8269761Y64790476D01*
X8209285Y64548571D01*
X8148809Y64427619D01*
X8088333Y64367142D01*
X7967380Y64306666D01*
X7846428Y64306666D01*
X7725476Y64367142D01*
X7665000Y64427619D01*
X7604523Y64548571D01*
X7604523Y64850952D01*
X7665000Y65032380D01*
X7604523Y65455714D02*
X8874523Y65758095D01*
X7967380Y66000000D01*
X8874523Y66241904D01*
X7604523Y66544285D01*
X7725476Y66967619D02*
X7665000Y67028095D01*
X7604523Y67149047D01*
X7604523Y67451428D01*
X7665000Y67572380D01*
X7725476Y67632857D01*
X7846428Y67693333D01*
X7967380Y67693333D01*
X8148809Y67632857D01*
X8874523Y66907142D01*
X8874523Y67693333D01*
%TO.C,U1*%
D10*
X37838095Y56047619D02*
X37838095Y55238095D01*
X37885714Y55142857D01*
X37933333Y55095238D01*
X38028571Y55047619D01*
X38219047Y55047619D01*
X38314285Y55095238D01*
X38361904Y55142857D01*
X38409523Y55238095D01*
X38409523Y56047619D01*
X39409523Y55047619D02*
X38838095Y55047619D01*
X39123809Y55047619D02*
X39123809Y56047619D01*
X39028571Y55904761D01*
X38933333Y55809523D01*
X38838095Y55761904D01*
X41085714Y50495238D02*
X41228571Y50447619D01*
X41466666Y50447619D01*
X41561904Y50495238D01*
X41609523Y50542857D01*
X41657142Y50638095D01*
X41657142Y50733333D01*
X41609523Y50828571D01*
X41561904Y50876190D01*
X41466666Y50923809D01*
X41276190Y50971428D01*
X41180952Y51019047D01*
X41133333Y51066666D01*
X41085714Y51161904D01*
X41085714Y51257142D01*
X41133333Y51352380D01*
X41180952Y51400000D01*
X41276190Y51447619D01*
X41514285Y51447619D01*
X41657142Y51400000D01*
X41942857Y51447619D02*
X42514285Y51447619D01*
X42228571Y50447619D02*
X42228571Y51447619D01*
X42847619Y50447619D02*
X42847619Y51447619D01*
X43180952Y50733333D01*
X43514285Y51447619D01*
X43514285Y50447619D01*
X43895238Y51447619D02*
X44514285Y51447619D01*
X44180952Y51066666D01*
X44323809Y51066666D01*
X44419047Y51019047D01*
X44466666Y50971428D01*
X44514285Y50876190D01*
X44514285Y50638095D01*
X44466666Y50542857D01*
X44419047Y50495238D01*
X44323809Y50447619D01*
X44038095Y50447619D01*
X43942857Y50495238D01*
X43895238Y50542857D01*
X44895238Y51352380D02*
X44942857Y51400000D01*
X45038095Y51447619D01*
X45276190Y51447619D01*
X45371428Y51400000D01*
X45419047Y51352380D01*
X45466666Y51257142D01*
X45466666Y51161904D01*
X45419047Y51019047D01*
X44847619Y50447619D01*
X45466666Y50447619D01*
X46228571Y50971428D02*
X45895238Y50971428D01*
X45895238Y50447619D02*
X45895238Y51447619D01*
X46371428Y51447619D01*
X47180952Y51114285D02*
X47180952Y50447619D01*
X46942857Y51495238D02*
X46704761Y50780952D01*
X47323809Y50780952D01*
X47895238Y51447619D02*
X47990476Y51447619D01*
X48085714Y51400000D01*
X48133333Y51352380D01*
X48180952Y51257142D01*
X48228571Y51066666D01*
X48228571Y50828571D01*
X48180952Y50638095D01*
X48133333Y50542857D01*
X48085714Y50495238D01*
X47990476Y50447619D01*
X47895238Y50447619D01*
X47800000Y50495238D01*
X47752380Y50542857D01*
X47704761Y50638095D01*
X47657142Y50828571D01*
X47657142Y51066666D01*
X47704761Y51257142D01*
X47752380Y51352380D01*
X47800000Y51400000D01*
X47895238Y51447619D01*
X48561904Y51447619D02*
X49228571Y51447619D01*
X48800000Y50447619D01*
X49466666Y51447619D02*
X49800000Y50447619D01*
X50133333Y51447619D01*
X50466666Y50971428D02*
X50800000Y50971428D01*
X50942857Y50447619D02*
X50466666Y50447619D01*
X50466666Y51447619D01*
X50942857Y51447619D01*
X51228571Y51447619D02*
X51800000Y51447619D01*
X51514285Y50447619D02*
X51514285Y51447619D01*
X52038095Y50447619D02*
X52561904Y51114285D01*
X52038095Y51114285D02*
X52561904Y50447619D01*
%TD*%
M02*
