%TF.GenerationSoftware,KiCad,Pcbnew,(5.1.9)-1*%
%TF.CreationDate,2021-03-02T10:58:18+01:00*%
%TF.ProjectId,Midular v2 Proto STM32F407VET6,4d696475-6c61-4722-9076-322050726f74,rev?*%
%TF.SameCoordinates,Original*%
%TF.FileFunction,Soldermask,Bot*%
%TF.FilePolarity,Negative*%
%FSLAX46Y46*%
G04 Gerber Fmt 4.6, Leading zero omitted, Abs format (unit mm)*
G04 Created by KiCad (PCBNEW (5.1.9)-1) date 2021-03-02 10:58:18*
%MOMM*%
%LPD*%
G01*
G04 APERTURE LIST*
%ADD10O,1.700000X1.700000*%
%ADD11R,1.700000X1.700000*%
%ADD12C,5.700000*%
%ADD13R,3.000000X4.200000*%
G04 APERTURE END LIST*
D10*
%TO.C,J21*%
X86740000Y19620000D03*
X86740000Y17080000D03*
X84200000Y19620000D03*
X84200000Y17080000D03*
X81660000Y19620000D03*
X81660000Y17080000D03*
X79120000Y19620000D03*
X79120000Y17080000D03*
X76580000Y19620000D03*
X76580000Y17080000D03*
X74040000Y19620000D03*
X74040000Y17080000D03*
X71500000Y19620000D03*
X71500000Y17080000D03*
X68960000Y19620000D03*
X68960000Y17080000D03*
X66420000Y19620000D03*
X66420000Y17080000D03*
X63880000Y19620000D03*
X63880000Y17080000D03*
X61340000Y19620000D03*
X61340000Y17080000D03*
X58800000Y19620000D03*
D11*
X58800000Y17080000D03*
%TD*%
D10*
%TO.C,J20*%
X86740000Y24700000D03*
X86740000Y22160000D03*
X84200000Y24700000D03*
X84200000Y22160000D03*
X81660000Y24700000D03*
X81660000Y22160000D03*
X79120000Y24700000D03*
X79120000Y22160000D03*
X76580000Y24700000D03*
X76580000Y22160000D03*
X74040000Y24700000D03*
D11*
X74040000Y22160000D03*
%TD*%
D12*
%TO.C,H4*%
X90000000Y4000000D03*
%TD*%
%TO.C,H3*%
X4000000Y4000000D03*
%TD*%
%TO.C,H2*%
X90000000Y90000000D03*
%TD*%
%TO.C,H1*%
X4000000Y90000000D03*
%TD*%
D11*
%TO.C,J18*%
X84200000Y12000000D03*
%TD*%
D10*
%TO.C,J1*%
X86300000Y59220000D03*
X86300000Y61760000D03*
D11*
X86300000Y64300000D03*
%TD*%
D10*
%TO.C,JP3*%
X40380000Y64400000D03*
X37840000Y64400000D03*
D11*
X35300000Y64400000D03*
%TD*%
D10*
%TO.C,J16*%
X20700000Y17080000D03*
X18160000Y17080000D03*
X15620000Y17080000D03*
X13080000Y17080000D03*
X10540000Y17080000D03*
D11*
X8000000Y17080000D03*
%TD*%
D10*
%TO.C,J13*%
X79120000Y12000000D03*
X76580000Y12000000D03*
X74040000Y12000000D03*
D11*
X71500000Y12000000D03*
%TD*%
D10*
%TO.C,J15*%
X48280000Y29650000D03*
X45740000Y29650000D03*
X43200000Y29650000D03*
X40660000Y29650000D03*
X38120000Y29650000D03*
X35580000Y29650000D03*
X33040000Y29650000D03*
D11*
X30500000Y29650000D03*
%TD*%
D10*
%TO.C,J17*%
X8000000Y12000000D03*
X10540000Y12000000D03*
X13080000Y12000000D03*
D11*
X15620000Y12000000D03*
%TD*%
D10*
%TO.C,J14*%
X38480000Y12000000D03*
X35940000Y12000000D03*
X33400000Y12000000D03*
X30860000Y12000000D03*
X28320000Y12000000D03*
X25780000Y12000000D03*
X23240000Y12000000D03*
D11*
X20700000Y12000000D03*
%TD*%
D10*
%TO.C,J12*%
X49200000Y71180000D03*
X49200000Y73720000D03*
X49200000Y76260000D03*
D11*
X49200000Y78800000D03*
%TD*%
D10*
%TO.C,J11*%
X66420000Y22160000D03*
X63880000Y22160000D03*
X61340000Y22160000D03*
D11*
X58800000Y22160000D03*
%TD*%
D10*
%TO.C,J10*%
X66420000Y12000000D03*
X63880000Y12000000D03*
X61340000Y12000000D03*
D11*
X58800000Y12000000D03*
%TD*%
D10*
%TO.C,J9*%
X13220000Y57400000D03*
X15760000Y57400000D03*
X18300000Y57400000D03*
X20840000Y57400000D03*
X23380000Y57400000D03*
X25920000Y57400000D03*
X28460000Y57400000D03*
D11*
X31000000Y57400000D03*
%TD*%
D10*
%TO.C,J8*%
X49200000Y58180000D03*
X49200000Y60720000D03*
X49200000Y63260000D03*
D11*
X49200000Y65800000D03*
%TD*%
D13*
%TO.C,BAT1*%
X13200000Y76700000D03*
X42200000Y76700000D03*
%TD*%
M02*
