%TF.GenerationSoftware,KiCad,Pcbnew,(5.1.9)-1*%
%TF.CreationDate,2021-03-02T10:58:18+01:00*%
%TF.ProjectId,Midular v2 Proto STM32F407VET6,4d696475-6c61-4722-9076-322050726f74,rev?*%
%TF.SameCoordinates,Original*%
%TF.FileFunction,Legend,Bot*%
%TF.FilePolarity,Positive*%
%FSLAX46Y46*%
G04 Gerber Fmt 4.6, Leading zero omitted, Abs format (unit mm)*
G04 Created by KiCad (PCBNEW (5.1.9)-1) date 2021-03-02 10:58:18*
%MOMM*%
%LPD*%
G01*
G04 APERTURE LIST*
%ADD10C,0.100000*%
%ADD11C,0.200000*%
%ADD12C,0.254000*%
G04 APERTURE END LIST*
D10*
%TO.C,BAT1*%
X41950000Y74160000D02*
X41950000Y71700000D01*
X41950000Y71700000D02*
X38750000Y71700000D01*
X38750000Y71700000D02*
X38750000Y68700000D01*
X38750000Y68700000D02*
X16650000Y68700000D01*
X16650000Y68700000D02*
X16650000Y71620000D01*
X16650000Y71620000D02*
X16650000Y71700000D01*
X16650000Y71700000D02*
X13450000Y71700000D01*
X13450000Y71700000D02*
X13450000Y74160000D01*
X13450000Y79240000D02*
X13450000Y81700000D01*
X13450000Y81700000D02*
X16650000Y81700000D01*
X16650000Y81700000D02*
X16650000Y84700000D01*
X16650000Y84700000D02*
X38750000Y84700000D01*
X38750000Y84700000D02*
X38750000Y81700000D01*
X38750000Y81700000D02*
X41950000Y81700000D01*
X41950000Y81700000D02*
X41950000Y79240000D01*
D11*
X44100000Y76700000D02*
X44100000Y76700000D01*
X44300000Y76700000D02*
X44300000Y76700000D01*
X44100000Y76700000D02*
G75*
G03*
X44300000Y76700000I100000J0D01*
G01*
X44300000Y76700000D02*
G75*
G03*
X44100000Y76700000I-100000J0D01*
G01*
D12*
X27609285Y78242142D02*
X27669761Y78060714D01*
X27730238Y78000238D01*
X27851190Y77939761D01*
X28032619Y77939761D01*
X28153571Y78000238D01*
X28214047Y78060714D01*
X28274523Y78181666D01*
X28274523Y78665476D01*
X27004523Y78665476D01*
X27004523Y78242142D01*
X27065000Y78121190D01*
X27125476Y78060714D01*
X27246428Y78000238D01*
X27367380Y78000238D01*
X27488333Y78060714D01*
X27548809Y78121190D01*
X27609285Y78242142D01*
X27609285Y78665476D01*
X27911666Y77455952D02*
X27911666Y76851190D01*
X28274523Y77576904D02*
X27004523Y77153571D01*
X28274523Y76730238D01*
X27004523Y76488333D02*
X27004523Y75762619D01*
X28274523Y76125476D02*
X27004523Y76125476D01*
X28274523Y74674047D02*
X28274523Y75399761D01*
X28274523Y75036904D02*
X27004523Y75036904D01*
X27185952Y75157857D01*
X27306904Y75278809D01*
X27367380Y75399761D01*
%TD*%
M02*
